<svg width="288" height="107" viewBox="0 0 288 107" fill="none" xmlns="http://www.w3.org/2000/svg">
<path d="M89.3248 67.6488V85.6295H77.5908V105.084H57.4964V85.6295H2.05344L0 67.354L55.7363 1.91598H77.5908V67.6488H89.3248ZM57.4964 26.3815L22.2945 67.7961H57.4964V26.3815Z" fill="#142D3E"/>
<path d="M145.919 107C136.826 107 128.856 105.182 122.011 101.547C115.167 97.9114 109.837 92.753 106.024 86.0716C102.308 79.3903 100.45 71.6281 100.45 62.7851V44.3623C100.45 35.5193 102.308 27.7571 106.024 21.0758C109.837 14.3944 115.167 9.236 122.011 5.60056C128.856 1.86685 136.826 0 145.919 0C154.915 0 162.836 1.86685 169.681 5.60056C176.525 9.236 181.806 14.3944 185.521 21.0758C189.335 27.7571 191.242 35.5193 191.242 44.3623V62.7851C191.242 71.6281 189.335 79.3903 185.521 86.0716C181.806 92.753 176.525 97.9114 169.681 101.547C162.836 105.182 154.915 107 145.919 107ZM145.919 88.2824C153.351 88.2824 159.316 85.9734 163.814 81.3554C168.409 76.6391 170.707 70.449 170.707 62.7851V44.3623C170.707 36.6001 168.458 30.41 163.96 25.792C159.462 21.0758 153.449 18.7176 145.919 18.7176C138.39 18.7176 132.376 21.0758 127.878 25.792C123.38 30.41 121.131 36.6001 121.131 44.3623V62.7851C121.131 70.449 123.38 76.6391 127.878 81.3554C132.376 85.9734 138.39 88.2824 145.919 88.2824Z" fill="#142D3E"/>
<path d="M288 67.6488V85.6295H276.266V105.084H256.172V85.6295H200.729L198.675 67.354L254.412 1.91598H276.266V67.6488H288ZM256.172 26.3815L220.97 67.7961H256.172V26.3815Z" fill="#142D3E"/>
</svg>
