<svg width="146" height="60" xmlns="http://www.w3.org/2000/svg"><path d="M48.882 19.14h.28v.913l1.05-.913h.42l-.84.702.91 1.263h-.35l-.77-1.052-.42.35v.702h-.28V19.14ZM52.239 20.053c0-.562.49-1.053 1.189-1.053.699 0 1.189.421 1.189 1.053 0 .561-.49 1.052-1.19 1.052-.699 0-1.188-.42-1.188-1.052Zm2.098 0c0-.421-.35-.772-.91-.772-.559 0-.909.35-.909.772 0 .42.35.772.91.772s.909-.351.909-.772ZM56.575 19.07h.28l.769 1.123.77-1.123h.28v1.965h-.28v-1.404l-.7 1.123-.7-1.123v1.404h-.28V19.07h-.14ZM60.771 21.035V19.07h1.82v1.965h-.28v-1.684h-1.19v1.684h-.35ZM65.248 19.07h.21l.978 1.965h-.35l-.699-1.474-.7 1.474h-.349l.91-1.965ZM68.115 19.07h1.82v.28h-1.54v.492h.98v.28h-.98v.632h1.61v.281h-1.89V19.07ZM71.962 19.14h.28v.913l1.05-.913h.42l-.84.702.91 1.263h-.35l-.77-1.052-.42.35v.702h-.28V19.14ZM77.557 20.614c-.21.35-.56.561-1.05.561-.699 0-1.188-.42-1.188-1.052 0-.562.49-1.053 1.189-1.053.42 0 .77.14.979.491l-.21.14c-.14-.21-.42-.35-.77-.35-.489 0-.839.35-.839.772 0 .42.35.772.84.772.35 0 .63-.14.84-.421l.209.14ZM48.882 24.614h1.189c.42 0 .63.14.63.491 0 .14-.07.281-.21.351.21.14.349.281.349.492 0 .35-.21.56-.7.56h-1.258v-1.894Zm.28.28v.492h.909c.21 0 .28-.07.28-.21 0-.14-.07-.211-.28-.211h-.91v-.07Zm0 1.404h.979c.21 0 .35-.14.35-.35 0-.211-.14-.351-.35-.351h-.98v.701ZM54.057 25.386c.14 0 .35 0 .49.14.07.07.14.21.14.421 0 .21-.07.351-.14.421-.14.14-.35.14-.49.14h-1.189v-1.964h.28v.772h.91v.07Zm-.91.912h.91c.07 0 .21 0 .21-.07.07-.07.07-.14.07-.28 0-.141-.07-.211-.07-.281-.07-.07-.21-.07-.28-.07h-.84v.701Zm1.82-1.684h.279v1.965h-.28v-1.965ZM59.442 26.088c-.21.35-.56.561-1.049.561-.7 0-1.189-.421-1.189-1.053 0-.56.49-1.052 1.19-1.052.419 0 .769.14.978.491l-.21.14c-.14-.21-.419-.35-.769-.35-.49 0-.839.35-.839.771 0 .421.35.772.84.772.349 0 .629-.14.839-.42l.21.14ZM61.26 25.596c0-.56.49-1.052 1.19-1.052s1.189.42 1.189 1.052c0 .562-.49 1.053-1.19 1.053-.699 0-1.188-.491-1.188-1.053Zm2.099 0c0-.42-.35-.771-.91-.771-.559 0-.908.35-.908.771 0 .421.35.772.909.772.56 0 .909-.35.909-.771ZM66.087 24.895h-.84v-.28h1.959v.28h-.84v1.684h-.28v-1.684ZM69.304 26.58h-.28v-1.966h.28v.772h1.399v-.772h.28v1.965h-.28v-.912h-1.399v.912ZM74.27 25.386c.14 0 .35 0 .49.14.07.07.14.21.14.421 0 .21-.07.351-.14.421-.14.14-.35.14-.49.14h-1.19v-1.964h.28v.772h.91v.07Zm-.84.912h.91c.07 0 .21 0 .21-.07.07-.07.07-.14.07-.28 0-.141-.07-.211-.07-.281-.07-.07-.21-.07-.28-.07h-.84v.701Zm1.819-1.684h.28v1.965h-.28v-1.965ZM78.186 25.597l-.84-.983h.35l.63.772.63-.772h.35l-.84.983.84.982h-.35l-.63-.772-.63.772h-.35l.84-.982ZM85.88 26.298h.28V27h-.28v-.42H84.06V27h-.28v-.702h.28l.77-1.684h.21l.838 1.684Zm-.35 0-.56-1.263-.56 1.263h1.12ZM87.698 25.596c0-.56.49-1.052 1.189-1.052.7 0 1.189.42 1.189 1.052 0 .562-.49 1.053-1.189 1.053-.7 0-1.189-.491-1.189-1.053Zm2.098 0c0-.42-.35-.771-.909-.771-.56 0-.91.35-.91.771 0 .421.35.772.91.772s.91-.35.91-.771ZM92.034 24.614h.28l.77 1.123.769-1.123h.28v1.965h-.28v-1.403l-.7 1.122-.7-1.122v1.403h-.279v-1.965h-.14ZM96.021 25.596c0-.56.49-1.052 1.19-1.052.698 0 1.188.42 1.188 1.052 0 .562-.49 1.053-1.189 1.053-.7 0-1.189-.491-1.189-1.053Zm2.098 0c0-.42-.35-.771-.909-.771-.56 0-.91.35-.91.771 0 .421.35.772.91.772s.91-.35.91-.771ZM100.357 24.614h1.189c.42 0 .63.14.63.491 0 .14-.07.281-.21.351.21.14.35.281.35.492 0 .35-.21.56-.7.56h-1.259v-1.894Zm.28.28v.492h.909c.21 0 .28-.07.28-.21 0-.14-.07-.211-.28-.211h-.909v-.07Zm0 1.404h.979c.21 0 .35-.14.35-.35 0-.211-.14-.351-.35-.351h-.979v.701ZM53.313 52.467h-4.319v-18h10.498V38.4h-6.246v14.067h.067ZM68.063 60h-4.451V34.4h4.186l.265 2.467c1.396-2 3.788-2.867 5.847-2.867 5.515 0 9.236 4.133 9.236 9.467 0 5.266-3.322 9.466-9.103 9.466-1.927 0-4.717-.6-5.98-2.533V60Zm.4-16.533c0 2.8 2.059 5.133 5.115 5.133s5.116-2.333 5.116-5.133-1.927-5.134-5.116-5.134c-3.19 0-5.116 2.334-5.116 5.134ZM105.47 52.733h-4.186l-.199-2.6c-.997 2.134-3.787 3.134-5.78 3.134-5.316.066-9.236-3.267-9.236-9.534 0-6.2 4.12-9.4 9.302-9.4 2.392 0 4.651 1.134 5.714 2.934l.133-2.467h4.252v17.933Zm-9.7-14.4c-2.924 0-5.316 2-5.316 5.4 0 3.4 2.326 5.467 5.316 5.467 6.976 0 6.976-10.867 0-10.867ZM126.067 34.533v18h-4.318v-6.8h-7.043v6.8h-4.319v-18h4.319V41.6h7.043v-7.067h4.318ZM146 52.467h-4.053V41.8l-8.305 10.667h-2.658v-18h4.053v9.8l7.707-9.8H146v18Z" fill="#fff"/><path d="M1.164 34.592H0v22.133h1.164V34.592Z" fill="url(#paint0_linear_794_5013)"/><path d="M32.977 34.592h-1.165v22.133h1.165V34.592Z" fill="url(#paint1_linear_794_5013)"/><path d="M5.441 27.403H3.64v32.56H5.44v-32.56Z" fill="url(#paint2_linear_794_5013)"/><path d="M29.3 27.403h-1.802v32.56h1.803v-32.56Z" fill="url(#paint3_linear_794_5013)"/><path d="M9.343 15.621H7.766V56.35h1.577V15.62Z" fill="url(#paint4_linear_794_5013)"/><path d="M25.211 15.621h-1.577V56.35h1.577V15.62Z" fill="url(#paint5_linear_794_5013)"/><path d="M13.169 7.453h-1.352v46.75h1.352V7.453Z" fill="url(#paint6_linear_794_5013)"/><path d="M21.122 7.453H19.77v46.75h1.352V7.453Z" fill="url(#paint7_linear_794_5013)"/><path d="M17.07 0h-1.164v50.401h1.164V0Z" fill="url(#paint8_linear_794_5013)"/><defs><linearGradient id="paint0_linear_794_5013" x1="-2.605" y1="-.747" x2="-2.535" y2="60.179" gradientUnits="userSpaceOnUse"><stop stop-color="#B13302"/><stop offset=".25" stop-color="#C83E04"/><stop offset=".75" stop-color="#F65709"/><stop offset="1" stop-color="#FF9516"/></linearGradient><linearGradient id="paint1_linear_794_5013" x1="-3.254" y1="-.747" x2="-3.185" y2="60.179" gradientUnits="userSpaceOnUse"><stop stop-color="#B13302"/><stop offset=".25" stop-color="#C83E04"/><stop offset=".75" stop-color="#F65709"/><stop offset="1" stop-color="#FF9516"/></linearGradient><linearGradient id="paint2_linear_794_5013" x1="2.835" y1="-.712" x2="2.908" y2="60.191" gradientUnits="userSpaceOnUse"><stop stop-color="#B13302"/><stop offset=".25" stop-color="#C83E04"/><stop offset=".75" stop-color="#F65709"/><stop offset="1" stop-color="#FF9516"/></linearGradient><linearGradient id="paint3_linear_794_5013" x1="2.522" y1="-.712" x2="2.595" y2="60.191" gradientUnits="userSpaceOnUse"><stop stop-color="#B13302"/><stop offset=".25" stop-color="#C83E04"/><stop offset=".75" stop-color="#F65709"/><stop offset="1" stop-color="#FF9516"/></linearGradient><linearGradient id="paint4_linear_794_5013" x1="-31.018" y1="-.714" x2="-30.967" y2="60.105" gradientUnits="userSpaceOnUse"><stop stop-color="#B13302"/><stop offset=".25" stop-color="#C83E04"/><stop offset=".75" stop-color="#F65709"/><stop offset="1" stop-color="#FF9516"/></linearGradient><linearGradient id="paint5_linear_794_5013" x1="-27.778" y1="-.714" x2="-27.727" y2="60.105" gradientUnits="userSpaceOnUse"><stop stop-color="#B13302"/><stop offset=".25" stop-color="#C83E04"/><stop offset=".75" stop-color="#F65709"/><stop offset="1" stop-color="#FF9516"/></linearGradient><linearGradient id="paint6_linear_794_5013" x1="-61.867" y1="-.718" x2="-61.829" y2="60.078" gradientUnits="userSpaceOnUse"><stop stop-color="#FD8713"/><stop offset=".205" stop-color="#C83E04"/><stop offset=".764" stop-color="#C83E04"/><stop offset="1" stop-color="#FF9516"/></linearGradient><linearGradient id="paint7_linear_794_5013" x1="-62.009" y1="-.718" x2="-61.971" y2="60.078" gradientUnits="userSpaceOnUse"><stop stop-color="#FD8713"/><stop offset=".205" stop-color="#C83E04"/><stop offset=".5" stop-color="#F65709"/><stop offset=".764" stop-color="#C83E04"/><stop offset="1" stop-color="#FF9516"/></linearGradient><linearGradient id="paint8_linear_794_5013" x1="15.122" y1="-.577" x2="17.819" y2="50.325" gradientUnits="userSpaceOnUse"><stop stop-color="#FD8713"/><stop offset=".205" stop-color="#C83E04"/><stop offset=".764" stop-color="#C83E04"/><stop offset="1" stop-color="#FF9516"/></linearGradient></defs></svg>
