<svg width="147" height="54" viewBox="0 0 147 54" fill="none" xmlns="http://www.w3.org/2000/svg">
<path d="M44.6426 3.15918H45.1746V4.88226L47.1699 3.15918H47.968L46.3718 4.48462L48.101 6.87042H47.4359L45.9727 4.88226L45.1746 5.54498V6.87042H44.6426V3.15918Z" fill="white"/>
<path d="M51.0176 4.88172C51.0176 3.82136 51.9477 2.89355 53.2765 2.89355C54.6053 2.89355 55.5354 3.68882 55.5354 4.88172C55.5354 5.94207 54.6053 6.86988 53.2765 6.86988C51.9477 6.86988 51.0176 6.07461 51.0176 4.88172ZM55.0039 4.88172C55.0039 4.08645 54.3395 3.42373 53.2765 3.42373C52.2135 3.42373 51.5491 4.08645 51.5491 4.88172C51.5491 5.67698 52.2135 6.3397 53.2765 6.3397C54.3395 6.3397 55.0039 5.67698 55.0039 4.88172Z" fill="white"/>
<path d="M59.2637 3.02588H59.7952L61.2568 5.14658L62.7185 3.02588H63.25V6.73712H62.7185V4.08624L61.3897 6.20694L60.0609 4.08624V6.73712H59.5294V3.02588H59.2637Z" fill="white"/>
<path d="M67.7586 6.73712H67.2266V3.02588H70.685V6.73712H70.1529V3.55606H67.8916V6.73712H67.7586Z" fill="white"/>
<path d="M75.7352 3.02588H76.1339L77.9941 6.73712H77.3297L76.001 3.95369L74.6722 6.73712H74.0078L75.7352 3.02588Z" fill="white"/>
<path d="M81.1836 3.02588H84.642V3.55606H81.7157V4.48386H83.5779V5.01404H81.7157V6.20694H84.7751V6.73712H81.1836V3.02588V3.02588Z" fill="white"/>
<path d="M88.4883 3.15918H89.0203V4.88226L91.0156 3.15918H91.8137L90.2175 4.48462L91.9467 6.87042H91.2816L89.8185 4.88226L89.0203 5.54498V6.87042H88.4883V3.15918V3.15918Z" fill="white"/>
<path d="M99.1251 5.94185C98.7265 6.60457 98.0621 7.0022 97.132 7.0022C95.8032 7.0022 94.873 6.20694 94.873 5.01404C94.873 3.95369 95.8032 3.02588 97.132 3.02588C97.9292 3.02588 98.5936 3.29097 98.9923 3.95369L98.5936 4.21878C98.3279 3.82115 97.7964 3.55606 97.132 3.55606C96.2018 3.55606 95.5374 4.21878 95.5374 5.01404C95.5374 5.8093 96.2018 6.47202 97.132 6.47202C97.7964 6.47202 98.3279 6.20694 98.7265 5.67676L99.1251 5.94185Z" fill="white"/>
<path d="M44.6426 13.4976H46.9015C47.6988 13.4976 48.0974 13.7626 48.0974 14.4254C48.0974 14.6905 47.9645 14.9555 47.6988 15.0881C48.0974 15.3532 48.3632 15.6183 48.3632 16.0159C48.3632 16.6786 47.9645 17.0762 47.0344 17.0762H44.6426V13.4976V13.4976ZM45.1741 14.0277V14.9555H46.9015C47.3001 14.9555 47.433 14.823 47.433 14.5579C47.433 14.2928 47.3001 14.1603 46.9015 14.1603H45.1741V14.0277ZM45.1741 15.4857V16.6786H47.0344C47.433 16.6786 47.6988 16.4135 47.6988 16.0159C47.6988 15.6183 47.433 15.3532 47.0344 15.3532H45.1741V15.4857Z" fill="white"/>
<path d="M54.4757 14.9538C54.7415 14.9538 55.1401 14.9538 55.4058 15.2189C55.5387 15.3514 55.6716 15.6165 55.6716 16.0142C55.6716 16.4118 55.5387 16.6769 55.4058 16.8094C55.1401 17.0745 54.7415 17.0745 54.4757 17.0745H52.2168V13.3633H52.7483V14.8213H54.4757V14.9538ZM52.7483 16.6769H54.4757C54.6086 16.6769 54.8743 16.6769 54.8743 16.5443C55.0072 16.4118 55.0072 16.2793 55.0072 16.0142C55.0072 15.7491 54.8743 15.6165 54.8743 15.484C54.7415 15.3514 54.4757 15.3514 54.3428 15.3514H52.7483V16.6769V16.6769ZM56.2031 13.4958H56.7346V17.2071H56.2031V13.4958Z" fill="white"/>
<path d="M64.7072 16.2792C64.3085 16.942 63.6441 17.3396 62.714 17.3396C61.3852 17.3396 60.4551 16.5443 60.4551 15.3514C60.4551 14.2911 61.3852 13.3633 62.714 13.3633C63.5113 13.3633 64.1756 13.6284 64.5743 14.2911L64.1757 14.5562C63.9099 14.1585 63.3784 13.8935 62.714 13.8935C61.7838 13.8935 61.1195 14.5562 61.1195 15.3514C61.1195 16.1467 61.7838 16.8094 62.714 16.8094C63.3784 16.8094 63.9099 16.5443 64.3085 16.0142L64.7072 16.2792Z" fill="white"/>
<path d="M68.168 15.3514C68.168 14.2911 69.0981 13.3633 70.4269 13.3633C71.7557 13.3633 72.6858 14.1585 72.6858 15.3514C72.6858 16.4118 71.7557 17.3396 70.4269 17.3396C69.0981 17.3396 68.168 16.4118 68.168 15.3514ZM72.1543 15.3514C72.1543 14.5562 71.4899 13.8935 70.4269 13.8935C69.3639 13.8935 68.6995 14.5562 68.6995 15.3514C68.6995 16.1467 69.3639 16.8094 70.4269 16.8094C71.4899 16.8094 72.1543 16.1467 72.1543 15.3514Z" fill="white"/>
<path d="M77.3309 14.0277H75.7363V13.4976H79.4569V14.0277H77.8624V17.2088H77.3309V14.0277V14.0277Z" fill="white"/>
<path d="M83.4436 17.2088H82.9121V13.4976H83.4436V14.9555H86.1012V13.4976H86.6327V17.2088H86.1012V15.4857H83.4436V17.2088Z" fill="white"/>
<path d="M92.8781 14.9538C93.1438 14.9538 93.5425 14.9538 93.8082 15.2189C93.9411 15.3514 94.074 15.6165 94.074 16.0142C94.074 16.4118 93.9411 16.6769 93.8082 16.8094C93.5425 17.0745 93.1438 17.0745 92.8781 17.0745H90.6191V13.3633H91.1507V14.8213H92.8781V14.9538ZM91.2835 16.6769H93.0109C93.1438 16.6769 93.4096 16.6769 93.4096 16.5443C93.5425 16.4118 93.5424 16.2793 93.5424 16.0142C93.5424 15.7491 93.4096 15.6165 93.4096 15.484C93.2767 15.3514 93.0109 15.3514 92.8781 15.3514H91.2835V16.6769V16.6769ZM94.7384 13.4958H95.2699V17.2071H94.7384V13.4958Z" fill="white"/>
<path d="M100.319 15.3532L98.7246 13.4976H99.389L100.585 14.9555L101.781 13.4976H102.445L100.851 15.3532L102.445 17.2088H101.781L100.585 15.7508L99.389 17.2088H98.7246L100.319 15.3532Z" fill="white"/>
<path d="M114.932 16.6786H115.463V18.0041H114.932V17.2088H111.477V18.0041H110.945V16.6786H111.477L112.938 13.4976H113.337L114.932 16.6786ZM114.267 16.6786L113.204 14.2928L112.141 16.6786H114.267Z" fill="white"/>
<path d="M118.395 15.3514C118.395 14.2911 119.325 13.3633 120.653 13.3633C121.982 13.3633 122.912 14.1585 122.912 15.3514C122.912 16.4118 121.982 17.3396 120.653 17.3396C119.325 17.3396 118.395 16.4118 118.395 15.3514ZM122.381 15.3514C122.381 14.5562 121.716 13.8935 120.653 13.8935C119.59 13.8935 118.926 14.5562 118.926 15.3514C118.926 16.1467 119.59 16.8094 120.653 16.8094C121.716 16.8094 122.381 16.1467 122.381 15.3514Z" fill="white"/>
<path d="M126.625 13.4976H127.157L128.618 15.6183L130.08 13.4976H130.611V17.2088H130.08V14.5579L128.751 16.6786L127.422 14.5579V17.2088H126.891V13.4976H126.625Z" fill="white"/>
<path d="M134.201 15.3514C134.201 14.2911 135.131 13.3633 136.46 13.3633C137.789 13.3633 138.719 14.1585 138.719 15.3514C138.719 16.4118 137.789 17.3396 136.46 17.3396C135.131 17.3396 134.201 16.4118 134.201 15.3514ZM138.187 15.3514C138.187 14.5562 137.523 13.8935 136.46 13.8935C135.397 13.8935 134.733 14.5562 134.733 15.3514C134.733 16.1467 135.397 16.8094 136.46 16.8094C137.523 16.8094 138.187 16.1467 138.187 15.3514Z" fill="white"/>
<path d="M142.443 13.4976H144.702C145.5 13.4976 145.898 13.7626 145.898 14.4254C145.898 14.6905 145.765 14.9555 145.5 15.0881C145.898 15.3532 146.164 15.6183 146.164 16.0159C146.164 16.6786 145.765 17.0762 144.835 17.0762H142.443V13.4976V13.4976ZM142.975 14.0277V14.9555H144.702C145.101 14.9555 145.234 14.823 145.234 14.5579C145.234 14.2928 145.101 14.1603 144.702 14.1603H142.975V14.0277ZM142.975 15.4857V16.6786H144.835C145.234 16.6786 145.5 16.4135 145.5 16.0159C145.5 15.6183 145.234 15.3532 144.835 15.3532H142.975V15.4857Z" fill="white"/>
<path d="M49.2977 46.1293H44.7617V27.335H55.7875V31.4419H49.2279V46.1293H49.2977Z" fill="white"/>
<path d="M64.7907 53.996H60.1152V27.2663H64.5116L64.7907 29.8418C66.2562 27.7535 68.7684 26.8486 70.9317 26.8486C76.7237 26.8486 80.6316 31.1644 80.6316 36.733C80.6316 42.2321 77.1425 46.6175 71.0713 46.6175C69.0476 46.6175 66.1166 45.991 64.7907 43.9723V53.996V53.996ZM65.2094 36.733C65.2094 39.6566 67.3727 42.0929 70.5828 42.0929C73.7928 42.0929 75.9561 39.6566 75.9561 36.733C75.9561 33.8095 73.9324 31.3732 70.5828 31.3732C67.2332 31.3732 65.2094 33.8095 65.2094 36.733Z" fill="white"/>
<path d="M104.078 46.4082H99.6816L99.4723 43.6935C98.4255 45.921 95.4946 46.9651 93.4011 46.9651C87.8184 47.0347 83.7012 43.5543 83.7012 37.0111C83.7012 30.5375 88.0278 27.1963 93.4709 27.1963C95.9831 27.1963 98.3557 28.3796 99.4723 30.2591L99.6118 27.6836H104.078V46.4082V46.4082ZM93.8896 31.3728C90.8191 31.3728 88.3069 33.4611 88.3069 37.0111C88.3069 40.5611 90.7493 42.719 93.8896 42.719C101.217 42.719 101.217 31.3728 93.8896 31.3728Z" fill="white"/>
<path d="M125.713 27.4053V46.1996H121.177V39.0995H113.78V46.1996H109.244V27.4053H113.78V34.7838H121.177V27.4053H125.713Z" fill="white"/>
<path d="M146.642 27.4046V46.1293H142.385V34.9919L133.662 46.1293H130.871V27.335H135.128V37.5674L143.223 27.335H146.642V27.4046Z" fill="white"/>
<path d="M0.975868 28.8269H0V47.2711H0.975868V28.8269Z" fill="url(#paint0_linear_1440_10109)"/>
<path d="M27.6419 28.8271H26.666V47.2713H27.6419V28.8271Z" fill="url(#paint1_linear_1440_10109)"/>
<path d="M4.5618 22.8354H3.05078V49.9684H4.5618V22.8354Z" fill="url(#paint2_linear_1440_10109)"/>
<path d="M24.5618 22.8354H23.0508V49.9684H24.5618V22.8354Z" fill="url(#paint3_linear_1440_10109)"/>
<path d="M7.83191 13.0176H6.50977V46.9574H7.83191V13.0176Z" fill="url(#paint4_linear_1440_10109)"/>
<path d="M21.1327 13.0176H19.8105V46.9574H21.1327V13.0176Z" fill="url(#paint5_linear_1440_10109)"/>
<path d="M11.0378 6.21094H9.90454V45.1695H11.0378V6.21094Z" fill="url(#paint6_linear_1440_10109)"/>
<path d="M17.7055 6.21094H16.5723V45.1695H17.7055V6.21094Z" fill="url(#paint7_linear_1440_10109)"/>
<path d="M14.3079 0H13.332V42.0013H14.3079V0Z" fill="url(#paint8_linear_1440_10109)"/>
<defs>
<linearGradient id="paint0_linear_1440_10109" x1="-0.0174089" y1="28.5973" x2="0.966427" y2="47.2744" gradientUnits="userSpaceOnUse">
<stop stop-color="#B13302"/>
<stop offset="0.25" stop-color="#C83E04"/>
<stop offset="0.75" stop-color="#F65709"/>
<stop offset="1" stop-color="#FF9516"/>
</linearGradient>
<linearGradient id="paint1_linear_1440_10109" x1="26.6443" y1="28.5976" x2="27.6281" y2="47.2747" gradientUnits="userSpaceOnUse">
<stop stop-color="#B13302"/>
<stop offset="0.25" stop-color="#C83E04"/>
<stop offset="0.75" stop-color="#F65709"/>
<stop offset="1" stop-color="#FF9516"/>
</linearGradient>
<linearGradient id="paint2_linear_1440_10109" x1="3.08012" y1="22.5133" x2="4.52687" y2="49.9787" gradientUnits="userSpaceOnUse">
<stop stop-color="#B13302"/>
<stop offset="0.25" stop-color="#C83E04"/>
<stop offset="0.75" stop-color="#F65709"/>
<stop offset="1" stop-color="#FF9516"/>
</linearGradient>
<linearGradient id="paint3_linear_1440_10109" x1="23.0769" y1="22.5133" x2="24.5236" y2="49.9787" gradientUnits="userSpaceOnUse">
<stop stop-color="#B13302"/>
<stop offset="0.25" stop-color="#C83E04"/>
<stop offset="0.75" stop-color="#F65709"/>
<stop offset="1" stop-color="#FF9516"/>
</linearGradient>
<linearGradient id="paint4_linear_1440_10109" x1="6.22887" y1="12.6138" x2="8.03604" y2="46.9214" gradientUnits="userSpaceOnUse">
<stop stop-color="#B13302"/>
<stop offset="0.25" stop-color="#C83E04"/>
<stop offset="0.75" stop-color="#F65709"/>
<stop offset="1" stop-color="#FF9516"/>
</linearGradient>
<linearGradient id="paint5_linear_1440_10109" x1="19.559" y1="12.6138" x2="21.3662" y2="46.9214" gradientUnits="userSpaceOnUse">
<stop stop-color="#B13302"/>
<stop offset="0.25" stop-color="#C83E04"/>
<stop offset="0.75" stop-color="#F65709"/>
<stop offset="1" stop-color="#FF9516"/>
</linearGradient>
<linearGradient id="paint6_linear_1440_10109" x1="9.42432" y1="5.74456" x2="11.4979" y2="45.1106" gradientUnits="userSpaceOnUse">
<stop stop-color="#FD8713"/>
<stop offset="0.2053" stop-color="#C83E04"/>
<stop offset="0.764" stop-color="#C83E04"/>
<stop offset="1" stop-color="#FF9516"/>
</linearGradient>
<linearGradient id="paint7_linear_1440_10109" x1="16.0909" y1="5.74456" x2="18.1646" y2="45.1106" gradientUnits="userSpaceOnUse">
<stop stop-color="#FD8713"/>
<stop offset="0.2053" stop-color="#C83E04"/>
<stop offset="0.5" stop-color="#F65709"/>
<stop offset="0.764" stop-color="#C83E04"/>
<stop offset="1" stop-color="#FF9516"/>
</linearGradient>
<linearGradient id="paint8_linear_1440_10109" x1="12.6748" y1="-0.480521" x2="14.9093" y2="41.9393" gradientUnits="userSpaceOnUse">
<stop stop-color="#FD8713"/>
<stop offset="0.2053" stop-color="#C83E04"/>
<stop offset="0.764" stop-color="#C83E04"/>
<stop offset="1" stop-color="#FF9516"/>
</linearGradient>
</defs>
</svg>
