<svg width="152" height="30" fill="none" xmlns="http://www.w3.org/2000/svg"><path d="M1.884 17.43H0l2.873-6.276H5.22l2.873 6.276H6.178l-.526-1.305H2.41l-.525 1.305Zm2.039-5.002-1.02 2.454h2.224l-.988-2.454h-.216ZM10.285 17.399h-1.76V12.52h4.88v1.18h-3.12V17.4ZM20.387 12.52v4.91h-1.761v-2.858l-2.749 2.858h-1.822v-4.91h1.76v2.921l2.75-2.92h1.822ZM22.393 12.52h4.942v3.73h.68v1.894H26.1v-.714h-3.552v.714h-1.76V16.25h.215a.947.947 0 0 0 .587-.186c.186-.124.309-.28.433-.497a2.75 2.75 0 0 0 .278-.808c.061-.31.092-.653.092-1.056V12.52Zm1.76 1.181v.125c0 .59-.06 1.056-.154 1.429-.123.404-.308.746-.556.994h2.132v-2.547h-1.421ZM34.317 15.38h-4.294c0 .124.031.279.093.403.062.125.154.249.247.342.247.217.587.31 1.05.31.34 0 .649-.061.865-.217.093-.062.185-.124.216-.217.062-.063.093-.156.124-.218h1.637a2.12 2.12 0 0 1-.772 1.212c-.494.373-1.174.56-2.039.56-1.112 0-1.946-.218-2.502-.684-.494-.404-.71-1.026-.71-1.802v-.28c0-.746.247-1.305.741-1.74.556-.466 1.36-.683 2.471-.683.494 0 .927.062 1.297.186.371.124.68.31.927.56.216.217.402.465.494.776.124.31.155.621.155.994v.497Zm-4.294-.964v.031h2.657c-.031-.31-.124-.559-.31-.714-.215-.187-.555-.311-.988-.311-.463 0-.803.124-1.05.342-.093.093-.185.186-.216.31a.711.711 0 0 0-.093.342ZM41.637 17.43h-1.76v-3.666h-2.472v1.305c0 .434-.061.838-.154 1.15-.093.31-.247.558-.463.745a2.064 2.064 0 0 1-.865.435 5.38 5.38 0 0 1-1.328.155v-1.212c.216 0 .37-.03.525-.062.123-.062.247-.124.309-.217.061-.093.123-.218.154-.342.03-.155.03-.31.03-.528v-2.641h5.993v4.878h.031ZM42.378 12.52h1.76v1.306h1.422c.895 0 1.575.155 2.007.435.433.28.618.714.618 1.274v.062c0 .28-.062.559-.185.777a1.7 1.7 0 0 1-.495.559c-.216.155-.463.248-.74.341a4.475 4.475 0 0 1-.958.125h-3.429V12.52Zm4.046 3.139v-.062c0-.156-.061-.28-.185-.404-.154-.124-.34-.155-.587-.155H44.17v1.211h1.513c.247 0 .432-.062.556-.155a.631.631 0 0 0 .185-.435ZM62.794 11.154v6.276h-1.73l.032-3.635.061-.466h-.03l-3.584 4.1h-1.791v-6.275h1.73l-.031 3.79-.062.435h.03l3.646-4.194h1.73v-.031ZM65.389 17.43h-1.761v-4.91h1.76v1.865h2.75v-1.864h1.76v4.909h-1.76v-1.802h-2.75v1.802ZM70.732 17.43v-4.91h3.583c.741 0 1.328.125 1.73.374.185.124.34.248.432.435.093.155.155.373.155.559v.124c0 .435-.248.746-.742.932.278.093.495.249.649.404.154.187.247.404.247.653v.093c0 .435-.185.745-.587.994-.401.218-.957.342-1.76.342h-3.707Zm4.046-3.449v-.03c0-.156-.061-.28-.185-.343a.893.893 0 0 0-.432-.093h-1.73v.932h1.73c.061 0 .123 0 .185-.03.062-.032.123-.032.185-.063.186-.093.247-.217.247-.373Zm.155 1.957c0-.186-.062-.31-.186-.403-.123-.094-.308-.125-.525-.125h-1.791v.995h1.853c.216 0 .37-.032.463-.125.155-.062.186-.186.186-.342ZM83.273 15.38H78.98c0 .124.03.279.093.403.061.125.154.249.247.342.247.218.587.31 1.05.31.34 0 .649-.061.865-.217.093-.062.185-.124.216-.217.062-.062.093-.156.124-.218h1.637a2.12 2.12 0 0 1-.773 1.212c-.494.373-1.173.56-2.038.56-1.112 0-1.946-.218-2.502-.684-.494-.404-.71-1.026-.71-1.802v-.28c0-.746.247-1.305.74-1.74.557-.466 1.36-.683 2.472-.683.494 0 .927.062 1.297.186.37.124.68.31.927.56.216.217.401.465.494.776.124.31.154.621.154.994v.497Zm-4.293-.964v.031h2.656c-.03-.31-.123-.559-.308-.714-.217-.187-.556-.311-.989-.311-.463 0-.803.124-1.05.342-.093.093-.185.186-.216.31a.711.711 0 0 0-.093.342ZM89.945 14.385H88.34c-.093-.28-.216-.466-.433-.59-.247-.155-.556-.218-.957-.218-.216 0-.433.031-.618.094-.185.062-.34.155-.432.248-.124.093-.186.249-.247.373-.062.155-.093.31-.093.466v.404c0 .186.03.342.093.466.061.155.154.28.278.373.123.124.278.186.432.248.185.062.37.094.618.094.401 0 .71-.063.926-.218.217-.124.371-.342.464-.621h1.606c-.03.28-.124.528-.247.745-.124.249-.309.435-.525.622-.525.404-1.267.621-2.193.621-1.081 0-1.915-.218-2.471-.684a2.142 2.142 0 0 1-.556-.745 2.433 2.433 0 0 1-.186-.963v-.342c0-.342.062-.684.186-.963.123-.28.309-.528.556-.746a2.417 2.417 0 0 1 1.019-.497c.402-.124.896-.186 1.452-.186.618 0 1.174.093 1.606.28.401.186.71.403.957.714.155.31.31.621.371 1.025ZM95.752 13.67h-1.946v3.76h-1.76v-3.76h-1.947v-1.15h5.653v1.15ZM102.053 15.037h1.792c-.062.373-.155.715-.34.995-.185.31-.401.559-.679.776-.309.218-.68.404-1.081.529a5.152 5.152 0 0 1-1.452.186c-.618 0-1.174-.062-1.668-.218a3.132 3.132 0 0 1-1.205-.59 2.348 2.348 0 0 1-.71-.932 3.183 3.183 0 0 1-.247-1.243v-.559c0-.466.092-.87.247-1.243.154-.372.401-.683.71-.932a3.64 3.64 0 0 1 1.205-.59 6.588 6.588 0 0 1 1.668-.217c1.05 0 1.884.217 2.502.683.309.217.525.497.71.808.185.31.309.652.34 1.056h-1.792c-.092-.404-.278-.714-.617-.932-.309-.217-.711-.31-1.174-.31-.278 0-.525.03-.772.093a1.652 1.652 0 0 0-.618.31c-.185.156-.34.311-.433.528a1.736 1.736 0 0 0-.154.715v.652c0 .28.062.529.154.715.093.217.248.373.433.528.185.124.37.218.618.31.247.063.494.094.772.094.463 0 .865-.124 1.174-.342.309-.186.525-.497.617-.87ZM109.96 13.67h-1.946v3.76h-1.76v-3.76h-1.946v-1.15h5.652v1.15ZM112.278 18.921h-1.761v-6.4h1.761v.621c.185-.248.401-.404.679-.528.309-.124.68-.217 1.112-.217.464 0 .834.062 1.205.186.34.124.649.31.865.56.216.217.401.496.494.776.124.31.185.621.185.932v.28c0 .341-.061.652-.185.932-.123.28-.278.559-.525.777a2.697 2.697 0 0 1-.865.528c-.34.124-.741.186-1.174.186-.432 0-.803-.062-1.112-.217a1.912 1.912 0 0 1-.679-.529v2.113Zm2.718-3.821v-.249a1.29 1.29 0 0 0-.093-.497c-.061-.155-.154-.28-.247-.404-.247-.248-.587-.373-1.05-.373-.463 0-.803.124-1.05.404-.216.249-.309.56-.309.963v.124c0 .436.124.777.371.995.216.217.556.341.988.341.216 0 .433-.03.618-.093.185-.062.309-.155.432-.28.124-.124.217-.248.247-.403.062-.187.093-.342.093-.528ZM117.22 15.13v-.31c0-.746.247-1.336.71-1.74.556-.466 1.359-.683 2.471-.683 1.081 0 1.915.217 2.471.683.247.218.433.466.556.746.124.28.186.621.186.994v.31c0 .746-.247 1.306-.711 1.74-.556.467-1.359.715-2.471.715s-1.915-.217-2.471-.683a2.149 2.149 0 0 1-.556-.746 3.01 3.01 0 0 1-.185-1.025Zm1.76-.31v.31c0 .187.031.342.093.498.062.155.155.28.247.404.124.124.278.217.433.28.185.061.37.092.617.092.464 0 .834-.124 1.051-.341.123-.124.216-.249.247-.404a1.29 1.29 0 0 0 .092-.497v-.311c0-.186-.03-.342-.092-.497-.062-.155-.155-.28-.247-.404-.247-.248-.587-.342-1.081-.342-.464 0-.834.125-1.082.342-.123.093-.185.249-.247.404-.061.155-.031.28-.031.466ZM130.563 12.52v4.91h-1.76V14.57l-2.749 2.859h-1.823v-4.91h1.761v2.921l2.749-2.92h1.822Zm-1.884-.59h-2.656v-1.149h2.656v1.15ZM135.166.684l16.031 10.594v.373l-5.313 3.2-10.749-7.24V.685h.031ZM135.042 0a.51.51 0 0 0-.494.497v7.177c0 .155.093.342.216.435l11.089 7.488 5.931-3.604c-.031 0-.031-1.026-.062-1.026L135.289.093a.347.347 0 0 0-.247-.093Z" fill="#fff"/><path d="m151.784 10.967-.556-.373-.031-.03.031.03c.216.187.031.342 0 .373l-16.433 10.874c-.154.094-.216.249-.216.435v7.208c0 .404.433.653.772.435l16.433-10.874c.154-.093.216-.248.216-.435v-7.239a.533.533 0 0 0-.216-.404ZM54.085 15.72h-4.2v-1.46h4.2v1.46Z" fill="#fff"/></svg>