<svg viewBox="0 0 182 67" fill="none" xmlns="http://www.w3.org/2000/svg">
<path d="M60.8458 56.9371H55.2471V33.7393H68.8562V38.8084H60.7596V56.9371H60.8458Z" fill="white"/>
<path d="M79.969 66.6466H74.198V33.6542H79.6244L79.969 36.8331C81.7778 34.2556 84.8786 33.1387 87.5488 33.1387C94.6979 33.1387 99.5214 38.4656 99.5214 45.339C99.5214 52.1265 95.2147 57.5393 87.721 57.5393C85.2232 57.5393 81.6055 56.7661 79.969 54.2745V66.6466ZM80.4858 45.339C80.4858 48.9476 83.1559 51.9547 87.1181 51.9547C91.0803 51.9547 93.7504 48.9476 93.7504 45.339C93.7504 41.7305 91.2525 38.7233 87.1181 38.7233C82.9837 38.7233 80.4858 41.7305 80.4858 45.339Z" fill="white"/>
<path d="M128.463 57.2812H123.036L122.778 53.9304C121.486 56.6798 117.868 57.9685 115.284 57.9685C108.393 58.0545 103.312 53.7586 103.312 45.6823C103.312 37.6919 108.652 33.5679 115.37 33.5679C118.471 33.5679 121.4 35.0285 122.778 37.3483L122.95 34.1693H128.463V57.2812ZM115.887 38.7229C112.097 38.7229 108.996 41.3005 108.996 45.6823C108.996 50.0641 112.011 52.7275 115.887 52.7275C124.931 52.7275 124.931 38.7229 115.887 38.7229Z" fill="white"/>
<path d="M155.166 33.8259V57.0237H149.568V48.2601H140.437V57.0237H134.839V33.8259H140.437V42.9332H149.568V33.8259H155.166Z" fill="white"/>
<path d="M180.999 33.8252V56.9371H175.745V43.1902L164.978 56.9371H161.533V33.7393H166.787V46.3692L176.778 33.7393H180.999V33.8252Z" fill="white"/>
<path d="M61.085 9.99976H59.585L56.981 7.31176V9.99976H55.865V4.07176H56.981V6.62776L59.309 4.07176H60.713L58.073 6.92776L61.085 9.99976ZM66.6949 10.1318C66.0789 10.1318 65.5309 9.99976 65.0509 9.73576C64.5789 9.46376 64.2109 9.09176 63.9469 8.61976C63.6909 8.14776 63.5629 7.61976 63.5629 7.03576C63.5629 6.45176 63.6909 5.92376 63.9469 5.45176C64.2109 4.97976 64.5789 4.61176 65.0509 4.34776C65.5309 4.07576 66.0789 3.93976 66.6949 3.93976C67.3109 3.93976 67.8549 4.07576 68.3269 4.34776C68.7989 4.61176 69.1629 4.97976 69.4189 5.45176C69.6829 5.92376 69.8149 6.45176 69.8149 7.03576C69.8149 7.61976 69.6829 8.14776 69.4189 8.61976C69.1629 9.09176 68.7989 9.46376 68.3269 9.73576C67.8549 9.99976 67.3109 10.1318 66.6949 10.1318ZM66.6949 9.09976C67.0869 9.09976 67.4349 9.00776 67.7389 8.82376C68.0429 8.63976 68.2789 8.39176 68.4469 8.07976C68.6149 7.75976 68.6989 7.41176 68.6989 7.03576C68.6989 6.65976 68.6149 6.31576 68.4469 6.00376C68.2789 5.68376 68.0429 5.43176 67.7389 5.24776C67.4349 5.06376 67.0869 4.97176 66.6949 4.97176C66.2949 4.97176 65.9429 5.06376 65.6389 5.24776C65.3349 5.43176 65.0989 5.68376 64.9309 6.00376C64.7629 6.31576 64.6789 6.65976 64.6789 7.03576C64.6789 7.41176 64.7629 7.75976 64.9309 8.07976C65.0989 8.39176 65.3349 8.63976 65.6389 8.82376C65.9429 9.00776 66.2949 9.09976 66.6949 9.09976ZM79.0505 4.07176H80.1785V10.0118H79.0985V5.72776L76.9385 8.53576H76.7105L74.5625 5.72776V10.0118H73.4825V4.07176H74.6225L76.8665 6.95176L79.0505 4.07176ZM84.2483 4.07176H89.6963V9.99976H88.5803V5.10376H85.3643V9.99976H84.2483V4.07176ZM99.0879 4.07176V9.99976H97.9719V5.10376H95.7159L95.5479 7.08376C95.4919 7.75576 95.3879 8.29576 95.2359 8.70376C95.0839 9.11176 94.8679 9.42776 94.5879 9.65176C94.3159 9.86776 93.9559 10.0238 93.5079 10.1198L93.3039 9.14776C93.5679 9.07576 93.7719 8.96776 93.9159 8.82376C94.0679 8.67976 94.1839 8.46376 94.2639 8.17576C94.3519 7.88776 94.4199 7.47576 94.4679 6.93976L94.7199 4.07176H99.0879ZM105.807 3.95176C106.759 3.95176 107.503 4.22776 108.039 4.77976C108.575 5.33176 108.843 6.09576 108.843 7.07176C108.843 7.24776 108.839 7.38376 108.831 7.47976H103.923C103.979 7.99176 104.187 8.39576 104.547 8.69176C104.915 8.97976 105.383 9.12376 105.951 9.12376C106.311 9.12376 106.655 9.05976 106.983 8.93176C107.319 8.80376 107.575 8.63576 107.751 8.42776L108.471 9.11176C108.191 9.43976 107.823 9.69576 107.367 9.87976C106.919 10.0638 106.439 10.1558 105.927 10.1558C105.295 10.1558 104.739 10.0278 104.259 9.77176C103.787 9.51576 103.419 9.15176 103.155 8.67976C102.899 8.20776 102.771 7.65976 102.771 7.03576C102.771 6.43576 102.899 5.90376 103.155 5.43976C103.411 4.96776 103.767 4.60376 104.223 4.34776C104.679 4.08376 105.207 3.95176 105.807 3.95176ZM105.843 4.94776C105.323 4.94776 104.895 5.08776 104.559 5.36776C104.231 5.63976 104.023 6.02776 103.935 6.53176H107.775C107.727 6.05176 107.531 5.66776 107.187 5.37976C106.843 5.09176 106.395 4.94776 105.843 4.94776ZM117.687 9.99976H116.187L113.583 7.31176V9.99976H112.467V4.07176H113.583V6.62776L115.911 4.07176H117.315L114.675 6.92776L117.687 9.99976ZM123.297 10.1318C122.681 10.1318 122.137 10.0038 121.665 9.74776C121.193 9.49176 120.825 9.13176 120.561 8.66776C120.297 8.19576 120.165 7.65176 120.165 7.03576C120.165 6.42776 120.297 5.89176 120.561 5.42776C120.825 4.95576 121.193 4.59176 121.665 4.33576C122.137 4.07176 122.677 3.93976 123.285 3.93976C124.133 3.93976 124.873 4.24376 125.505 4.85176L124.809 5.59576C124.609 5.39576 124.377 5.24376 124.113 5.13976C123.857 5.02776 123.585 4.97176 123.297 4.97176C122.913 4.97176 122.565 5.05976 122.253 5.23576C121.949 5.40376 121.709 5.64376 121.533 5.95576C121.365 6.26776 121.281 6.62776 121.281 7.03576C121.281 7.65176 121.469 8.15176 121.845 8.53576C122.221 8.91176 122.705 9.09976 123.297 9.09976C123.601 9.09976 123.889 9.04376 124.161 8.93176C124.433 8.81176 124.669 8.64776 124.869 8.43976L125.565 9.20776C125.245 9.52776 124.897 9.76376 124.521 9.91576C124.153 10.0598 123.745 10.1318 123.297 10.1318ZM60.149 18.9878C60.413 19.0758 60.629 19.2478 60.797 19.5038C60.973 19.7598 61.061 20.0398 61.061 20.3438C61.061 20.8878 60.889 21.2998 60.545 21.5798C60.209 21.8598 59.713 21.9998 59.057 21.9998H55.865V16.0718H59.057C59.625 16.0718 60.069 16.2118 60.389 16.4918C60.717 16.7718 60.881 17.1598 60.881 17.6558C60.881 17.9598 60.817 18.2278 60.689 18.4598C60.561 18.6918 60.381 18.8678 60.149 18.9878ZM59.777 17.7638C59.777 17.5398 59.697 17.3598 59.537 17.2238C59.385 17.0798 59.173 17.0078 58.901 17.0078H56.921V18.5198H58.877C59.165 18.5198 59.385 18.4518 59.537 18.3158C59.697 18.1798 59.777 17.9958 59.777 17.7638ZM58.961 21.0638C59.305 21.0638 59.557 20.9918 59.717 20.8478C59.885 20.7038 59.969 20.5078 59.969 20.2598C59.969 20.0198 59.881 19.8278 59.705 19.6838C59.537 19.5318 59.281 19.4558 58.937 19.4558H56.921V21.0638H58.961ZM67.6472 17.9678C68.3112 17.9678 68.8392 18.1478 69.2312 18.5078C69.6232 18.8678 69.8192 19.3558 69.8192 19.9718C69.8192 20.6518 69.6272 21.1598 69.2432 21.4958C68.8592 21.8318 68.3272 21.9998 67.6472 21.9998H64.7792V16.0718H65.8952V17.9678H67.6472ZM67.5512 21.0038C67.9192 21.0038 68.2032 20.9158 68.4032 20.7398C68.6032 20.5638 68.7032 20.3078 68.7032 19.9718C68.7032 19.6438 68.6032 19.3958 68.4032 19.2278C68.2112 19.0518 67.9272 18.9638 67.5512 18.9638H65.8832V21.0038H67.5512ZM71.0552 16.0718H72.1712V21.9998H71.0552V16.0718ZM78.9724 22.1318C78.3564 22.1318 77.8124 22.0038 77.3404 21.7478C76.8684 21.4918 76.5004 21.1318 76.2364 20.6678C75.9724 20.1958 75.8404 19.6518 75.8404 19.0358C75.8404 18.4278 75.9724 17.8918 76.2364 17.4278C76.5004 16.9558 76.8684 16.5918 77.3404 16.3358C77.8124 16.0718 78.3524 15.9398 78.9604 15.9398C79.8084 15.9398 80.5484 16.2438 81.1804 16.8518L80.4844 17.5958C80.2844 17.3958 80.0524 17.2438 79.7884 17.1398C79.5324 17.0278 79.2604 16.9718 78.9724 16.9718C78.5884 16.9718 78.2404 17.0598 77.9284 17.2358C77.6244 17.4038 77.3844 17.6438 77.2084 17.9558C77.0404 18.2678 76.9564 18.6278 76.9564 19.0358C76.9564 19.6518 77.1444 20.1518 77.5204 20.5358C77.8964 20.9118 78.3804 21.0998 78.9724 21.0998C79.2764 21.0998 79.5644 21.0438 79.8364 20.9318C80.1084 20.8118 80.3444 20.6478 80.5444 20.4398L81.2404 21.2078C80.9204 21.5278 80.5724 21.7638 80.1964 21.9158C79.8284 22.0598 79.4204 22.1318 78.9724 22.1318ZM87.3593 22.1318C86.7433 22.1318 86.1953 21.9998 85.7153 21.7358C85.2433 21.4638 84.8753 21.0918 84.6113 20.6198C84.3553 20.1478 84.2273 19.6198 84.2273 19.0358C84.2273 18.4518 84.3553 17.9238 84.6113 17.4518C84.8753 16.9798 85.2433 16.6118 85.7153 16.3478C86.1953 16.0758 86.7433 15.9398 87.3593 15.9398C87.9753 15.9398 88.5193 16.0758 88.9913 16.3478C89.4633 16.6118 89.8273 16.9798 90.0833 17.4518C90.3473 17.9238 90.4793 18.4518 90.4793 19.0358C90.4793 19.6198 90.3473 20.1478 90.0833 20.6198C89.8273 21.0918 89.4633 21.4638 88.9913 21.7358C88.5193 21.9998 87.9753 22.1318 87.3593 22.1318ZM87.3593 21.0998C87.7513 21.0998 88.0993 21.0078 88.4033 20.8238C88.7073 20.6398 88.9433 20.3918 89.1113 20.0798C89.2793 19.7598 89.3633 19.4118 89.3633 19.0358C89.3633 18.6598 89.2793 18.3158 89.1113 18.0038C88.9433 17.6838 88.7073 17.4318 88.4033 17.2478C88.0993 17.0638 87.7513 16.9718 87.3593 16.9718C86.9593 16.9718 86.6073 17.0638 86.3033 17.2478C85.9993 17.4318 85.7633 17.6838 85.5953 18.0038C85.4273 18.3158 85.3433 18.6598 85.3433 19.0358C85.3433 19.4118 85.4273 19.7598 85.5953 20.0798C85.7633 20.3918 85.9993 20.6398 86.3033 20.8238C86.6073 21.0078 86.9593 21.0998 87.3593 21.0998ZM98.653 16.0718V17.1038H96.601V21.9998H95.485V17.1038H93.421V16.0718H98.653ZM106.584 16.0718H107.7V21.9998H106.584V19.4318H103.368V21.9998H102.252V16.0718H103.368V18.3998H106.584V16.0718ZM114.644 17.9678C115.308 17.9678 115.836 18.1478 116.228 18.5078C116.62 18.8678 116.816 19.3558 116.816 19.9718C116.816 20.6518 116.624 21.1598 116.24 21.4958C115.856 21.8318 115.324 21.9998 114.644 21.9998H111.776V16.0718H112.892V17.9678H114.644ZM114.548 21.0038C114.916 21.0038 115.2 20.9158 115.4 20.7398C115.6 20.5638 115.7 20.3078 115.7 19.9718C115.7 19.6438 115.6 19.3958 115.4 19.2278C115.208 19.0518 114.924 18.9638 114.548 18.9638H112.88V21.0038H114.548ZM118.052 16.0718H119.168V21.9998H118.052V16.0718ZM126.125 18.9158L128.309 21.9998H126.965L125.417 19.7198L123.821 21.9998H122.501L124.685 18.9278L122.645 16.0718H123.989L124.877 17.3438L125.405 18.1598L125.957 17.3438L126.845 16.0718H128.177L126.125 18.9158ZM143.139 20.9678V23.5838H142.083V21.9998H137.415V23.5838H136.347V20.9678H137.007C137.215 20.7278 137.371 20.4718 137.475 20.1998C137.579 19.9278 137.655 19.5278 137.703 18.9998L137.967 16.0718H142.227V20.9678H143.139ZM138.795 19.0838C138.763 19.5558 138.703 19.9358 138.615 20.2238C138.527 20.5038 138.403 20.7598 138.243 20.9918H141.111V17.0798H138.963L138.795 19.0838ZM149.196 22.1318C148.58 22.1318 148.032 21.9998 147.552 21.7358C147.08 21.4638 146.712 21.0918 146.448 20.6198C146.192 20.1478 146.064 19.6198 146.064 19.0358C146.064 18.4518 146.192 17.9238 146.448 17.4518C146.712 16.9798 147.08 16.6118 147.552 16.3478C148.032 16.0758 148.58 15.9398 149.196 15.9398C149.812 15.9398 150.356 16.0758 150.828 16.3478C151.3 16.6118 151.664 16.9798 151.92 17.4518C152.184 17.9238 152.316 18.4518 152.316 19.0358C152.316 19.6198 152.184 20.1478 151.92 20.6198C151.664 21.0918 151.3 21.4638 150.828 21.7358C150.356 21.9998 149.812 22.1318 149.196 22.1318ZM149.196 21.0998C149.588 21.0998 149.936 21.0078 150.24 20.8238C150.544 20.6398 150.78 20.3918 150.948 20.0798C151.116 19.7598 151.2 19.4118 151.2 19.0358C151.2 18.6598 151.116 18.3158 150.948 18.0038C150.78 17.6838 150.544 17.4318 150.24 17.2478C149.936 17.0638 149.588 16.9718 149.196 16.9718C148.796 16.9718 148.444 17.0638 148.14 17.2478C147.836 17.4318 147.6 17.6838 147.432 18.0038C147.264 18.3158 147.18 18.6598 147.18 19.0358C147.18 19.4118 147.264 19.7598 147.432 20.0798C147.6 20.3918 147.836 20.6398 148.14 20.8238C148.444 21.0078 148.796 21.0998 149.196 21.0998ZM161.552 16.0718H162.68V22.0118H161.6V17.7278L159.44 20.5358H159.212L157.064 17.7278V22.0118H155.984V16.0718H157.124L159.368 18.9518L161.552 16.0718ZM169.486 22.1318C168.87 22.1318 168.322 21.9998 167.842 21.7358C167.37 21.4638 167.002 21.0918 166.738 20.6198C166.482 20.1478 166.354 19.6198 166.354 19.0358C166.354 18.4518 166.482 17.9238 166.738 17.4518C167.002 16.9798 167.37 16.6118 167.842 16.3478C168.322 16.0758 168.87 15.9398 169.486 15.9398C170.102 15.9398 170.646 16.0758 171.118 16.3478C171.59 16.6118 171.954 16.9798 172.21 17.4518C172.474 17.9238 172.606 18.4518 172.606 19.0358C172.606 19.6198 172.474 20.1478 172.21 20.6198C171.954 21.0918 171.59 21.4638 171.118 21.7358C170.646 21.9998 170.102 22.1318 169.486 22.1318ZM169.486 21.0998C169.878 21.0998 170.226 21.0078 170.53 20.8238C170.834 20.6398 171.07 20.3918 171.238 20.0798C171.406 19.7598 171.49 19.4118 171.49 19.0358C171.49 18.6598 171.406 18.3158 171.238 18.0038C171.07 17.6838 170.834 17.4318 170.53 17.2478C170.226 17.0638 169.878 16.9718 169.486 16.9718C169.086 16.9718 168.734 17.0638 168.43 17.2478C168.126 17.4318 167.89 17.6838 167.722 18.0038C167.554 18.3158 167.47 18.6598 167.47 19.0358C167.47 19.4118 167.554 19.7598 167.722 20.0798C167.89 20.3918 168.126 20.6398 168.43 20.8238C168.734 21.0078 169.086 21.0998 169.486 21.0998ZM180.557 18.9878C180.821 19.0758 181.037 19.2478 181.205 19.5038C181.381 19.7598 181.469 20.0398 181.469 20.3438C181.469 20.8878 181.297 21.2998 180.953 21.5798C180.617 21.8598 180.121 21.9998 179.465 21.9998H176.273V16.0718H179.465C180.033 16.0718 180.477 16.2118 180.797 16.4918C181.125 16.7718 181.289 17.1598 181.289 17.6558C181.289 17.9598 181.225 18.2278 181.097 18.4598C180.969 18.6918 180.789 18.8678 180.557 18.9878ZM180.185 17.7638C180.185 17.5398 180.105 17.3598 179.945 17.2238C179.793 17.0798 179.581 17.0078 179.309 17.0078H177.329V18.5198H179.285C179.573 18.5198 179.793 18.4518 179.945 18.3158C180.105 18.1798 180.185 17.9958 180.185 17.7638ZM179.369 21.0638C179.713 21.0638 179.965 20.9918 180.125 20.8478C180.293 20.7038 180.377 20.5078 180.377 20.2598C180.377 20.0198 180.289 19.8278 180.113 19.6838C179.945 19.5318 179.689 19.4558 179.345 19.4558H177.329V21.0638H179.369Z" fill="white"/>
<path d="M1.20451 35.5815H0V58.3472H1.20451V35.5815Z" fill="url(#paint0_linear_1681_10911)"/>
<path d="M34.1188 35.5815H32.9143V58.3472H34.1188V35.5815Z" fill="url(#paint1_linear_1681_10911)"/>
<path d="M5.63068 28.1855H3.76562V61.6758H5.63068V28.1855Z" fill="url(#paint2_linear_1681_10911)"/>
<path d="M30.3184 28.1855H28.4534V61.6758H30.3184V28.1855Z" fill="url(#paint3_linear_1681_10911)"/>
<path d="M9.66708 16.0676H8.03516V57.9595H9.66708V16.0676Z" fill="url(#paint4_linear_1681_10911)"/>
<path d="M26.0853 16.0676H24.4534V57.9595H26.0853V16.0676Z" fill="url(#paint5_linear_1681_10911)"/>
<path d="M13.6254 7.66602H12.2266V55.7526H13.6254V7.66602Z" fill="url(#paint6_linear_1681_10911)"/>
<path d="M21.8541 7.66602H20.4553V55.7526H21.8541V7.66602Z" fill="url(#paint7_linear_1681_10911)"/>
<path d="M17.6598 0H16.4553V51.8422H17.6598V0Z" fill="url(#paint8_linear_1681_10911)"/>
<defs>
<linearGradient id="paint0_linear_1681_10911" x1="-0.0214878" y1="35.2982" x2="1.19286" y2="58.3514" gradientUnits="userSpaceOnUse">
<stop stop-color="#B13302"/>
<stop offset="0.25" stop-color="#C83E04"/>
<stop offset="0.75" stop-color="#F65709"/>
<stop offset="1" stop-color="#FF9516"/>
</linearGradient>
<linearGradient id="paint1_linear_1681_10911" x1="32.8875" y1="35.2982" x2="34.1018" y2="58.3514" gradientUnits="userSpaceOnUse">
<stop stop-color="#B13302"/>
<stop offset="0.25" stop-color="#C83E04"/>
<stop offset="0.75" stop-color="#F65709"/>
<stop offset="1" stop-color="#FF9516"/>
</linearGradient>
<linearGradient id="paint2_linear_1681_10911" x1="3.80184" y1="27.788" x2="5.58756" y2="61.6884" gradientUnits="userSpaceOnUse">
<stop stop-color="#B13302"/>
<stop offset="0.25" stop-color="#C83E04"/>
<stop offset="0.75" stop-color="#F65709"/>
<stop offset="1" stop-color="#FF9516"/>
</linearGradient>
<linearGradient id="paint3_linear_1681_10911" x1="28.4856" y1="27.788" x2="30.2713" y2="61.6884" gradientUnits="userSpaceOnUse">
<stop stop-color="#B13302"/>
<stop offset="0.25" stop-color="#C83E04"/>
<stop offset="0.75" stop-color="#F65709"/>
<stop offset="1" stop-color="#FF9516"/>
</linearGradient>
<linearGradient id="paint4_linear_1681_10911" x1="7.68845" y1="15.5692" x2="9.91904" y2="57.9151" gradientUnits="userSpaceOnUse">
<stop stop-color="#B13302"/>
<stop offset="0.25" stop-color="#C83E04"/>
<stop offset="0.75" stop-color="#F65709"/>
<stop offset="1" stop-color="#FF9516"/>
</linearGradient>
<linearGradient id="paint5_linear_1681_10911" x1="24.1429" y1="15.5692" x2="26.3735" y2="57.9151" gradientUnits="userSpaceOnUse">
<stop stop-color="#B13302"/>
<stop offset="0.25" stop-color="#C83E04"/>
<stop offset="0.75" stop-color="#F65709"/>
<stop offset="1" stop-color="#FF9516"/>
</linearGradient>
<linearGradient id="paint6_linear_1681_10911" x1="11.6338" y1="7.09037" x2="14.1933" y2="55.6799" gradientUnits="userSpaceOnUse">
<stop stop-color="#FD8713"/>
<stop offset="0.2053" stop-color="#C83E04"/>
<stop offset="0.764" stop-color="#C83E04"/>
<stop offset="1" stop-color="#FF9516"/>
</linearGradient>
<linearGradient id="paint7_linear_1681_10911" x1="19.8612" y1="7.09037" x2="22.4207" y2="55.6799" gradientUnits="userSpaceOnUse">
<stop stop-color="#FD8713"/>
<stop offset="0.2053" stop-color="#C83E04"/>
<stop offset="0.5" stop-color="#F65709"/>
<stop offset="0.764" stop-color="#C83E04"/>
<stop offset="1" stop-color="#FF9516"/>
</linearGradient>
<linearGradient id="paint8_linear_1681_10911" x1="15.6441" y1="-0.593107" x2="18.4021" y2="51.7657" gradientUnits="userSpaceOnUse">
<stop stop-color="#FD8713"/>
<stop offset="0.2053" stop-color="#C83E04"/>
<stop offset="0.764" stop-color="#C83E04"/>
<stop offset="1" stop-color="#FF9516"/>
</linearGradient>
</defs>
</svg>
