<svg width="78" height="26" viewBox="0 0 78 26" fill="none" xmlns="http://www.w3.org/2000/svg">
<path d="M27.0641 15.763C28.6906 15.763 30.0603 16.377 31.0876 17.6051C32.1149 18.8332 32.4573 20.2367 32.0293 21.8157C31.7725 22.8683 31.1732 23.7455 30.146 24.4473C29.2043 25.149 28.0914 25.4122 26.9785 25.4122C25.9512 25.4122 25.0096 25.149 24.1535 24.6227C23.2974 24.0964 22.6982 23.3946 22.2702 22.6052C22.0133 22.1666 22.0989 21.728 22.3558 21.2894C22.6982 20.8508 23.1262 20.6753 23.6399 20.6753C24.2391 20.6753 24.7527 20.9385 25.0096 21.5525C25.352 22.2543 26.0368 22.6929 26.8929 22.6929H26.9785C27.5778 22.6929 28.177 22.4297 28.605 21.9911C29.0331 21.5525 29.2043 21.0262 29.1187 20.4122C29.0331 19.8858 28.7762 19.535 28.3482 19.1841C27.9202 18.8332 27.4921 18.7455 26.8929 18.7455C25.352 18.7455 24.1535 18.1314 23.2118 16.9911C22.2702 15.8507 22.0133 14.5349 22.4414 13.1314C22.6982 12.1665 23.2974 11.4647 24.1535 10.8507C25.0096 10.2367 25.9512 9.9735 27.0641 9.9735C28.9475 9.9735 30.3172 10.763 31.1732 12.2542C31.43 12.6928 31.43 13.2191 31.1732 13.6577C30.9164 14.0963 30.4028 14.3595 29.8891 14.3595C29.2899 14.3595 28.8618 14.0963 28.5194 13.57C28.177 13.0437 27.749 12.7805 27.0641 12.7805C26.6361 12.7805 26.2937 12.8683 25.9512 13.1314C25.6088 13.3946 25.4376 13.6577 25.352 14.0086C25.2664 14.5349 25.352 14.9735 25.6944 15.3244C26.1224 15.5876 26.5505 15.763 27.0641 15.763Z" fill="#718A98"/>
<path d="M21.9161 16.2897C21.9161 16.816 21.7449 17.2546 21.4881 17.6932C20.9744 18.6581 20.204 19.0967 19.0911 19.0967H12.2426C12.2426 20.0616 12.585 20.8511 13.2698 21.5528C13.9547 22.2546 14.7251 22.5178 15.6668 22.5178H15.7524C16.8653 22.5178 17.807 22.0792 18.4918 21.1142C18.9199 20.5879 19.4335 20.4125 20.0327 20.6756C20.4608 20.8511 20.8032 21.1142 20.8888 21.5528C21.06 21.9914 20.9744 22.43 20.7176 22.7809C19.5191 24.4476 17.807 25.3248 15.7524 25.3248H15.6668C13.9547 25.3248 12.585 24.7108 11.3865 23.4827C10.188 22.2546 9.58876 20.8511 9.58876 19.0967V16.2897C9.58876 14.5353 10.188 13.1317 11.3865 11.9037C12.585 10.6756 14.0403 10.0615 15.7524 10.0615H15.838C17.5502 10.0615 19.0055 10.6756 20.204 11.9037C20.8032 12.5177 21.2312 13.2195 21.4881 13.9212C21.6593 14.3598 21.7449 14.7984 21.8305 15.237C21.9161 15.5879 21.9161 15.7633 21.9161 15.7633C21.9161 15.7633 21.9161 15.8511 21.9161 16.2897ZM12.3282 16.2897H19.1767C19.1767 15.3247 18.8343 14.5353 18.1494 13.8335C17.4646 13.1317 16.6941 12.7809 15.7524 12.7809H15.6668C14.7251 12.7809 13.9547 13.1317 13.2698 13.8335C12.585 14.5353 12.3282 15.3247 12.3282 16.2897Z" fill="#718A98"/>
<path d="M50.8533 4.0077C51.1957 4.0077 51.5382 4.18314 51.795 4.4463C52.0518 4.70946 52.223 5.06034 52.223 5.41122V23.9201C52.223 24.271 52.0518 24.6219 51.795 24.9727C51.5382 25.2359 51.1957 25.4113 50.8533 25.4113C50.1685 25.4113 49.6548 25.0605 49.5692 24.3587C48.5419 25.0605 47.4291 25.4113 46.145 25.4113H46.0593C44.3472 25.4113 42.8919 24.7973 41.6934 23.5692C40.4949 22.3411 39.8957 20.8499 39.8957 19.0955V16.2008C39.8957 14.4464 40.4949 12.9551 41.6934 11.727C42.8919 10.499 44.3472 9.88493 46.0593 9.88493H46.145C47.3434 9.88493 48.4563 10.2358 49.4836 10.9376V5.41122C49.4836 5.06034 49.6548 4.70946 49.9116 4.4463C50.0828 4.18314 50.4253 4.0077 50.8533 4.0077ZM49.4836 16.2008C49.4836 15.2358 49.1412 14.4464 48.4563 13.7446C47.7715 13.0428 47.001 12.692 46.0593 12.692H45.9737C45.0321 12.692 44.2616 13.0428 43.5768 13.7446C42.8919 14.4464 42.5495 15.2358 42.5495 16.2008V19.0955C42.5495 20.0604 42.8919 20.8499 43.5768 21.5517C44.2616 22.2534 45.0321 22.5166 45.9737 22.5166H46.0593C47.001 22.5166 47.7715 22.1657 48.4563 21.5517C49.1412 20.8499 49.4836 20.0604 49.4836 19.0955V16.2008Z" fill="#718A98"/>
<path d="M65.1524 16.2897C65.1524 16.816 65.0668 17.2546 64.8099 17.6932C64.2963 18.6581 63.5258 19.0967 62.413 19.0967H55.5644C55.5644 20.0616 55.9069 20.8511 56.5917 21.5528C57.2766 22.2546 58.047 22.5178 58.9887 22.5178H59.0743C60.1872 22.5178 61.1289 22.0792 61.8137 21.1142C62.2417 20.5879 62.7554 20.4125 63.3546 20.6756C63.7827 20.8511 64.1251 21.1142 64.2107 21.5528C64.3819 21.9914 64.2963 22.43 64.0395 22.7809C62.841 24.4476 61.1289 25.3248 59.0743 25.3248H58.9887C57.2766 25.3248 55.9069 24.7108 54.7084 23.4827C53.5099 22.2546 52.9106 20.8511 52.9106 19.0967V16.2897C52.9106 14.5353 53.5099 13.1317 54.7084 11.9037C55.9069 10.6756 57.3622 10.0615 59.0743 10.0615H59.1599C60.872 10.0615 62.3274 10.6756 63.5258 11.9037C64.1251 12.5177 64.5531 13.2195 64.8099 13.9212C64.9811 14.3598 65.0668 14.7984 65.1524 15.237C65.238 15.5879 65.238 15.7633 65.238 15.7633C65.238 15.7633 65.1524 15.8511 65.1524 16.2897ZM55.4788 16.2897H62.3274C62.3274 15.3247 61.9849 14.5353 61.3001 13.8335C60.7008 13.1317 59.9304 12.7809 58.9887 12.7809H58.9031C57.9614 12.7809 57.191 13.1317 56.5061 13.8335C55.8213 14.5353 55.4788 15.3247 55.4788 16.2897Z" fill="#718A98"/>
<path d="M76.6303 9.97359C76.9727 9.97359 77.3151 10.149 77.572 10.4122C77.8288 10.6754 78 11.0262 78 11.3771V24.0088C78 24.3596 77.8288 24.7105 77.572 25.0614C77.3151 25.3246 76.9727 25.5 76.6303 25.5C75.9454 25.5 75.4318 25.1491 75.3462 24.4474C74.3189 25.1491 73.206 25.5 71.9219 25.5H71.8363C70.1242 25.5 68.6689 24.886 67.4704 23.6579C66.2719 22.4298 65.6727 20.9386 65.6727 19.1842V16.2894C65.6727 14.535 66.2719 13.0438 67.4704 11.8157C68.6689 10.5876 70.1242 9.97359 71.8363 9.97359H71.9219C73.1204 9.97359 74.3189 10.3245 75.3462 11.0262C75.5174 10.3245 75.9454 9.97359 76.6303 9.97359ZM75.2606 16.2017C75.2606 15.2368 74.9182 14.4473 74.2333 13.7455C73.6341 13.1315 72.8636 12.7806 71.9219 12.7806H71.8363C70.8947 12.7806 70.1242 13.1315 69.4393 13.8333C68.7545 14.535 68.4121 15.3245 68.4121 16.2894V19.1842C68.4121 20.1491 68.7545 20.9386 69.4393 21.6403C70.1242 22.3421 70.8947 22.6052 71.8363 22.6052H71.9219C72.8636 22.6052 73.6341 22.2544 74.3189 21.6403C75.0038 20.9386 75.3462 20.1491 75.3462 19.1842V16.2017H75.2606Z" fill="#718A98"/>
<path d="M37.7562 25.3262C38.6979 25.3262 39.4683 24.5367 39.4683 23.5718C39.4683 22.6069 38.6979 21.8174 37.7562 21.8174C36.8145 21.8174 36.0441 22.6069 36.0441 23.5718C36.0441 24.6245 36.8145 25.3262 37.7562 25.3262Z" fill="#718A98"/>
<path d="M38.7004 4.4463C38.9572 4.70946 39.1284 5.06034 39.1284 5.41122V18.0429C39.1284 18.3938 38.9572 18.7446 38.7004 19.0078C38.4436 19.2709 38.1011 19.4464 37.7587 19.4464C37.4163 19.4464 37.0739 19.2709 36.817 19.0078C36.5602 18.7446 36.389 18.3938 36.389 18.0429V5.49894C36.389 5.14806 36.5602 4.79718 36.817 4.53402C37.0739 4.18314 37.3307 4.0077 37.7587 4.0077C38.1011 4.0077 38.4436 4.18314 38.7004 4.4463Z" fill="#718A98"/>
<path d="M6.59849 4.00879C7.54016 4.00879 8.31062 3.21931 8.31062 2.2544C8.31062 1.28948 7.54016 0.5 6.59849 0.5C5.65682 0.5 4.88636 1.28948 4.88636 2.2544C4.88636 3.21931 5.65682 4.00879 6.59849 4.00879Z" fill="#718A98"/>
<path d="M13.1055 3.7438C13.0199 3.39292 12.7631 3.04204 12.4207 2.8666C12.0782 2.69116 11.7358 2.60344 11.3078 2.77888C10.9653 2.8666 10.6229 3.12976 10.4517 3.48064L6.59941 11.0245L2.74713 3.56836C2.57591 3.21748 2.23349 2.95432 1.89106 2.8666C1.46303 2.69116 1.1206 2.69116 0.778177 2.95432C0.435751 3.12976 0.178932 3.39292 0.0933256 3.7438C-0.0778873 4.1824 0.00771911 4.53327 0.178932 4.88415L5.0585 14.5333V23.8316C5.0585 24.2702 5.22971 24.6211 5.48653 24.8843C5.74335 25.1474 6.17138 25.3229 6.51381 25.3229C6.94184 25.3229 7.28427 25.1474 7.54109 24.8843C7.7979 24.6211 7.96912 24.2702 7.96912 23.8316V14.5333L12.8487 4.88415C13.1911 4.53327 13.1911 4.1824 13.1055 3.7438Z" fill="#718A98"/>
</svg>
