<svg width="78" height="25" viewBox="0 0 78 25" fill="none" xmlns="http://www.w3.org/2000/svg">
<path d="M27.0641 15.263C28.6906 15.263 30.0603 15.877 31.0876 17.1051C32.1149 18.3332 32.4573 19.7367 32.0293 21.3157C31.7725 22.3683 31.1732 23.2455 30.146 23.9473C29.2043 24.649 28.0914 24.9122 26.9785 24.9122C25.9512 24.9122 25.0096 24.649 24.1535 24.1227C23.2974 23.5964 22.6982 22.8946 22.2702 22.1052C22.0133 21.6666 22.0989 21.228 22.3558 20.7894C22.6982 20.3508 23.1262 20.1753 23.6399 20.1753C24.2391 20.1753 24.7527 20.4385 25.0096 21.0525C25.352 21.7543 26.0368 22.1929 26.8929 22.1929H26.9785C27.5778 22.1929 28.177 21.9297 28.605 21.4911C29.0331 21.0525 29.2043 20.5262 29.1187 19.9122C29.0331 19.3858 28.7762 19.035 28.3482 18.6841C27.9202 18.3332 27.4921 18.2455 26.8929 18.2455C25.352 18.2455 24.1535 17.6314 23.2118 16.4911C22.2702 15.3507 22.0133 14.0349 22.4414 12.6314C22.6982 11.6665 23.2974 10.9647 24.1535 10.3507C25.0096 9.73666 25.9512 9.4735 27.0641 9.4735C28.9475 9.4735 30.3172 10.263 31.1732 11.7542C31.43 12.1928 31.43 12.7191 31.1732 13.1577C30.9164 13.5963 30.4028 13.8595 29.8891 13.8595C29.2899 13.8595 28.8618 13.5963 28.5194 13.07C28.177 12.5437 27.749 12.2805 27.0641 12.2805C26.6361 12.2805 26.2937 12.3683 25.9512 12.6314C25.6088 12.8946 25.4376 13.1577 25.352 13.5086C25.2664 14.0349 25.352 14.4735 25.6944 14.8244C26.1224 15.0876 26.5505 15.263 27.0641 15.263Z" fill="white"/>
<path d="M21.9161 15.7897C21.9161 16.316 21.7449 16.7546 21.4881 17.1932C20.9744 18.1581 20.204 18.5967 19.0911 18.5967H12.2426C12.2426 19.5616 12.585 20.3511 13.2698 21.0528C13.9547 21.7546 14.7251 22.0178 15.6668 22.0178H15.7524C16.8653 22.0178 17.807 21.5792 18.4918 20.6142C18.9199 20.0879 19.4335 19.9125 20.0327 20.1756C20.4608 20.3511 20.8032 20.6142 20.8888 21.0528C21.06 21.4914 20.9744 21.93 20.7176 22.2809C19.5191 23.9476 17.807 24.8248 15.7524 24.8248H15.6668C13.9547 24.8248 12.585 24.2108 11.3865 22.9827C10.188 21.7546 9.58876 20.3511 9.58876 18.5967V15.7897C9.58876 14.0353 10.188 12.6317 11.3865 11.4037C12.585 10.1756 14.0403 9.56154 15.7524 9.56154H15.838C17.5502 9.56154 19.0055 10.1756 20.204 11.4037C20.8032 12.0177 21.2312 12.7195 21.4881 13.4212C21.6593 13.8598 21.7449 14.2984 21.8305 14.737C21.9161 15.0879 21.9161 15.2633 21.9161 15.2633C21.9161 15.2633 21.9161 15.3511 21.9161 15.7897ZM12.3282 15.7897H19.1767C19.1767 14.8247 18.8343 14.0353 18.1494 13.3335C17.4646 12.6317 16.6941 12.2809 15.7524 12.2809H15.6668C14.7251 12.2809 13.9547 12.6317 13.2698 13.3335C12.585 14.0353 12.3282 14.8247 12.3282 15.7897Z" fill="white"/>
<path d="M50.8533 3.5077C51.1957 3.5077 51.5382 3.68314 51.795 3.9463C52.0518 4.20946 52.223 4.56034 52.223 4.91122V23.4201C52.223 23.771 52.0518 24.1219 51.795 24.4727C51.5382 24.7359 51.1957 24.9113 50.8533 24.9113C50.1685 24.9113 49.6548 24.5605 49.5692 23.8587C48.5419 24.5605 47.4291 24.9113 46.145 24.9113H46.0593C44.3472 24.9113 42.8919 24.2973 41.6934 23.0692C40.4949 21.8411 39.8957 20.3499 39.8957 18.5955V15.7008C39.8957 13.9464 40.4949 12.4551 41.6934 11.227C42.8919 9.99897 44.3472 9.38493 46.0593 9.38493H46.145C47.3434 9.38493 48.4563 9.73581 49.4836 10.4376V4.91122C49.4836 4.56034 49.6548 4.20946 49.9116 3.9463C50.0829 3.68314 50.4253 3.5077 50.8533 3.5077ZM49.4836 15.7008C49.4836 14.7358 49.1412 13.9464 48.4563 13.2446C47.7715 12.5428 47.001 12.192 46.0593 12.192H45.9737C45.0321 12.192 44.2616 12.5428 43.5768 13.2446C42.8919 13.9464 42.5495 14.7358 42.5495 15.7008V18.5955C42.5495 19.5604 42.8919 20.3499 43.5768 21.0517C44.2616 21.7534 45.0321 22.0166 45.9737 22.0166H46.0593C47.001 22.0166 47.7715 21.6657 48.4563 21.0517C49.1412 20.3499 49.4836 19.5604 49.4836 18.5955V15.7008Z" fill="white"/>
<path d="M65.1524 15.7897C65.1524 16.316 65.0668 16.7546 64.8099 17.1932C64.2963 18.1581 63.5258 18.5967 62.413 18.5967H55.5644C55.5644 19.5616 55.9069 20.3511 56.5917 21.0528C57.2766 21.7546 58.047 22.0178 58.9887 22.0178H59.0743C60.1872 22.0178 61.1289 21.5792 61.8137 20.6142C62.2417 20.0879 62.7554 19.9125 63.3546 20.1756C63.7827 20.3511 64.1251 20.6142 64.2107 21.0528C64.3819 21.4914 64.2963 21.93 64.0395 22.2809C62.841 23.9476 61.1289 24.8248 59.0743 24.8248H58.9887C57.2766 24.8248 55.9069 24.2108 54.7084 22.9827C53.5099 21.7546 52.9106 20.3511 52.9106 18.5967V15.7897C52.9106 14.0353 53.5099 12.6317 54.7084 11.4037C55.9069 10.1756 57.3622 9.56154 59.0743 9.56154H59.1599C60.872 9.56154 62.3274 10.1756 63.5258 11.4037C64.1251 12.0177 64.5531 12.7195 64.8099 13.4212C64.9812 13.8598 65.0668 14.2984 65.1524 14.737C65.238 15.0879 65.238 15.2633 65.238 15.2633C65.238 15.2633 65.1524 15.3511 65.1524 15.7897ZM55.4788 15.7897H62.3274C62.3274 14.8247 61.9849 14.0353 61.3001 13.3335C60.7008 12.6317 59.9304 12.2809 58.9887 12.2809H58.9031C57.9614 12.2809 57.191 12.6317 56.5061 13.3335C55.8213 14.0353 55.4788 14.8247 55.4788 15.7897Z" fill="white"/>
<path d="M76.6303 9.47359C76.9727 9.47359 77.3151 9.64903 77.572 9.91219C77.8288 10.1754 78 10.5262 78 10.8771V23.5088C78 23.8596 77.8288 24.2105 77.572 24.5614C77.3151 24.8246 76.9727 25 76.6303 25C75.9454 25 75.4318 24.6491 75.3462 23.9474C74.3189 24.6491 73.206 25 71.9219 25H71.8363C70.1242 25 68.6689 24.386 67.4704 23.1579C66.2719 21.9298 65.6727 20.4386 65.6727 18.6842V15.7894C65.6727 14.035 66.2719 12.5438 67.4704 11.3157C68.6689 10.0876 70.1242 9.47359 71.8363 9.47359H71.9219C73.1204 9.47359 74.3189 9.82447 75.3462 10.5262C75.5174 9.82447 75.9454 9.47359 76.6303 9.47359ZM75.2606 15.7017C75.2606 14.7368 74.9182 13.9473 74.2333 13.2455C73.6341 12.6315 72.8636 12.2806 71.9219 12.2806H71.8363C70.8947 12.2806 70.1242 12.6315 69.4393 13.3333C68.7545 14.035 68.4121 14.8245 68.4121 15.7894V18.6842C68.4121 19.6491 68.7545 20.4386 69.4393 21.1403C70.1242 21.8421 70.8947 22.1052 71.8363 22.1052H71.9219C72.8636 22.1052 73.6341 21.7544 74.3189 21.1403C75.0038 20.4386 75.3462 19.6491 75.3462 18.6842V15.7017H75.2606Z" fill="white"/>
<path d="M37.7562 24.8262C38.6979 24.8262 39.4683 24.0367 39.4683 23.0718C39.4683 22.1069 38.6979 21.3174 37.7562 21.3174C36.8145 21.3174 36.0441 22.1069 36.0441 23.0718C36.0441 24.1245 36.8145 24.8262 37.7562 24.8262Z" fill="white"/>
<path d="M38.7004 3.9463C38.9572 4.20946 39.1284 4.56034 39.1284 4.91122V17.5429C39.1284 17.8938 38.9572 18.2446 38.7004 18.5078C38.4436 18.7709 38.1011 18.9464 37.7587 18.9464C37.4163 18.9464 37.0739 18.7709 36.817 18.5078C36.5602 18.2446 36.389 17.8938 36.389 17.5429V4.99894C36.389 4.64806 36.5602 4.29718 36.817 4.03402C37.0739 3.68314 37.3307 3.5077 37.7587 3.5077C38.1011 3.5077 38.4436 3.68314 38.7004 3.9463Z" fill="white"/>
<path d="M6.59849 3.50879C7.54016 3.50879 8.31062 2.71931 8.31062 1.7544C8.31062 0.789478 7.54016 0 6.59849 0C5.65682 0 4.88636 0.789478 4.88636 1.7544C4.88636 2.71931 5.65682 3.50879 6.59849 3.50879Z" fill="white"/>
<path d="M13.1055 3.2438C13.0199 2.89292 12.7631 2.54204 12.4207 2.3666C12.0782 2.19116 11.7358 2.10344 11.3078 2.27888C10.9653 2.3666 10.6229 2.62976 10.4517 2.98064L6.59941 10.5245L2.74713 3.06836C2.57591 2.71748 2.23349 2.45432 1.89106 2.3666C1.46303 2.19116 1.1206 2.19116 0.778177 2.45432C0.435751 2.62976 0.178932 2.89292 0.0933256 3.2438C-0.0778873 3.6824 0.00771912 4.03327 0.178932 4.38415L5.0585 14.0333V23.3316C5.0585 23.7702 5.22971 24.1211 5.48653 24.3843C5.74335 24.6474 6.17138 24.8229 6.51381 24.8229C6.94184 24.8229 7.28427 24.6474 7.54109 24.3843C7.7979 24.1211 7.96912 23.7702 7.96912 23.3316V14.0333L12.8487 4.38415C13.1911 4.03327 13.1911 3.6824 13.1055 3.2438Z" fill="white"/>
</svg>
