<svg width="206" height="64" viewBox="0 0 206 64" fill="none" xmlns="http://www.w3.org/2000/svg">
<path d="M56.5076 0.339999L29.9534 26.8087C29.9626 26.8147 29.9605 26.8218 29.9605 26.8218C36.5385 28.0857 44.1251 25.7906 49.8039 20.1389C55.4847 14.4679 57.7832 6.90758 56.5208 0.341011C56.5157 0.339999 56.5076 0.339999 56.5076 0.339999Z" fill="#5CA748"/>
<path d="M56.4822 0.350119L29.9443 26.8218C29.9372 26.8168 29.9281 26.8168 29.924 26.8168C28.6545 20.2583 30.952 12.6909 36.6359 7.03002C42.3147 1.37017 49.9033 -0.924943 56.4802 0.336963C56.4802 0.336963 56.4822 0.346071 56.4822 0.350119Z" fill="#0E7E40"/>
<path d="M62.3843 25.3403H67.3751V33.3601C67.3751 35.1249 68.5461 36.322 70.2936 36.322C71.4109 36.322 72.6672 36.1905 74.0605 35.9456V25.3403H79.0747V46.6591H74.0605V39.7232C72.1761 40.048 70.5382 40.21 69.0951 40.21C67.1295 40.21 65.52 39.6109 64.2668 38.3915C63.0104 37.166 62.3843 35.6167 62.3843 33.7416V25.3403Z" fill="#13266E"/>
<path d="M84.3902 34.8567C85.754 33.522 87.4985 32.8682 89.6549 32.8682C91.6703 32.8682 93.3062 33.4946 94.5899 34.7717C95.8706 36.0529 96.4977 37.6831 96.4977 39.7242C96.4977 40.211 96.4723 40.7018 96.4165 41.1683H87.1697C87.5269 42.58 88.9172 43.4766 90.691 43.4766C91.7799 43.4766 93.0352 43.1244 94.4275 42.3917L95.8462 45.6006C93.8552 46.5276 91.9169 46.985 90.0872 46.985C87.8252 46.985 85.9702 46.3343 84.5261 45.0269C83.079 43.6931 82.3717 42.0102 82.3717 39.9398C82.3707 37.8481 83.0527 36.1591 84.3902 34.8567ZM91.8865 38.3621C91.7535 37.166 90.8534 36.3777 89.6549 36.3777C88.427 36.3777 87.4153 37.166 87.1697 38.3621H91.8865Z" fill="#13266E"/>
<path d="M99.1138 53.6062V33.1981H102.93L103.533 34.4499C104.569 33.3853 105.902 32.8682 107.543 32.8682C109.368 32.8682 110.866 33.522 112.044 34.8567C113.213 36.1591 113.813 37.8481 113.813 39.9388C113.813 42.0092 113.213 43.6921 112.044 45.0259C110.867 46.3333 109.368 46.984 107.543 46.984C106.179 46.984 104.977 46.5519 103.912 45.7049V53.6062H99.1138ZM103.831 40.6512C103.831 42.1458 104.814 43.2286 106.258 43.2286C107.814 43.2286 108.933 41.8736 108.933 39.9388C108.933 37.9786 107.814 36.6236 106.258 36.6236C104.814 36.6236 103.831 37.7104 103.831 39.2365V40.6512Z" fill="#13266E"/>
<path d="M116.646 46.6602V33.1981H121.446V38.0646H125.865V33.1981H130.662V46.6602H125.865V41.6813H121.446V46.6602H116.646Z" fill="#13266E"/>
<path d="M134.175 46.6602V33.1981H138.597V40.2687L143.698 33.1981H148.198V46.6602H143.778V39.5886L138.705 46.6602H134.175Z" fill="#13266E"/>
<path d="M151.71 46.6602V33.1981H156.314V37.9796H156.919L160.221 33.1981H165.237L160.767 39.6119L165.648 46.6602H160.438L157.028 41.5741H156.315V46.6602H151.71Z" fill="#13266E"/>
<path d="M172.381 38.0646C173.092 38.0646 173.854 38.1496 174.698 38.2822V38.1769C174.698 37.1154 173.693 36.3797 172.353 36.3797C171.07 36.3797 169.596 36.7056 167.99 37.3603L166.789 34.0694C168.945 33.2771 170.991 32.8693 172.952 32.8693C174.807 32.8693 176.28 33.3611 177.398 34.3669C178.519 35.3748 179.091 36.6813 179.091 38.2822V42.7196C179.091 43.1244 179.36 43.3956 179.771 43.3956C179.937 43.3956 180.155 43.3693 180.397 43.344L180.698 46.7684C179.937 46.902 179.17 46.985 178.435 46.985C177.098 46.985 176.063 46.4173 175.433 45.4377C174.21 46.4183 172.573 46.985 171.07 46.985C169.621 46.985 168.426 46.5762 167.5 45.7636C166.57 44.9449 166.107 43.8864 166.107 42.6053C166.108 39.7515 168.426 38.0646 172.381 38.0646ZM172.353 43.6921C173.692 43.6921 174.698 42.7439 174.698 41.4344V40.9487C174.07 40.808 173.498 40.7584 172.98 40.7584C171.564 40.7584 170.611 41.3575 170.611 42.3067C170.61 43.092 171.344 43.6921 172.353 43.6921Z" fill="#13266E"/>
<path d="M189.743 27.8732L201.711 15.9403C201.707 15.9383 201.707 15.9372 201.707 15.9372C198.741 15.3645 195.321 16.3997 192.76 18.9478C190.2 21.502 189.165 24.9112 189.736 27.8722L189.743 27.8732Z" fill="#5CA748"/>
<path d="M189.751 27.8672L201.717 15.9332C201.717 15.9362 201.724 15.9362 201.724 15.9362C202.297 18.8932 201.259 22.3045 198.699 24.8566C196.141 27.4077 192.719 28.442 189.752 27.8742C189.752 27.8742 189.751 27.8712 189.751 27.8672Z" fill="#0E7E40"/>
<path d="M189.78 48.3117L205.292 63.7834C205.297 63.7814 205.302 63.7814 205.302 63.7814C206.043 59.9491 204.699 55.5259 201.385 52.2158C198.065 48.9057 193.632 47.5679 189.785 48.3036C189.78 48.3066 189.78 48.3117 189.78 48.3117Z" fill="#5CA748"/>
<path d="M189.789 48.3258L205.302 63.7895C205.297 63.7946 205.297 63.7996 205.3 63.8037C201.456 64.5414 197.019 63.2005 193.703 59.8884C190.385 56.5803 189.039 52.1601 189.78 48.3258C189.78 48.3258 189.787 48.3258 189.789 48.3258Z" fill="#0E7E40"/>
<path d="M43.1773 53.7914L52.8188 63.413C52.8229 63.411 52.8229 63.411 52.8229 63.411C53.3323 60.9833 52.5286 58.1954 50.4686 56.1412C48.4035 54.0859 45.6178 53.2834 43.1773 53.7873C43.1773 53.7904 43.1773 53.7914 43.1773 53.7914Z" fill="#5BA848"/>
<path d="M43.1803 53.8005L52.8229 63.4161C52.8229 63.4181 52.8229 63.4222 52.8229 63.4222C50.3833 63.9322 47.5967 63.1317 45.5285 61.0744C43.4675 59.0161 42.6658 56.2373 43.1773 53.8025L43.1803 53.8005Z" fill="#0E7E40"/>
<path d="M3.21052 53.5252L40.0831 16.7498C38.4859 15.0943 36.2381 14.054 33.7457 14.054H9.29219C4.43538 14.053 0.5 17.9794 0.5 22.8175V47.2066C0.5 49.6879 1.54727 51.9274 3.21052 53.5252Z" fill="#5462AC"/>
<path d="M3.20646 53.5232L40.077 16.7498C41.7454 18.3467 42.7866 20.5862 42.7866 23.0675V47.4576C42.7866 52.2957 38.8491 56.2211 33.9974 56.2211H9.54488C7.05558 56.2201 4.80781 55.1768 3.20646 53.5232Z" fill="#13266E"/>
<path d="M16.0507 40.7149V29.5581H27.2379L16.0507 40.7149Z" fill="#758AC3"/>
<path d="M27.2379 29.5581V40.7149H16.0507L27.2379 29.5581Z" fill="#13266E"/>
<path d="M24.0768 37.5617C25.4173 36.2208 25.4173 34.0492 24.0768 32.7124L19.2139 37.5617C20.5544 38.9025 22.7322 38.9025 24.0768 37.5617Z" fill="#758AC3"/>
<path d="M19.2139 32.7124C17.8743 34.0492 17.8743 36.2208 19.2139 37.5617L24.0768 32.7124C22.7322 31.3736 20.5544 31.3736 19.2139 32.7124Z" fill="#13266E"/>
<path d="M21.6443 46.3019C24.7333 46.3019 27.2379 43.7973 27.2379 40.7149H16.0507C16.0507 43.7984 18.5573 46.3019 21.6443 46.3019Z" fill="#3F509F"/>
<path d="M32.8385 35.137C32.8385 32.0577 30.3299 29.5581 27.2379 29.5581V40.7139C30.3299 40.7149 32.8385 38.2164 32.8385 35.137Z" fill="#3F509F"/>
<path d="M21.6443 23.9732C18.5573 23.9732 16.0507 26.4778 16.0507 29.5592H27.2368C27.2379 26.4767 24.7333 23.9732 21.6443 23.9732Z" fill="#13266E"/>
<path d="M10.4501 35.137C10.4501 38.2164 12.9597 40.7149 16.0507 40.7149V29.5581C12.9597 29.5581 10.4501 32.0577 10.4501 35.137Z" fill="#13266E"/>
<path d="M92.4284 26.0062L92.2548 26.2824C91.9707 26.079 91.6723 25.9768 91.3628 25.9768C90.9813 25.9768 90.6768 26.1074 90.4475 26.3634C90.2131 26.6184 90.0953 26.9503 90.0953 27.3612C90.0953 27.768 90.212 28.0989 90.4475 28.3569C90.6778 28.6079 90.9813 28.7324 91.3628 28.7324C91.6723 28.7324 91.9707 28.6271 92.2548 28.4268L92.4284 28.701C92.0803 28.9429 91.7018 29.0663 91.309 29.0663C90.825 29.0663 90.4312 28.9095 90.1278 28.5897C89.8285 28.2719 89.6783 27.8621 89.6783 27.3541C89.6783 26.8502 89.8285 26.4383 90.1278 26.1185C90.4312 25.8008 90.826 25.6378 91.309 25.6378C91.7028 25.6399 92.0813 25.7663 92.4284 26.0062Z" fill="#13266E"/>
<path d="M95.5793 25.6985H97.6972V26.0133H95.9852V27.1628H97.5368V27.4685H95.9852V28.6939H97.7774V29.0086H95.5793V25.6985Z" fill="#13266E"/>
<path d="M100.998 29.0076V25.6985H101.395L102.609 27.3551L103.829 25.6985H104.229V29.0076H103.847V26.2622L102.73 27.7852H102.491L101.373 26.2622V29.0076H100.998Z" fill="#13266E"/>
<path d="M107.681 25.6985H109.797V26.0133H108.083V27.1628H109.638V27.4685H108.083V28.6939H109.875V29.0086H107.681V25.6985Z" fill="#13266E"/>
<path d="M113.095 29.0076V25.6985H113.475V28.443L115.493 25.6985H115.89V29.0076H115.515V26.2622L113.493 29.0076H113.095ZM114.004 24.6815C114.023 24.9355 114.21 25.1066 114.473 25.1066C114.732 25.1066 114.919 24.9355 114.941 24.6815H115.203C115.188 25.1066 114.886 25.3848 114.473 25.3848C114.058 25.3848 113.758 25.1066 113.74 24.6815H114.004Z" fill="#13266E"/>
<path d="M119.344 29.0076V25.6985H119.749V27.1517H121.734V25.6985H122.14V29.0076H121.734V27.4776H119.749V29.0076H119.344Z" fill="#13266E"/>
<path d="M125.593 29.0076V25.6985H125.988V27.0465H126.974C127.281 27.0465 127.532 27.1375 127.73 27.3177C127.932 27.4998 128.031 27.7356 128.031 28.022C128.031 28.3134 127.932 28.5502 127.73 28.7324C127.532 28.9145 127.281 29.0066 126.974 29.0066L125.593 29.0076ZM125.988 28.6889H126.917C127.333 28.6889 127.631 28.4197 127.631 28.023C127.631 27.6385 127.333 27.3673 126.917 27.3673H125.988V28.6889ZM128.731 29.0076V25.6985H129.135V29.0076H128.731Z" fill="#13266E"/>
<path d="M132.586 29.0076V25.6985H132.969V28.443L134.984 25.6985H135.386V29.0076H135.006V26.2622L132.985 29.0076H132.586ZM133.496 24.6815C133.515 24.9355 133.699 25.1066 133.963 25.1066C134.225 25.1066 134.413 24.9355 134.433 24.6815H134.695C134.68 25.1066 134.379 25.3848 133.963 25.3848C133.551 25.3848 133.249 25.1066 133.231 24.6815H133.496Z" fill="#13266E"/>
<path d="M142.487 29.0076V25.6985H142.88V27.1517H143.324L144.583 25.6985H145.04L143.665 27.2964L145.117 29.0066H144.647L143.339 27.4765H142.881V29.0066L142.487 29.0076Z" fill="#13266E"/>
<path d="M148.223 29.0076V25.6985H149.556C149.849 25.6985 150.084 25.7805 150.263 25.9414C150.447 26.0983 150.539 26.3067 150.539 26.5577C150.539 26.8927 150.342 27.1699 150.032 27.2954C150.424 27.4067 150.658 27.7184 150.658 28.111C150.658 28.3782 150.563 28.5937 150.371 28.7597C150.182 28.9236 149.939 29.0066 149.637 29.0066L148.223 29.0076ZM148.617 27.179H149.513C149.883 27.179 150.147 26.9331 150.147 26.5931C150.147 26.2541 149.883 26.0062 149.513 26.0062H148.617V27.179ZM148.617 28.702H149.585C149.98 28.702 150.261 28.444 150.261 28.0766C150.261 27.7113 149.98 27.4523 149.585 27.4523H148.617V28.702Z" fill="#13266E"/>
<path d="M153.507 29.0076L154.876 25.6985H155.256L156.623 29.0076H156.207L155.844 28.1019H154.292L153.926 29.0076H153.507ZM154.403 27.7923H155.726L155.065 26.1681L154.403 27.7923Z" fill="#13266E"/>
<path d="M159.68 29.0076V25.6985H160.927C161.254 25.6985 161.522 25.8018 161.726 25.993C161.934 26.1843 162.037 26.4352 162.037 26.7398C162.037 27.0404 161.934 27.2873 161.723 27.4806C161.516 27.6759 161.25 27.7731 160.927 27.7731H160.075V29.0066L159.68 29.0076ZM160.075 27.4513H160.867C161.09 27.4513 161.277 27.3885 161.421 27.2559C161.569 27.1224 161.638 26.9503 161.638 26.7409C161.638 26.5314 161.569 26.3634 161.421 26.2318C161.277 26.0922 161.09 26.0193 160.867 26.0193H160.075V27.4513Z" fill="#13266E"/>
<path d="M164.837 26.0193V25.6996H167.534V26.0193H166.388V29.0076H165.983V26.0193H164.837Z" fill="#13266E"/>
<path d="M169.415 29.0076L170.784 25.6985H171.163L172.53 29.0076H172.115L171.75 28.1019H170.197L169.835 29.0076H169.415ZM170.309 27.7923H171.631L170.97 26.1681L170.309 27.7923Z" fill="#13266E"/>
<path d="M175.507 28.702C175.602 28.7243 175.687 28.7334 175.76 28.7334C176.135 28.7334 176.335 28.4723 176.335 28.0007V25.6996H178.828V29.0086H178.431V26.0203H176.728V28.0301C176.728 28.6788 176.389 29.0673 175.815 29.0673C175.714 29.0673 175.593 29.0572 175.466 29.0329L175.507 28.702Z" fill="#13266E"/>
</svg>
