<svg width="167" height="42" viewBox="0 0 167 42" fill="none" xmlns="http://www.w3.org/2000/svg">
<path d="M154.399 20.2525C156.286 20.2525 157.815 18.7276 157.815 16.8465C157.815 14.9654 156.286 13.4404 154.399 13.4404C152.513 13.4404 150.984 14.9654 150.984 16.8465C150.984 18.7276 152.513 20.2525 154.399 20.2525Z" fill="#718A98"/>
<path d="M117.435 24.8738C115.699 24.8738 114.333 23.5114 114.333 21.7439C114.333 19.9765 115.699 18.6141 117.435 18.6141C119.171 18.6141 120.574 19.9765 120.574 21.7439C120.574 23.5114 119.171 24.8738 117.435 24.8738ZM120.574 18.522H120.205C119.521 17.2885 118.247 16.5889 116.789 16.5889C114.389 16.5889 112.154 18.835 112.154 21.7439C112.154 24.6529 114.333 26.8622 116.789 26.8622C118.247 26.8622 119.521 26.1626 120.205 24.929H120.574V26.6044H122.716V16.8282H120.574V18.522ZM17.8055 24.8738C16.0699 24.8738 14.7036 23.5114 14.7036 21.7439C14.7036 19.9765 16.0699 18.6141 17.8055 18.6141C19.5411 18.6141 20.9443 19.9765 20.9443 21.7439C20.9443 23.5114 19.5411 24.8738 17.8055 24.8738ZM20.9443 18.522H20.575C19.8919 17.2885 18.6179 16.5889 17.1593 16.5889C14.759 16.5889 12.5249 18.835 12.5249 21.7439C12.5249 24.6529 14.7036 26.8622 17.1593 26.8622C18.6179 26.8622 19.8919 26.1626 20.575 24.929H20.9443V26.6044H23.0861V16.8282H20.9443V18.522ZM132.926 20.6945H127.904V16.8282H125.762V26.6228H127.904V22.7381H132.926V26.6228H135.068V16.8282H132.926V20.6945ZM142.638 21.6151L147.715 16.8282H144.78L140.219 21.3205V16.8282H138.077V26.6228H140.219V22.1122L144.817 26.6228H147.974L142.638 21.6151ZM107.058 24.7081H103.606V22.241H107.058C108.037 22.241 108.499 22.7565 108.499 23.4746C108.499 24.1926 108.056 24.7081 107.058 24.7081ZM107.299 20.3263H103.587V18.7245H109.883V16.8282H101.446V26.6228H107.317C109.33 26.6228 110.696 25.2973 110.696 23.493C110.696 21.6887 109.293 20.3263 107.299 20.3263ZM81.2648 24.8554C79.4923 24.8554 78.1814 23.493 78.1814 21.7439C78.1814 19.9765 79.4923 18.6141 81.2648 18.6141C82.982 18.6141 84.3483 19.9765 84.3483 21.7439C84.3483 23.493 83.0189 24.8554 81.2648 24.8554ZM81.2648 16.5889C78.6799 16.5889 76.5936 18.3563 76.132 20.7129H74.3225V16.8282H72.1623V26.6228H74.3041V22.7197H76.1135C76.5566 25.0947 78.6799 26.8806 81.2464 26.8806C84.1452 26.8806 86.4901 24.5976 86.4901 21.7623C86.5085 18.8718 84.1452 16.5889 81.2648 16.5889ZM87.284 18.8534H90.8844V26.6044H93.0262V18.8534H96.6266V16.8282H87.284V18.8534ZM63.6137 16.8282L59.404 26.6228H61.675L64.943 18.7982L68.2111 26.6228H70.5744L66.3647 16.8282H63.6137ZM42.0482 18.5957C44.153 18.5957 44.7439 20.2158 44.7439 20.2158H47.0149C47.0149 20.2158 46.1102 16.5889 42.0482 16.5889C39.1309 16.5889 36.8415 18.8718 36.8415 21.7439C36.8415 24.6345 39.1309 26.899 42.0482 26.899C46.1102 26.899 47.0149 23.272 47.0149 23.272H44.7439C44.7439 23.272 44.153 24.8922 42.0482 24.8922C40.3311 24.8922 39.0386 23.5298 39.0386 21.7623C39.0386 19.9949 40.3311 18.5957 42.0482 18.5957ZM31.764 24.6713H28.2743V22.241H31.7455C32.7241 22.241 33.1857 22.7565 33.1857 23.4746C33.1857 24.1926 32.761 24.6713 31.764 24.6713ZM32.0225 20.3263H28.2743V18.7429H34.5889V16.8282H26.1326V26.6228H32.0225C34.0165 26.6228 35.4013 25.2973 35.4013 23.493C35.4013 21.6887 33.9981 20.3263 32.0225 20.3263ZM53.551 24.8554C51.7416 24.8554 50.4122 23.493 50.4122 21.7439C50.4122 19.9765 51.7416 18.6141 53.551 18.6141C55.305 18.6141 56.6898 19.9765 56.6898 21.7439C56.6898 23.493 55.342 24.8554 53.551 24.8554ZM53.551 16.5889C50.5784 16.5889 48.2335 18.8718 48.2335 21.7439C48.2335 24.5976 50.5784 26.8622 53.551 26.8622C56.5052 26.8622 58.887 24.5792 58.887 21.7439C58.887 18.8718 56.4498 16.5889 53.551 16.5889Z" fill="#718A98"/>
</svg>
