<svg width="200" height="50" viewBox="0 0 200 50" fill="none" xmlns="http://www.w3.org/2000/svg">
<path d="M169.996 17.0544H173.359L173.342 22.4831H174.07L175.985 17.0544H179.624L177.014 24.2313L180 32.1778H176.06L174.12 26.0966H173.325L173.342 32.1778H169.979V17.0544H169.996ZM158.662 17.0544H162.008V22.5082H164.4V17.0544H167.737V32.1778H164.4V26.1134H162.008V32.1778H158.662V17.0544ZM147.01 32.2029H150.489L150.908 29.5847H153.3L153.718 32.2029H157.198L154.27 17.0795H149.954L147.01 32.2029ZM152.112 21.6633L152.748 26.2639H151.46L152.112 21.6633ZM137.675 32.1778H141.748C142.635 32.1778 146.341 31.793 146.357 27.2091C146.357 23.3614 143.488 22.6922 141.631 22.6922H141.021V20.6847H145.554V17.0544H137.683L137.675 32.1778ZM141.012 29.1414V25.7202H141.506C141.924 25.7202 142.986 25.7369 142.986 27.3011C142.986 28.8821 141.916 29.1414 141.506 29.1414H141.012ZM124.4 17.0544H127.311L129.879 20.6261L132.472 17.0544H135.358V32.1778H131.937V22.9599L129.879 25.5947L127.821 22.9599V32.1778H124.4V17.0544ZM117.332 32.3618C121.389 32.3618 122.752 28.4638 122.752 24.5993C122.752 20.7348 121.389 16.8369 117.332 16.8369C113.275 16.8369 111.911 20.7265 111.911 24.5993C111.911 28.4722 113.283 32.3618 117.332 32.3618ZM117.332 28.6897C116.127 28.6897 115.508 27.251 115.508 24.5993C115.508 21.9477 116.119 20.5006 117.332 20.5006C118.545 20.5006 119.147 21.9394 119.147 24.5993C119.147 27.2593 118.545 28.698 117.332 28.6897ZM102.008 32.1778H105.429V27.1924H106.575C109.954 27.1924 111.008 24.0724 111.008 22.0816C111.008 20.141 109.804 17.0544 106.575 17.0544H102.008V32.1778ZM105.429 20.3835H106.24C107.01 20.3835 107.503 20.8687 107.503 22.1234C107.503 23.7461 106.667 23.8632 106.24 23.8632H105.429V20.3835ZM90.7069 17.0544H100.042V32.1778H96.6208V20.7098H94.1281V32.1778H90.7069V17.0544ZM83.6889 22.918C84.241 22.918 85.2531 22.55 85.2531 21.4375C85.2531 20.1242 84.0904 20.0406 83.7475 20.0406C83.3543 20.0406 82.6015 20.1075 81.8654 20.4672L81.8236 17.1799C82.9863 16.8787 83.8228 16.7951 84.8098 16.7951C87.6203 16.7951 88.8667 18.8026 88.8667 20.7683C88.8667 22.6755 87.796 23.8298 86.7504 24.2731V24.4153C87.7625 24.7415 89.1009 25.7369 89.1009 28.0456C89.1009 30.9063 87.1603 32.4873 84.6676 32.4873C83.346 32.4705 82.4677 32.2865 81.4221 31.701L81.4806 28.5558C82.451 28.9824 83.1034 29.0243 83.7558 29.0243C84.86 29.0243 85.2949 28.1878 85.2949 27.5855C85.2949 26.7323 84.7596 26.1635 83.5969 26.1635H82.2084V22.918H83.6889ZM70.2385 32.1778H73.7015L74.1364 29.5596H76.5287L76.947 32.1778H80.41L77.4823 17.0544H73.1745C73.1661 17.0544 70.2385 32.1778 70.2385 32.1778ZM75.3159 21.6215L75.9683 26.2388H74.6634L75.3159 21.6215ZM63.6136 17.0544H70.6316V20.8269H67.0934V32.1778H63.6136V17.0544ZM20.8699 24.7917C20.8699 34.0933 28.2727 41.6717 37.3735 41.6717C46.4575 41.6717 53.8519 34.0933 53.8519 24.7917C53.8519 15.4734 46.4575 7.89502 37.3735 7.89502C28.2643 7.88666 20.8699 15.4651 20.8699 24.7917ZM20 24.7917C20 14.9799 27.7875 7 37.3735 7C46.9343 7 54.7219 14.9716 54.7219 24.7917C54.7219 34.5868 46.9343 42.5583 37.3735 42.5583C27.7875 42.5583 20 34.5868 20 24.7917Z" fill="#718A98"/>
<path d="M32.1871 13.5578C31.5848 13.8255 31.016 14.1601 30.4891 14.5449C34.6212 12.6628 39.6651 12.7799 42.3753 14.0179C43.2285 14.4194 43.7973 14.6703 44.0566 15.1555C41.2461 14.3859 40.0416 14.2437 37.6911 14.3023C34.3452 14.3608 29.8952 15.7159 28.1971 16.7531L27.4443 17.7151C29.8952 16.2345 34.4623 15.2642 36.9968 15.1806C39.8241 15.1388 42.024 15.4064 44.0399 16.1509C43.9228 16.6779 43.6635 16.9372 43.2285 17.2048C35.1566 15.7661 30.3887 17.4641 26.0809 20.3416L25.763 21.2952C30.5727 17.9158 36.4615 16.979 42.1411 17.9911C40.1085 18.7188 37.6743 18.8861 35.6334 19.3629C33.8935 19.7728 32.965 19.8899 30.648 20.6845C28.2975 21.4708 26.909 22.2822 26.039 23.3194C25.6208 23.8046 25.303 24.3734 25.2277 24.984C25.1942 25.3437 25.2109 25.6783 25.328 25.9961C25.4201 26.2805 25.6459 26.5649 25.8801 26.8493C25.6041 27.3345 25.3615 27.9618 25.763 28.6979C25.9387 29.0409 26.3987 29.3838 26.8337 29.7101L26.7082 30.0697C26.6497 30.4963 26.5911 31.0066 26.8672 31.4248C27.3356 32.1944 27.9127 32.7046 28.8245 33.1898C28.9667 33.8171 29.1758 34.3274 29.6526 34.7707C30.6647 35.7243 32.9148 37.5478 36.9299 37.8322C39.9412 38.0329 42.0909 37.1045 42.9023 36.6946L43.8893 36.1676C42.208 36.8535 39.3807 37.2634 37.0637 37.0543C33.7011 36.7699 30.6982 34.5198 30.3218 33.8673C30.4389 33.951 30.5978 34.0095 30.7316 34.0681C34.6714 36.017 39.7488 37.071 46.2649 34.3525L46.8002 33.8255C40.878 35.7075 35.7003 35.649 30.1377 32.6712C30.1963 32.3868 30.3218 32.1358 30.5727 31.9434C31.9947 32.5875 33.3665 33.1229 35.0227 33.4574C36.9633 33.8255 39.18 33.9091 40.9951 33.8255C42.8354 33.7418 46.474 32.8134 48.1971 31.8765C48.3561 31.7343 48.4313 31.4917 48.5903 31.3328C45.2277 32.5875 41.2293 33.173 38.8203 32.989C36.4615 32.805 34.3703 32.5206 31.6016 31.2241C32.1369 31.0066 32.689 30.8226 33.2411 30.6553C35.0646 31.2241 36.9215 31.567 39.1131 31.6674C41.2879 31.7678 46.3736 30.9397 49.5773 28.9572C49.6777 28.6728 49.7781 28.3633 49.7781 28.3633C49.7781 28.3633 45.328 30.7975 40.2841 30.7975C37.9253 30.7975 36.4866 30.4545 35.4159 30.1868C37.7914 29.7435 40.7776 29.3755 44.1403 28.5055C45.8383 28.0622 47.9378 27.0417 48.8914 26.1969C49.7028 25.4441 50.3385 24.4738 50.121 23.4784C50.0792 23.2107 49.7279 22.5833 49.2845 22.3659C49.7028 21.8221 49.661 21.3537 49.6024 20.9522C49.5606 20.6427 49.4184 20.2998 49.2511 19.9986C48.9751 19.6306 48.7157 19.3462 48.1804 19.02C48.2641 18.5934 48.2055 18.1584 48.0215 17.7653C47.6032 17.0375 46.8588 16.4102 45.5706 15.741C45.5121 15.4733 45.3531 15.1304 45.0771 14.7874C43.4544 13.148 40.8027 12.3533 38.5694 12.3115H38.2013C35.5915 12.3366 33.492 12.9388 32.1871 13.5578ZM44.8513 17.6147C45.052 17.3889 45.3448 17.0459 45.4201 16.7615C45.9805 17.1296 46.6078 17.6733 46.6831 18.2421C46.0976 18.0162 45.4619 17.7736 44.8513 17.6147ZM45.3448 20.0823C44.3996 19.8146 43.5631 19.4968 42.459 19.296C43.1365 19.0283 43.5882 18.7523 43.9813 18.4261C44.868 18.6687 45.6961 18.9698 46.3736 19.2793C46.2565 19.4549 45.579 20.099 45.3699 20.099C45.3615 20.0907 45.3531 20.0907 45.3448 20.0823ZM47.0679 20.7933C47.3272 20.5925 47.5614 20.3667 47.7789 20.1074C48.3142 20.5758 48.4732 20.8937 48.2139 21.4039C47.8542 21.1362 47.4778 20.994 47.0679 20.7933ZM26.75 25.8205C25.2862 23.7544 30.3636 22.2738 31.3339 21.9727C33.8015 21.2199 36.6957 20.6595 39.3055 20.3332C41.1039 20.1074 42.0574 20.3165 43.7555 20.7766C39.3807 21.9727 35.0646 22.3575 30.9575 23.5955C27.6451 24.5741 26.7668 25.8205 26.75 25.8205ZM27.8375 26.8159C29.3849 25.4775 32.5301 24.7247 33.676 24.4654C37.3314 23.654 40.7358 23.1438 42.1411 22.7841C43.8391 22.3575 45.0269 21.956 45.855 21.5461C45.8968 21.4876 47.2436 22.1567 47.3774 22.3157C46.9257 22.7004 46.29 23.0267 45.5957 23.2692C43.5213 24.0388 39.7404 24.8502 37.7413 25.1597C35.7254 25.5026 34.0357 25.7619 31.8107 26.3725C30.5225 26.7239 29.6526 27.1254 29.0169 27.552C28.5485 27.2592 28.2724 27.1756 27.8375 26.8159ZM30.7065 28.4386C31.359 28.1542 32.07 27.9284 32.7559 27.7527C36.2356 26.8744 39.3055 26.7155 43.538 25.5444C45.5706 24.9924 47.0595 24.4068 47.988 23.6791C48.1219 23.5536 48.2641 23.4533 48.4063 23.3362C49.6359 25.2851 45.0269 26.7824 41.8734 27.4767C40.2256 27.8113 38.5777 28.1291 36.9299 28.4303C34.8722 28.7732 34.203 28.9572 32.7726 29.3838C32.07 29.0827 31.359 28.7816 30.7065 28.4386ZM27.001 27.828C27.3188 28.0371 27.5531 28.196 27.9295 28.3968C27.7873 28.5223 27.6116 28.6394 27.4778 28.7816C27.1683 28.5976 26.8504 28.196 27.001 27.828ZM28.6488 29.6933C28.8496 29.5093 29.1005 29.3336 29.3766 29.1496C29.9705 29.434 30.5811 29.6933 31.1582 29.961C30.7735 30.1032 30.4054 30.2872 30.0541 30.5131C29.5773 30.237 29.1089 29.9694 28.6488 29.6933ZM28.1302 30.6804C28.4648 30.9062 28.7994 31.0902 29.1423 31.2659C29.0001 31.4666 28.8998 31.6256 28.8496 31.8347C28.3477 31.4165 28.1135 31.0735 28.1302 30.6804Z" fill="#718A98"/>
</svg>
