<svg width="166" height="42" viewBox="0 0 166 42" fill="none" xmlns="http://www.w3.org/2000/svg">
<path d="M56.44 31.4498C56.44 35.5322 54.199 37.8002 50.1652 37.8002H29.5148C25.481 37.8002 23.24 35.5322 23.24 31.4498V10.5506C23.24 6.4682 25.481 4.2002 29.5148 4.2002H50.1735C54.199 4.2002 56.44 6.4682 56.44 10.5506V31.4498Z" fill="#142D3E"/>
<path fill-rule="evenodd" clip-rule="evenodd" d="M44.5871 19.3615V16.1528L45.7321 14.9932V17.7736L46.7287 18.7813L50.7371 14.7246L51.7251 15.7237C51.7165 14.9681 51.5672 12.7757 49.7328 10.9529C47.7577 9.02129 45.6161 9.89427 44.8858 10.6334L40.8851 14.6823L41.9064 15.7159L39.8399 17.8237L37.7726 15.7323L38.7939 14.6996L34.7932 10.6507C34.0628 9.91154 31.9213 9.03769 29.9461 10.9693C28.1117 12.7921 27.9624 14.9845 27.9539 15.7409L28.9419 14.741L32.9502 18.7985L33.9468 17.7909V15.0104L35.0918 16.1692V19.3779L36.7018 20.9996L28.767 29.03L31.9051 32.1964L39.8399 24.1746L47.7739 32.205L50.912 29.0378L42.9771 20.9996L44.5871 19.3615ZM61.9763 22.4027H67.9607V24.3093H64.2177V26.2668H65.4626C66.3004 26.2668 67.3797 26.3679 68.1928 27.1744C68.5418 27.5267 68.9735 28.1734 68.9735 29.2148C68.9735 29.5291 68.9351 29.8305 68.8609 30.112C68.7363 30.5817 68.5102 30.9944 68.1928 31.3148C67.977 31.5333 67.7321 31.7008 67.4633 31.8277C67.3413 31.8847 67.2142 31.9339 67.0819 31.9762C67.0171 31.9969 66.9514 32.0159 66.884 32.0332C66.396 32.1584 65.8516 32.1973 65.2714 32.1973H61.9763V22.4027ZM65.0974 30.3745C65.4045 30.3745 65.9523 30.3494 66.3004 30.0636C66.3678 30.0049 66.483 29.8892 66.5675 29.7053C66.6289 29.5731 66.6741 29.4056 66.6741 29.1984C66.6741 29.1241 66.6681 29.0542 66.6579 28.9886C66.6468 28.9186 66.6297 28.8539 66.6093 28.7934C66.5768 28.6984 66.5342 28.6155 66.4864 28.5439C66.4412 28.4765 66.3908 28.4195 66.3405 28.372C66.3183 28.3513 66.2961 28.3323 66.274 28.315L66.2424 28.2909C65.8943 28.0387 65.3295 28.031 65.0974 28.031H64.2092V30.3831H65.0974V30.3745ZM77.0901 25.6451H74.9989V26.3843C74.5953 25.8291 74.0586 25.5873 73.5842 25.4888C73.3564 25.4414 73.1431 25.4267 72.9648 25.4267C72.0689 25.4267 71.2806 25.7539 70.7158 26.3256C70.1185 26.93 69.7115 27.8712 69.7115 28.9713C69.7115 29.8365 69.9769 30.6931 70.6577 31.4245C71.3719 32.1886 72.1517 32.4235 73.0817 32.4235C73.3556 32.4235 73.7011 32.389 74.0484 32.2387C74.3837 32.0937 74.7216 31.8407 74.9989 31.4072V32.1973H77.0901V25.6451ZM71.8616 28.9126C71.8616 28.5888 71.9418 28.3263 72.0502 28.119C72.1389 27.9506 72.2456 27.8185 72.3428 27.7201C72.6167 27.4429 73.0314 27.2495 73.4801 27.2581C73.8615 27.2581 74.3265 27.4006 74.6414 27.7115C74.6994 27.7667 74.7531 27.8272 74.8018 27.8919C74.8572 27.9671 74.9059 28.0482 74.9477 28.1337C75.062 28.366 75.1234 28.6337 75.1234 28.9126C75.1234 29.4756 74.8905 29.8874 74.6166 30.1474C74.4801 30.2855 74.3146 30.3986 74.1303 30.4772C73.9451 30.5567 73.7412 30.6007 73.5296 30.6007C73.0314 30.6007 72.5834 30.3995 72.2925 30.0886C72.1099 29.8788 71.8616 29.5006 71.8616 28.9126ZM78.352 25.6451H80.4432V27.9213H82.7844V25.6451H84.8756V32.1973H82.7844V29.6267H80.4432V32.1973H78.352V25.6451ZM88.2201 25.6451H86.1289V32.1973H88.2201V29.2908L90.4283 32.1973H93.1261L90.1629 28.6863L92.935 25.6451H90.337L88.2201 28.2494V25.6451ZM65.3866 9.80274C66.2253 9.80274 67.1553 9.92018 67.9266 10.6092C68.7568 11.3398 68.8728 12.3146 68.8728 12.9864C68.8728 14.2212 68.4078 14.9103 68.0427 15.2962C67.2714 16.0863 66.2586 16.1615 65.5777 16.1615H64.2169V19.5973H61.984V9.80274H65.3866ZM64.2083 14.3136H65.0052C65.1238 14.3136 65.2748 14.311 65.437 14.2877C65.6972 14.2506 65.9847 14.1608 66.2091 13.944C66.4079 13.742 66.5743 13.3983 66.5743 12.9778C66.5743 12.7895 66.5444 12.616 66.4907 12.464C66.4275 12.2844 66.3303 12.1333 66.2091 12.0202C65.8764 11.7016 65.3952 11.6506 64.9634 11.6506H64.2083V14.3136ZM76.4177 13.0451H74.3265V13.7843C74.0398 13.3897 73.6858 13.1531 73.3351 13.0141C72.9546 12.8629 72.5774 12.8267 72.2925 12.8267C71.3966 12.8267 70.6082 13.1539 70.0434 13.7256C69.4462 14.33 69.0392 15.2712 69.0392 16.3713C69.0392 16.9308 69.1501 17.4869 69.4129 18.0076C69.5562 18.2925 69.7448 18.5663 69.9854 18.8245C70.6995 19.5886 71.4794 19.8235 72.4094 19.8235C72.6824 19.8235 73.0254 19.7898 73.3709 19.6413C73.708 19.4962 74.0475 19.2432 74.3265 18.8072V19.5973H76.4177V13.0451ZM71.1893 16.3126C71.1893 15.7245 71.4546 15.3386 71.6705 15.1201C71.9444 14.8429 72.3676 14.6495 72.8078 14.6581C72.9204 14.6581 73.0399 14.6711 73.161 14.6961C73.2319 14.7108 73.3027 14.7298 73.3735 14.754C73.5911 14.8282 73.8009 14.9457 73.969 15.1115C74.1294 15.2652 74.254 15.4577 74.3359 15.6745C74.3709 15.7668 74.3982 15.8636 74.4178 15.9629C74.4263 16.006 74.4332 16.0501 74.4383 16.095C74.4426 16.1304 74.4451 16.1666 74.4468 16.2029C74.4494 16.2392 74.4511 16.2754 74.4511 16.3126C74.4511 16.8756 74.2182 17.2874 73.9443 17.5474C73.8009 17.6924 73.626 17.8099 73.4307 17.8893C73.3547 17.9204 73.2754 17.9454 73.1935 17.9636L73.103 17.9817L73.0186 17.9921C72.9657 17.9981 72.9119 18.0007 72.8573 18.0007C72.6397 18.0007 72.4316 17.9618 72.2413 17.8928C71.9973 17.8038 71.784 17.6639 71.6202 17.4886C71.4376 17.2788 71.1893 16.9006 71.1893 16.3126ZM79.7708 13.0451V16.7918L82.5267 13.0451H84.4695V19.5973H82.3774V15.7919L79.6215 19.5973H77.6796V13.0451H79.7708ZM83.7058 10.3994C83.5309 10.9279 83.1828 11.3821 82.7758 11.6506C82.2281 12.0202 81.5558 12.0625 81.0745 12.0625C80.5933 12.0625 79.9287 12.0202 79.3732 11.6506C79.3255 11.6195 79.2785 11.5867 79.2325 11.5504C79.1804 11.5099 79.1292 11.4658 79.0797 11.4183C79.0268 11.3674 78.9757 11.3138 78.9262 11.2569C78.7188 11.0151 78.549 10.7198 78.4432 10.3994L79.8954 9.82779C79.9534 10.1214 80.0951 10.3571 80.2691 10.4996C80.4602 10.6593 80.7008 10.7604 81.066 10.7604C81.1556 10.7604 81.2375 10.7543 81.3134 10.7431L81.357 10.7362L81.3996 10.7275L81.4568 10.7129L81.5139 10.6956C81.6505 10.6498 81.7631 10.5825 81.8629 10.4996C82.037 10.3571 82.1786 10.1214 82.2366 9.82779L83.7058 10.3994ZM89.0921 19.6983V22.8647H91.2004V19.6983H91.2832C92.7524 19.6983 93.5655 19.0844 93.9392 18.7148C94.1312 18.524 94.3223 18.2805 94.481 17.9774C94.5083 17.9256 94.5347 17.872 94.5595 17.8168L94.6039 17.7149C94.6593 17.5793 94.7079 17.4342 94.748 17.2779C94.7975 17.0871 94.8334 16.8807 94.853 16.6571C94.8581 16.5941 94.8624 16.5302 94.8649 16.4645C94.8675 16.4058 94.8683 16.3471 94.8683 16.2875C94.8683 15.8627 94.8052 15.4888 94.702 15.1624C94.6107 14.8723 94.487 14.6201 94.3462 14.4034C94.3129 14.3516 94.2779 14.3015 94.2421 14.2532L94.2114 14.2126L94.1585 14.1461C94.0262 13.9829 93.8863 13.8456 93.7481 13.7342C93.109 13.2213 92.1466 12.9441 91.2917 12.9441H91.1919V9.80274H89.1007V12.9441H89.0008C88.1374 12.9441 87.1827 13.2213 86.5436 13.7342C86.0044 14.1711 85.4233 14.994 85.4233 16.2875C85.4233 17.48 85.8883 18.2615 86.3533 18.7148C86.7262 19.0844 87.5401 19.6983 89.0085 19.6983H89.0921ZM88.6681 14.6944C88.8387 14.6564 89.017 14.6409 89.192 14.6495V17.9929C88.6604 18.0093 88.1621 17.8081 87.8883 17.4973C87.6391 17.2365 87.4651 16.8082 87.4651 16.2962C87.4651 15.7755 87.6391 15.355 87.8883 15.1028C88.0802 14.9034 88.3618 14.7626 88.6681 14.6944ZM92.3872 17.5059C92.1133 17.8081 91.6236 18.018 91.0844 18.0016V14.6581C91.4205 14.6348 91.7652 14.7108 92.0476 14.8619C92.1756 14.931 92.2917 15.0148 92.3872 15.1115C92.5007 15.2263 92.5988 15.3774 92.6722 15.5562C92.7592 15.7712 92.8104 16.025 92.8104 16.3039C92.8104 16.8168 92.6364 17.2451 92.3872 17.5059ZM99.1523 22.8647V19.6983H99.0687C98.596 19.6983 98.1916 19.6344 97.8469 19.536C97.6583 19.4824 97.4885 19.4177 97.3358 19.3477C96.899 19.1474 96.6004 18.9004 96.4135 18.7148C96.3495 18.6526 96.2855 18.5844 96.2232 18.5093C96.1686 18.4445 96.1149 18.3746 96.0637 18.3003C95.9434 18.1259 95.8316 17.9247 95.7395 17.695C95.6362 17.4386 95.5577 17.1467 95.5159 16.8168C95.5031 16.7175 95.4937 16.6139 95.4886 16.5077C95.4852 16.4361 95.4835 16.3627 95.4835 16.2875C95.4835 14.994 96.0645 14.1711 96.6038 13.7342C97.2428 13.2213 98.1976 12.9441 99.061 12.9441H99.1608V9.80274H101.252V12.9441H101.352C101.617 12.9441 101.893 12.9709 102.166 13.0227C102.304 13.0486 102.441 13.0814 102.577 13.1211C102.697 13.1557 102.813 13.1954 102.928 13.2394C103.254 13.3664 103.556 13.5321 103.808 13.7342C104.348 14.1711 104.929 14.994 104.929 16.2875C104.929 16.7624 104.855 17.17 104.737 17.5189C104.632 17.8314 104.49 18.0965 104.334 18.3185C104.226 18.4704 104.113 18.6017 103.999 18.7148C103.76 18.9514 103.341 19.2881 102.684 19.4997C102.509 19.5558 102.317 19.6033 102.108 19.6379C101.876 19.6767 101.621 19.6983 101.343 19.6983H101.261V22.8647H99.1523ZM99.2521 14.6495C98.7624 14.6245 98.247 14.792 97.9484 15.1028C97.6993 15.355 97.5252 15.7755 97.5252 16.2962C97.5252 16.8082 97.6993 17.2365 97.9484 17.4973C98.2223 17.8081 98.7206 18.0093 99.2521 17.9929V14.6495ZM101.144 18.0016C101.684 18.018 102.174 17.8081 102.447 17.5059C102.58 17.3678 102.691 17.1821 102.766 16.9619C102.832 16.7668 102.871 16.5448 102.871 16.3039C102.871 15.7919 102.697 15.3636 102.447 15.1115C102.14 14.8006 101.633 14.6245 101.144 14.6581V18.0016ZM112.913 13.0451H110.822V13.7843C110.224 12.9614 109.335 12.8267 108.788 12.8267C107.892 12.8267 107.103 13.1539 106.539 13.7256C105.941 14.33 105.534 15.2712 105.534 16.3713C105.534 16.9222 105.642 17.4696 105.895 17.9834C106.04 18.277 106.233 18.5585 106.48 18.8245C107.195 19.5886 107.974 19.8235 108.904 19.8235C109.444 19.8235 110.257 19.6897 110.822 18.8072V19.5973H112.913V13.0451ZM107.684 16.3126C107.684 16.0397 107.742 15.8109 107.824 15.6218C107.92 15.4025 108.05 15.2375 108.166 15.1201C108.439 14.8429 108.863 14.6495 109.303 14.6581C109.684 14.6581 110.149 14.8006 110.464 15.1115C110.771 15.405 110.946 15.842 110.946 16.3126C110.946 16.8756 110.713 17.2874 110.439 17.5474C110.165 17.8245 109.776 18.0007 109.352 18.0007C108.854 18.0007 108.406 17.7995 108.115 17.4886C108.027 17.3876 107.924 17.2469 107.841 17.0629C107.751 16.8652 107.684 16.6165 107.684 16.3126ZM116.266 13.0451V16.7918L119.022 13.0451H120.965V19.5973H118.872V15.7919L116.117 19.5973H114.175V13.0451H116.266ZM120.201 10.3994C120.12 10.6446 120.001 10.8735 119.857 11.0755C119.756 11.2171 119.643 11.3449 119.52 11.4563C119.441 11.5289 119.357 11.5936 119.271 11.6506C119.132 11.7439 118.985 11.8164 118.835 11.8734C118.663 11.9381 118.487 11.9813 118.314 12.0098C118.047 12.0539 117.788 12.0625 117.57 12.0625C117.088 12.0625 116.424 12.0202 115.868 11.6506C115.461 11.3898 115.112 10.9279 114.938 10.3994L116.39 9.82779C116.449 10.1214 116.59 10.3571 116.764 10.4996C116.86 10.579 116.967 10.6438 117.097 10.6887C117.227 10.7344 117.379 10.7604 117.561 10.7604C117.926 10.7604 118.167 10.6593 118.358 10.4996C118.447 10.427 118.527 10.3303 118.593 10.2138C118.655 10.1015 118.704 9.97199 118.732 9.82779L120.201 10.3994ZM123.089 13.0615C122.74 13.1962 122.292 13.4311 122.018 13.6081L122.831 15.0277C123.04 14.8507 123.255 14.7168 123.529 14.5994C123.803 14.4811 124.051 14.4224 124.384 14.4224C124.732 14.4224 124.94 14.4984 125.039 14.5407C125.19 14.6089 125.272 14.703 125.315 14.7928C125.345 14.8576 125.355 14.9198 125.355 14.969C125.355 15.0951 125.297 15.2876 125.048 15.405C124.981 15.437 124.891 15.4603 124.795 15.4776C124.607 15.5121 124.394 15.5233 124.267 15.5233H123.67V16.9593H124.45C124.683 16.9593 125.031 17.0016 125.206 17.0768C125.288 17.113 125.356 17.1588 125.407 17.2166C125.475 17.2926 125.513 17.3893 125.513 17.5137C125.513 17.6095 125.494 17.7347 125.408 17.8496C125.365 17.9066 125.305 17.9618 125.222 18.0093C125.015 18.1268 124.699 18.1691 124.467 18.1691C124.247 18.1691 124.006 18.1337 123.79 18.0775C123.671 18.0465 123.56 18.0093 123.463 17.9679C123.205 17.8496 122.898 17.6398 122.666 17.4386L121.778 18.8331C121.86 18.8996 121.994 19.0067 122.174 19.1241C122.257 19.1785 122.349 19.2355 122.45 19.2916C122.597 19.3728 122.761 19.4522 122.94 19.5213C123.521 19.7398 124.127 19.8157 124.708 19.8157C125.787 19.8157 126.542 19.656 127.09 19.1103C127.305 18.8918 127.447 18.6587 127.535 18.4229C127.62 18.195 127.654 17.9636 127.654 17.7408C127.654 17.6829 127.652 17.6259 127.647 17.5707C127.643 17.5353 127.64 17.4999 127.635 17.4653L127.623 17.3928C127.57 17.1199 127.446 16.8782 127.223 16.6571C127.132 16.5647 126.832 16.3039 126.351 16.1865C126.4 16.1684 126.449 16.1459 126.497 16.1209C126.537 16.1002 126.575 16.0768 126.614 16.0518L126.663 16.0181C126.697 15.9939 126.731 15.968 126.763 15.9413C126.811 15.9024 126.856 15.8601 126.899 15.8169C127.214 15.481 127.289 15.1115 127.289 14.6996C127.289 14.5744 127.279 14.4509 127.257 14.3309C127.245 14.2652 127.229 14.2005 127.208 14.1366C127.137 13.9095 127.01 13.6953 126.807 13.4985C126.152 12.8517 124.965 12.8267 124.616 12.8267C124.118 12.8267 123.579 12.8854 123.089 13.0615ZM135.223 16.6908H130.392C130.392 16.8125 130.409 16.949 130.44 17.0871C130.5 17.3479 130.615 17.6156 130.783 17.8073C130.866 17.9005 130.958 17.9739 131.055 18.03C131.122 18.0698 131.192 18.1017 131.262 18.1268C131.469 18.2019 131.68 18.2192 131.853 18.2192C131.969 18.2192 132.086 18.2105 132.199 18.1932C132.384 18.1639 132.557 18.1095 132.692 18.0257C132.717 18.0093 132.966 17.8496 133.14 17.48L135.116 17.6821C134.825 18.606 134.244 19.093 133.87 19.3279C133.248 19.7061 132.551 19.8149 131.821 19.8149C130.849 19.8149 129.994 19.6387 129.239 18.8745C128.675 18.3029 128.268 17.4377 128.268 16.3462C128.268 15.405 128.6 14.4397 129.256 13.7592C129.644 13.3655 130.083 13.1306 130.514 12.9942C130.948 12.856 131.375 12.818 131.737 12.818C132.46 12.818 133.505 12.9527 134.31 13.8007C135.083 14.6245 135.223 15.6486 135.223 16.4637V16.6908ZM133.298 15.4301C133.281 15.3714 133.182 14.9604 132.874 14.6659C132.789 14.5856 132.69 14.5148 132.578 14.4569C132.506 14.4189 132.428 14.387 132.345 14.362C132.206 14.3196 132.054 14.2963 131.886 14.2963C131.706 14.2963 131.552 14.3205 131.418 14.3602C131.149 14.4405 130.962 14.5847 130.824 14.7246C130.666 14.9016 130.517 15.1365 130.459 15.4301H133.298ZM138.261 13.0451H136.17V19.5973H138.261V17.0267H140.602V19.5973H142.693V13.0451H140.602V15.3213H138.261V13.0451Z" fill="#718A98"/>
</svg>
