<svg width="200" height="50" viewBox="0 0 200 50" fill="none" xmlns="http://www.w3.org/2000/svg">
<path d="M55.5076 21.0254C56.6544 21.0254 57.931 21.0652 59.038 21.8132C59.776 22.3019 60.6436 23.2693 60.6436 24.9946C60.6436 26.8895 59.4469 29.1234 56.1259 29.1234H53.3334V34.3194H50.8901V21.0254H55.5076ZM55.6073 27.1787C56.1458 27.1787 56.9237 27.1986 57.542 26.6202C57.9709 26.2313 58.2003 25.573 58.2003 25.0146C58.2003 24.496 57.9908 23.8677 57.562 23.4987C57.1331 23.1297 56.455 22.9501 55.697 22.9501H53.3334V27.1787H55.6073ZM62.8976 25.4434C63.5758 24.8051 64.5831 24.2466 66.089 24.2466C67.6049 24.2466 68.6122 24.8051 69.2903 25.4434C70.2976 26.3908 70.8162 27.8668 70.8162 29.3728C70.8162 30.8787 70.2976 32.3547 69.2903 33.3021C68.6122 33.9404 67.6049 34.5088 66.089 34.5088C64.5831 34.5088 63.5758 33.9404 62.8976 33.3021C61.8904 32.3547 61.3718 30.8787 61.3718 29.3728C61.3618 27.8569 61.8904 26.3908 62.8976 25.4434ZM64.5432 32.1652C64.7526 32.4145 65.2413 32.8832 66.089 32.8832C66.9467 32.8832 67.4254 32.4245 67.6348 32.1652C67.7944 31.9957 68.3728 31.2178 68.3728 29.3728C68.3728 27.5278 67.7944 26.7598 67.6348 26.5803C67.4254 26.331 66.9367 25.8623 66.089 25.8623C65.2413 25.8623 64.7526 26.321 64.5432 26.5803C64.3936 26.7598 63.8052 27.5278 63.8052 29.3728C63.8052 31.2078 64.3936 31.9857 64.5432 32.1652ZM78.5452 28.0563C78.5053 27.5577 78.3158 26.9693 78.0565 26.6003C77.8171 26.2512 77.3584 25.8623 76.5805 25.8623C75.8225 25.8623 75.3239 26.2512 75.0147 26.7698C74.526 27.5676 74.4961 28.8043 74.4961 29.3728C74.4961 30.2803 74.6258 31.3674 75.0147 31.9857C75.264 32.3746 75.7727 32.8733 76.5805 32.8733C77.1589 32.8733 77.6476 32.6439 78.0166 32.1353C78.3058 31.7264 78.5053 31.1479 78.5352 30.6393L80.5896 30.8887C80.4699 31.7962 80.071 32.8134 79.353 33.4617C78.7546 34.0002 77.8171 34.4889 76.5007 34.4889C75.0347 34.4889 74.0773 33.9105 73.5188 33.3819C72.7608 32.6638 72.0428 31.3873 72.0428 29.3728C72.0428 27.4978 72.681 26.3709 73.1897 25.7725C73.9077 24.9148 75.1244 24.2267 76.5605 24.2267C77.7872 24.2267 78.7945 24.6555 79.4228 25.3138C80.061 25.952 80.45 26.9194 80.5896 27.7871L78.5452 28.0563ZM88.1592 28.0563C88.1193 27.5577 87.9298 26.9693 87.6705 26.6003C87.4412 26.2512 86.9724 25.8623 86.1945 25.8623C85.4366 25.8623 84.9379 26.2512 84.6288 26.7698C84.1501 27.5676 84.1102 28.8043 84.1102 29.3728C84.1102 30.2803 84.2498 31.3674 84.6288 31.9857C84.8781 32.3746 85.3867 32.8733 86.1945 32.8733C86.773 32.8733 87.2616 32.6439 87.6306 32.1353C87.9199 31.7264 88.1193 31.1479 88.1492 30.6393L90.2037 30.8887C90.094 31.7962 89.6851 32.8134 88.967 33.4617C88.3686 34.0002 87.4412 34.4889 86.1247 34.4889C84.6487 34.4889 83.7013 33.9105 83.1428 33.3819C82.3849 32.6638 81.6668 31.3873 81.6668 29.3728C81.6668 27.4978 82.3051 26.3709 82.8137 25.7725C83.5317 24.9148 84.7485 24.2267 86.1846 24.2267C87.4013 24.2267 88.4085 24.6555 89.0468 25.3138C89.6851 25.952 90.074 26.9194 90.2136 27.7871L88.1592 28.0563ZM100.576 31.4471C100.227 32.604 99.5284 33.2822 98.95 33.6911C98.1721 34.2096 97.1648 34.5088 96.0977 34.5088C94.7613 34.5088 93.405 33.9404 92.5872 33.1126C91.8293 32.3447 91.2708 30.9983 91.2708 29.4126C91.2708 27.3981 92.1085 26.0617 93.0161 25.3038C93.5446 24.855 94.532 24.2367 96.0179 24.2367C97.9028 24.2367 99.0996 25.1043 99.7379 26.0019C100.416 26.9294 100.735 28.2259 100.735 29.3528V29.8016H93.7242C93.7242 29.9113 93.7042 30.8089 94.0533 31.5269C94.5719 32.614 95.5293 32.8832 96.1875 32.8832C96.7061 32.8832 97.3643 32.7237 97.9128 32.1652C98.2419 31.8161 98.3815 31.487 98.4314 31.1779L100.576 31.4471ZM98.2918 28.3256C98.2918 27.7671 98.1522 27.1288 97.8629 26.7C97.4939 26.1614 96.8357 25.7924 96.1177 25.7924C95.3797 25.7924 94.7414 26.1614 94.3524 26.6202C94.0433 27.0092 93.774 27.6075 93.774 28.3256H98.2918ZM110.299 24.4361V34.3194H108.046V26.1116H105.492C105.433 27.448 105.393 27.9865 105.353 28.904C105.293 29.9312 105.223 32.0954 104.346 33.2822C103.857 33.9204 103.258 34.1698 102.83 34.2894C102.58 34.3692 102.311 34.3991 102.032 34.3991C101.842 34.3991 101.643 34.3792 101.453 34.3194V32.614H101.643C101.932 32.594 102.321 32.4444 102.57 32.245C103.348 31.6266 103.418 30.2304 103.498 29.1234C103.598 27.6674 103.618 26.7997 103.627 25.4833L103.647 24.4361H110.299ZM114.917 27.9566H117.4C118.038 27.9566 119.275 28.0364 120.093 28.8442C120.831 29.5622 120.901 30.5695 120.901 31.1081C120.901 32.5242 120.322 33.2423 119.873 33.6113C119.714 33.731 118.986 34.3094 117.59 34.3094H112.673V24.4361H114.917V27.9566ZM114.917 32.6838H116.682C117.111 32.6838 117.57 32.6638 117.959 32.3347C118.188 32.1153 118.467 31.7563 118.467 31.128C118.467 30.5895 118.308 30.1606 117.869 29.8714C117.48 29.6221 116.991 29.5822 116.692 29.5822H114.927V32.6838H114.917ZM124.172 24.4361L125.997 27.5078L127.892 24.4361H129.946L127.054 28.904L130.485 34.3094H127.852L125.608 30.5895L123.244 34.3094H121.19L124.561 29.1833L121.539 24.4361H124.172ZM132.22 25.4434C132.898 24.8051 133.906 24.2466 135.411 24.2466C136.927 24.2466 137.935 24.8051 138.613 25.4434C139.62 26.3908 140.139 27.8668 140.139 29.3728C140.139 30.8787 139.61 32.3547 138.613 33.3021C137.935 33.9404 136.927 34.5088 135.411 34.5088C133.906 34.5088 132.898 33.9404 132.22 33.3021C131.213 32.3547 130.694 30.8787 130.694 29.3728C130.694 27.8569 131.213 26.3908 132.22 25.4434ZM133.866 32.1652C134.075 32.4145 134.564 32.8832 135.411 32.8832C136.269 32.8832 136.748 32.4245 136.967 32.1652C137.117 31.9957 137.705 31.2178 137.705 29.3728C137.705 27.5278 137.127 26.7598 136.967 26.5803C136.758 26.331 136.269 25.8623 135.411 25.8623C134.564 25.8623 134.075 26.321 133.866 26.5803C133.706 26.7598 133.128 27.5278 133.128 29.3728C133.128 31.2078 133.716 31.9857 133.866 32.1652ZM141.345 27.1089C141.635 25.9121 142.392 25.2539 142.931 24.9248C143.26 24.7154 144.168 24.2466 145.723 24.2466C146.691 24.2466 147.678 24.4162 148.416 24.8251C149.503 25.4235 149.772 26.2911 149.772 26.9194C149.772 27.5976 149.443 28.8941 147.758 29.0835V29.1234C148.336 29.2032 148.975 29.4525 149.364 29.8614C149.713 30.2304 149.982 30.8488 149.982 31.507C149.982 32.4943 149.403 33.362 148.665 33.8506C147.778 34.4291 146.551 34.5088 145.644 34.5088C144.726 34.5088 143.34 34.4091 142.363 33.6412C141.824 33.2124 141.315 32.4744 141.166 31.5469L143.2 31.1978C143.28 31.507 143.45 31.9757 143.679 32.245C144.188 32.8334 144.975 32.8832 145.484 32.8832C145.993 32.8832 146.531 32.8234 146.96 32.5342C147.349 32.2649 147.539 31.8959 147.539 31.4072C147.539 30.9984 147.459 30.6692 147.11 30.38C146.661 30.011 146.063 29.9512 145.504 29.9512H144.477V28.4353H145.504C145.893 28.4353 146.451 28.3555 146.761 28.2059C147.17 27.9965 147.399 27.6474 147.399 27.079C147.399 26.7698 147.279 26.4706 146.99 26.2412C146.541 25.8722 145.903 25.8523 145.574 25.8523C145.125 25.8523 144.467 25.9121 143.928 26.3709C143.699 26.5604 143.39 26.9294 143.29 27.5078L141.345 27.1089ZM161.481 23.3491H155.068V26.2911H157.92C158.948 26.2911 159.935 26.3709 160.942 27.069C161.93 27.7472 162.548 28.7544 162.548 30.2105C162.548 31.5668 162.039 32.5741 161.401 33.2123C160.434 34.1797 159.327 34.3194 158.17 34.3194H151.967V21.0254H161.481V23.3491ZM155.068 31.9857H157.571C158.04 31.9857 158.469 31.9657 158.908 31.5169C159.337 31.0881 159.396 30.6094 159.396 30.2404C159.396 29.8215 159.277 29.3927 158.908 29.0237C158.469 28.5849 157.9 28.535 157.492 28.535H155.068V31.9857ZM164.144 27.1787C164.453 25.8423 165.32 25.1641 165.849 24.855C166.617 24.4062 167.644 24.2367 168.931 24.2367C170.556 24.2367 172.202 24.4461 172.94 25.9819C173.329 26.7798 173.289 27.6275 173.289 28.3655V32.1851C173.289 32.983 173.398 33.721 173.578 34.3194H170.766C170.686 33.9304 170.626 33.4118 170.616 32.7536C170.247 33.4118 169.349 34.5188 167.305 34.5188C166.397 34.5188 165.46 34.2894 164.822 33.7609C164.203 33.2522 163.814 32.4444 163.814 31.5568C163.814 30.5695 164.243 29.3827 165.929 28.6846C167.016 28.2358 168.781 28.0862 169.569 28.0463L170.496 28.0065V27.797C170.496 27.5277 170.476 26.9493 170.207 26.6302C169.838 26.2013 169.1 26.1814 168.811 26.1814C168.412 26.1814 167.923 26.2213 167.514 26.4706C167.265 26.6202 166.936 26.9393 166.816 27.4779L164.144 27.1787ZM169.629 29.642C168.661 29.7218 167.694 29.8215 167.145 30.4897C166.996 30.6792 166.836 30.9784 166.836 31.3773C166.836 31.8062 167.046 32.0954 167.265 32.245C167.534 32.4544 167.943 32.5541 168.332 32.5541C168.911 32.5541 169.589 32.3048 169.978 31.8361C170.038 31.7762 170.496 31.1978 170.496 30.0709V29.5523L169.629 29.642ZM178.415 24.4361V28.1361H181.536V24.4361H184.419V34.3094H181.536V30.1606H178.415V34.3094H175.533V24.4361H178.415ZM189.555 24.4361V28.2358H190.333C191.17 28.2358 191.519 27.8269 191.729 27.3782C192.138 26.5105 192.118 25.8323 192.487 25.1542C192.776 24.6156 193.165 24.476 193.414 24.4361H195.798C195.489 24.7652 195.219 25.1542 195.04 25.5032C194.731 26.1415 194.442 27.1887 194.262 27.6375C194.033 28.2558 193.644 28.8741 192.656 28.9539V28.9938C193.185 29.0736 193.724 29.3428 194.132 29.9412C194.382 30.3102 194.551 30.7889 194.831 31.5469C195.1 32.3248 195.219 32.594 195.469 33.1924C195.668 33.6412 195.778 33.9105 196.107 34.3194H193.394C192.966 34.1797 192.676 33.8905 192.327 32.8832C192.058 32.1153 192.018 31.8361 191.839 31.4072L191.699 31.0582C191.41 30.3202 191.021 30.1706 190.422 30.1706H189.555V34.3194H186.673V24.4361H189.555Z" fill="#718A98"/>
<path d="M24.3223 49C12.5641 49 3 39.4459 3 27.6877C3 20.936 6.1016 14.7228 11.507 10.6539L11.7264 10.4743V1H23.9632V6.37544H24.3223C36.0704 6.37544 45.6345 15.9395 45.6345 27.6977C45.6345 39.4459 36.0704 49 24.3223 49Z" fill="#142D3E"/>
<path d="M18.1487 28.0265L22.5867 23.6683V20.7063L18.1487 25.0446V28.0265ZM18.1487 16.9864L22.5867 12.6182V9.8258L18.1487 14.164V16.9864ZM18.1487 20.6365L22.5867 16.2783V13.4859L18.1487 17.8241V20.6365ZM16.8822 9.85572L16.2938 9.28726V2.37598H15.6157V8.62905L15.0372 8.05061V2.37598H14.3591V7.40237L13.7707 6.82393V2.37598H13.1025V8.96813L17.5504 13.3263V2.37598H16.8822V9.85572ZM18.1487 24.2866L22.5867 19.9284V17.136L18.1487 21.4742V24.2866ZM13.1025 23.6683L17.5504 28.0265V25.0446L13.1025 20.7063V23.6683ZM21.9185 6.82393L21.3301 7.40237V2.37598H20.6619V8.06059L20.0735 8.62905V2.37598H19.4053V9.27729L18.8169 9.85572V2.37598H18.1487V13.3263L22.5867 8.96813V2.37598H21.9185V6.82393ZM13.1025 12.6182L17.5504 16.9864V14.164L13.1025 9.8258V12.6182ZM13.1025 16.2783L17.5504 20.6365V17.8241L13.1025 13.4859V16.2783ZM13.1025 19.9284L17.5504 24.2866V21.4742L13.1025 17.136V19.9284ZM39.5608 22.2322H28.7601C28.9895 21.8732 29.1191 21.4543 29.1191 21.0055C29.1191 19.719 28.0719 18.6818 26.7854 18.6818C25.4989 18.6818 24.4617 19.729 24.4617 21.0055C24.4617 21.5142 24.6213 21.9729 24.9005 22.3519C24.7011 22.4815 24.5614 22.7109 24.5614 22.9802C24.5614 23.2395 24.7011 23.4689 24.9005 23.5985C24.6313 23.9775 24.4617 24.4462 24.4617 24.9449C24.4617 26.2314 25.4989 27.2686 26.7854 27.2686C28.0719 27.2686 29.1191 26.2314 29.1191 24.9449C29.1191 24.4961 28.9895 24.0672 28.7601 23.7182H36.7983V24.2069H36.0005V24.895H36.7983V25.6031H36.0005V26.9095H36.7983V26.3211H37.9751V26.9095H38.763V25.6031H37.9751V24.895H38.763V24.2069H37.9751V23.7182H39.5608C39.87 23.7182 40.1193 23.4589 40.1193 23.1497V22.8007C40.1193 22.4915 39.86 22.2322 39.5608 22.2322ZM27.9922 24.9449C27.9922 25.6031 27.4536 26.1416 26.7854 26.1416C26.1272 26.1416 25.5887 25.6031 25.5887 24.9449C25.5887 24.7055 25.6585 24.4761 25.7881 24.2866L26.1172 23.7182C25.9078 23.5387 25.7781 23.2694 25.7781 22.9702C25.7781 22.671 25.9078 22.4018 26.1172 22.2222L25.7881 21.6538C25.6585 21.4643 25.5887 21.2449 25.5887 20.9956C25.5887 20.3373 26.1272 19.7988 26.7854 19.7988C27.4436 19.7988 27.9922 20.3373 27.9922 20.9956C27.9922 21.4842 27.4237 22.6511 27.4237 22.6511V23.2794C27.4237 23.2894 27.9922 24.4562 27.9922 24.9449Z" fill="#718A98"/>
<path d="M9.06348 20.8164V23.7186C9.06348 26.4911 10.2702 28.2762 10.9683 28.9644C11.3772 29.3633 15.506 33.4323 15.5659 33.4821C16.8524 34.7387 17.0718 35.1476 17.361 35.8657V32.6544C17.361 29.7921 15.9149 28.6851 15.1669 27.9571C13.4217 26.2617 12.2648 25.1447 11.3174 24.2072C9.54218 22.4221 9.06348 20.8164 9.06348 20.8164ZM15.167 35.1277C13.4317 33.4223 12.2648 32.3153 11.3274 31.3778C9.54222 29.5927 9.07349 28.3859 9.07349 28.3859V30.8891C9.07349 33.6616 10.3301 35.4269 10.9684 36.1549C11.3772 36.5538 15.516 40.6028 15.5659 40.6527C16.8524 41.9093 17.0718 42.5077 17.361 43.2158V39.8249C17.361 36.9627 15.905 35.8557 15.167 35.1277Z" fill="#718A98"/>
<path d="M24.322 7.74219C24.0029 7.74219 23.6837 7.75216 23.3646 7.76214V9.11846C23.6837 9.09852 23.9929 9.09852 24.322 9.09852C34.5842 9.09852 42.9017 17.416 42.9017 27.6882C42.9017 37.9504 34.5842 46.2679 24.322 46.2679C14.0598 46.2679 5.73231 37.9504 5.73231 27.6882C5.73231 21.9936 8.29537 16.8974 12.3345 13.4867V11.7514C7.49753 15.3915 4.37598 21.1758 4.37598 27.6882C4.37598 38.6984 13.3018 47.6242 24.322 47.6242C35.3322 47.6242 44.258 38.6984 44.258 27.6882C44.258 16.678 35.3322 7.74219 24.322 7.74219Z" fill="#718A98"/>
<path d="M38.4243 38.1C38.7334 37.6811 39.0227 37.2423 39.3019 36.7935V34.1208H38.4243V38.1ZM40.9774 33.1434C41.107 32.7545 41.2167 32.3656 41.3164 31.9766H38.4243V32.6847H38.8631C39.631 32.6647 40.4987 32.6548 40.9774 33.1434Z" fill="#718A98"/>
<path d="M21.7195 31.876H20.9316V39.8244H21.7195V31.876Z" fill="#718A98"/>
<path d="M19.1263 30.3503H21.7192C22.3874 30.3503 22.8562 30.4899 23.1254 30.7492C23.3947 31.0085 23.5244 31.4773 23.5244 32.1455V39.5753C23.5244 40.2435 23.3947 40.7123 23.1254 40.9716C22.7165 41.3804 21.9586 41.3804 21.3303 41.3804C21.1907 41.3705 21.0511 41.3705 20.9314 41.3705V44.8909C21.1907 44.9408 21.45 44.9907 21.7192 45.0306V42.1384C22.916 42.1384 23.6939 41.7295 24.0629 40.9117V45.22H24.3222C24.4818 45.22 24.6513 45.22 24.8109 45.2101V32.2751C24.8109 31.587 24.9505 31.1083 25.2098 30.839C25.4691 30.5697 25.9378 30.4301 26.596 30.4301C27.2642 30.4301 28.2516 30.3304 28.7602 30.839C29.0195 31.1083 29.1391 31.5969 29.1391 32.2751V36.0848H27.364V32.0158H26.596V45.0705C26.8553 45.0405 27.1047 45.0006 27.364 44.9508V36.8527H29.1391V44.5419C29.5081 44.4422 29.8672 44.3225 30.2262 44.1928V37.1519C30.2262 36.3541 30.4157 35.7557 31.2235 35.4864L30.3259 30.5897H32.1211L32.4203 35.9352H32.6397L32.9389 30.5897H34.8337L33.8165 35.4864C34.6642 35.7856 34.8337 36.3042 34.8337 37.1519V41.6996C35.3623 41.3007 35.8609 40.8818 36.3396 40.423V30.5398H41.6054C41.6453 30.3005 41.6752 30.0711 41.7051 29.8218H29.3984L29.568 30.7093C29.179 29.9913 28.441 29.6323 27.354 29.6323H26.5861C25.2796 29.6323 24.4917 30.1509 24.1826 31.1881C23.9033 30.101 23.0756 29.5625 21.7093 29.5625H18.3384V44.1529C18.5977 44.2427 18.857 44.3324 19.1163 44.4122V30.3503H19.1263ZM35.472 35.9651L34.6243 35.1573L35.472 30.7692V35.9651Z" fill="#718A98"/>
<path d="M32.1309 43.3849C32.4002 43.2453 32.6694 43.1057 32.9387 42.9561V36.9424H32.1309V43.3849Z" fill="#718A98"/>
</svg>
