<svg width="167" height="42" viewBox="0 0 167 42" fill="none" xmlns="http://www.w3.org/2000/svg">
<path d="M75.5675 16.3804L78.7405 14.0284H68.2195V27.9724H78.7405V25.6204H71.2255V22.0924H77.5715V19.7404H71.2255V16.3804H75.5675ZM62.458 16.3804L65.631 14.0284H53.607V27.9724H59.8695C63.3765 27.9724 65.3805 26.3764 65.3805 23.6044C65.3805 20.9164 63.5435 19.4884 60.2035 19.4884H56.5295V16.3804H62.458ZM59.786 21.7564C61.7065 21.7564 62.5415 22.4284 62.5415 23.6884C62.5415 24.9484 61.623 25.6204 59.786 25.6204H56.613V21.7564H59.786ZM87.174 14.0284H81.496V27.9724H84.502V24.0244H87.2575C90.9315 24.0244 93.186 22.0924 93.186 18.9844C93.186 15.8764 90.848 14.0284 87.174 14.0284ZM87.174 21.6724H84.502V16.2964H87.174C89.0945 16.2964 90.18 17.2204 90.18 18.9844C90.0965 20.7484 89.0945 21.6724 87.174 21.6724ZM48.5135 24.9484C47.6785 25.3684 46.8435 25.6204 45.925 25.6204C43.253 25.6204 41.249 23.6884 41.249 21.0004C41.249 18.3124 43.1695 16.3804 45.925 16.3804C46.927 16.3804 47.8455 16.7164 48.6805 17.2204L50.8515 15.6244L50.6845 15.4564C49.432 14.3644 47.762 13.7764 45.8415 13.7764C43.754 13.7764 41.917 14.4484 40.4975 15.7924C39.1615 17.1364 38.3265 18.9844 38.41 20.9164C38.41 22.8484 39.1615 24.6964 40.4975 26.1244C41.917 27.4684 43.8375 28.2244 45.758 28.1404C47.929 28.1404 49.766 27.3844 51.102 26.0404L49.1815 24.6124L48.5135 24.9484ZM138.61 19.7404H132.181V14.0284H129.175V27.9724H132.181V22.2604H138.61V27.9724H141.616V14.0284H138.61V19.7404ZM118.32 14.0284L112.308 27.9724H115.314L116.483 25.2004H122.829L123.998 27.9724H127.171L121.326 14.0284H118.32ZM117.485 22.8484L119.823 17.2204L121.994 22.8484H117.485ZM152.471 20.7484L157.899 14.0284H154.475L149.966 19.9924H148.296V14.0284H145.29V27.9724H148.296V22.3444H150.217L154.809 27.9724H158.65L152.471 20.7484ZM106.045 19.4884H102.371V16.3804H110.22V14.0284H99.365V27.9724H105.628C109.135 27.9724 111.139 26.3764 111.139 23.6044C111.222 20.9164 109.385 19.4884 106.045 19.4884ZM105.544 25.7044H102.371V21.8404H105.544C107.465 21.8404 108.3 22.5124 108.3 23.7724C108.383 25.0324 107.381 25.7044 105.544 25.7044Z" fill="#718A98"/>
<path d="M28.7916 13.7607C29.3337 14.4753 29.7926 15.2515 30.159 16.074L19.7642 23.8862L15.4199 21.1098V17.7696L19.7642 20.546L28.7916 13.7607Z" fill="#718A98"/>
<path d="M10.9864 20.8733C10.9864 20.7234 10.99 20.5745 10.9972 20.4265L8.36444 20.2949C8.35548 20.4868 8.3501 20.6805 8.3501 20.876C8.34898 22.4034 8.64366 23.9159 9.21725 25.3269C9.79083 26.738 10.632 28.0196 11.6926 29.0984L13.56 27.1954C12.7437 26.3664 12.096 25.3811 11.6544 24.2962C11.2127 23.2112 10.9857 22.0479 10.9864 20.8733Z" fill="#718A98"/>
<path d="M19.7618 11.9272C19.9088 11.9272 20.0548 11.9327 20.2 11.94L20.3317 9.25492C20.143 9.24579 19.953 9.24122 19.7618 9.24122C18.2629 9.23936 16.7786 9.53936 15.3938 10.124C14.009 10.7086 12.7511 11.5664 11.6924 12.648L13.5599 14.552C14.373 13.7194 15.3395 13.0589 16.4039 12.6084C17.4682 12.158 18.6094 11.9265 19.7618 11.9272Z" fill="#718A98"/>
<path d="M19.762 29.8211C19.615 29.8211 19.4689 29.8211 19.3229 29.8092L19.1912 32.4934C19.3805 32.5031 19.5708 32.508 19.762 32.508C21.2602 32.5096 22.7439 32.2094 24.1279 31.6246C25.512 31.0398 26.769 30.1819 27.827 29.1003L25.9631 27.1973C25.1498 28.0294 24.1834 28.6895 23.1192 29.1398C22.0551 29.5901 20.9141 29.8217 19.762 29.8211Z" fill="#718A98"/>
<path d="M24.7084 13.4885L26.9272 11.8212C24.8992 10.147 22.3678 9.23559 19.7583 9.24025V11.9272C21.5253 11.9249 23.2513 12.4693 24.7084 13.4885Z" fill="#718A98"/>
<path d="M31.173 20.8739C31.1744 20.1749 31.1145 19.4772 30.9938 18.7891L28.5376 20.6345C28.5376 20.7141 28.5376 20.7935 28.5376 20.8739C28.5382 22.124 28.2812 23.3602 27.7832 24.5025C27.2852 25.6448 26.5573 26.6677 25.6467 27.5048L27.4184 29.5011C28.6021 28.4115 29.5481 27.0805 30.1949 25.5943C30.8418 24.1081 31.175 22.4999 31.173 20.8739Z" fill="#718A98"/>
<path d="M19.762 29.8213C18.5358 29.8217 17.3231 29.5596 16.2025 29.0519C15.082 28.5442 14.0785 27.8022 13.2571 26.874L11.3 28.6793C12.3686 29.8864 13.6741 30.851 15.1319 31.5106C16.5896 32.1702 18.1671 32.5101 19.762 32.5082V29.8213Z" fill="#718A98"/>
<path d="M13.8773 14.2433L12.1066 12.2471C10.9224 13.3364 9.97611 14.6674 9.32897 16.1536C8.68183 17.6398 8.34833 19.2481 8.3501 20.8742H10.9864C10.9859 19.6242 11.243 18.3879 11.7409 17.2456C12.2389 16.1034 12.9668 15.0805 13.8773 14.2433Z" fill="#718A98"/>
</svg>
