<svg width="166" height="42" viewBox="0 0 166 42" fill="none" xmlns="http://www.w3.org/2000/svg">
<path d="M47.2309 5.87988L45.7967 9.86128H65.6643L67.0985 5.87988H47.2309ZM45.0805 11.8503L43.6463 15.8308H63.5139L64.9481 11.8503H45.0805ZM42.9342 17.8207L41.5 21.8004H61.3676L62.8001 17.8198C62.8009 17.8207 42.9342 17.8207 42.9342 17.8207Z" fill="#718A98"/>
<path d="M83.2674 23.0503V23.133C84.1596 23.4646 85.0126 24.0452 85.4587 24.4182C86.8378 25.5794 87.4473 27.1127 87.4473 29.1026C87.4473 32.3793 85.743 34.7413 82.9422 35.4881C82.0892 35.7371 81.197 35.8198 79.5335 35.8198H71.0535V11.8555H78.5612C80.1038 11.8555 81.1578 11.9382 82.0908 12.1863C84.8099 12.9331 86.596 14.8402 86.596 17.8664C86.596 19.4841 86.0282 20.8528 85.0951 21.7642C84.689 22.1786 84.1212 22.6765 83.269 23.0494L83.2674 23.0503ZM75.7604 25.5794V31.8814H79.0073C79.9804 31.8814 80.8743 31.7987 81.523 31.1768C82.1726 30.5549 82.4561 29.7667 82.4561 28.7304C82.4561 27.9439 82.2526 27.1971 81.8474 26.6579C81.1578 25.787 80.3048 25.5794 78.8447 25.5794H75.7596H75.7604ZM75.7187 21.4326H78.357C79.1683 21.4326 79.5743 21.4326 79.9796 21.3085C81.0761 20.9761 81.7656 19.9828 81.7656 18.6141C81.7656 16.9972 81.0352 16.2917 79.9796 15.9609C79.5327 15.836 79.0874 15.7955 78.1944 15.7955H75.7187V21.4334V21.4326ZM94.5082 35.8206V15.8774H87.7317V11.8563H106.562L105.223 15.8774H99.216V35.8206H94.5082ZM108.023 35.8206V11.8563H123.282L121.943 15.8774H112.691V21.1853H116.465C119.509 21.1853 121.091 21.9322 122.188 22.8849C123.041 23.6317 124.501 25.2891 124.501 28.5659C124.501 31.7996 123 33.5818 121.741 34.4949C120.28 35.5303 118.738 35.8215 115.612 35.8215H108.024H108.023V35.8206ZM112.69 31.7979H116.22C117.559 31.7979 118.371 31.4662 118.938 30.7194C119.222 30.3473 119.628 29.6823 119.628 28.4393C119.628 27.1962 119.222 26.3245 118.411 25.7026C117.925 25.3304 117.274 25.1237 116.179 25.1237H112.688V31.7979H112.69Z" fill="#718A98"/>
</svg>
