<svg viewBox="0 0 30 30" xmlns="http://www.w3.org/2000/svg">
<path fill-rule="evenodd" clip-rule="evenodd" d="M8.92063 5.43678L3.01447 8.39453L15.0176 8.39732L27.0206 8.4001L21.1446 5.46238C16.6754 3.22803 15.2156 2.51924 15.0476 2.5019C14.8359 2.48001 14.5838 2.60077 8.92063 5.43678ZM2.53144 9.9999C2.72702 10.8348 3.7378 12.399 4.26761 12.6866L4.47007 12.7965H15H25.5299L25.7324 12.6866C26.2622 12.399 27.273 10.8348 27.4686 9.9999L27.5 9.86557H15H2.5L2.53144 9.9999ZM5.43111 18.6828V23.1036H7.65246H9.87381V18.6828V14.262H7.65246H5.43111V18.6828ZM12.8031 18.6828V23.1036H15H17.1969V18.6828V14.262H15H12.8031V18.6828ZM20.1262 18.6828V23.1036H22.3475H24.5689V18.6828V14.262H22.3475H20.1262V18.6828ZM3.84228 24.6375C3.45699 24.8058 2.50186 26.3143 2.50186 26.7544C2.50186 27.0087 2.67048 27.289 2.89115 27.4017C3.08268 27.4994 3.15361 27.5 15 27.5C26.8464 27.5 26.9173 27.4994 27.1088 27.4017C27.3311 27.2882 27.4981 27.0083 27.4981 26.7492C27.4981 26.3866 26.6571 24.9897 26.2619 24.6959L26.124 24.5935L15.0575 24.583C5.94129 24.5744 3.96472 24.584 3.84228 24.6375Z" />
</svg>
