<svg viewBox="0 0 30 30" xmlns="http://www.w3.org/2000/svg">
<path d="M26.3281 8.75H25.9375V6.40625C25.9375 4.21875 21.0938 2.5 15 2.5C8.90625 2.5 4.0625 4.21875 4.0625 6.40625V8.75H3.67188C3.0249 8.75 2.5 9.27441 2.5 9.92188V13.8281C2.5 14.4751 3.0249 15 3.67188 15H4.0625V22.8125C4.0625 23.6753 4.76221 24.375 5.625 24.375V25.9375C5.625 26.8003 6.32471 27.5 7.1875 27.5H8.75C9.61279 27.5 10.3125 26.8003 10.3125 25.9375V24.375H19.6875V25.9375C19.6875 26.8003 20.3872 27.5 21.25 27.5H22.8125C23.6753 27.5 24.375 26.8003 24.375 25.9375V24.375H24.6875C25.4688 24.375 25.9375 23.75 25.9375 23.125V15H26.3281C26.9751 15 27.5 14.4751 27.5 13.8281V9.92188C27.5 9.27441 26.9751 8.75 26.3281 8.75ZM7.96875 22.0312C7.10596 22.0312 6.40625 21.3315 6.40625 20.4688C6.40625 19.606 7.10596 18.9062 7.96875 18.9062C8.83154 18.9062 9.53125 19.606 9.53125 20.4688C9.53125 21.3315 8.83154 22.0312 7.96875 22.0312ZM8.75 16.5625C7.88721 16.5625 7.1875 15.8628 7.1875 15V8.75C7.1875 7.88721 7.88721 7.1875 8.75 7.1875H21.25C22.1128 7.1875 22.8125 7.88721 22.8125 8.75V15C22.8125 15.8628 22.1128 16.5625 21.25 16.5625H8.75ZM22.0312 22.0312C21.1685 22.0312 20.4688 21.3315 20.4688 20.4688C20.4688 19.606 21.1685 18.9062 22.0312 18.9062C22.894 18.9062 23.5938 19.606 23.5938 20.4688C23.5938 21.3315 22.894 22.0312 22.0312 22.0312Z" />
</svg>
