<svg viewBox="0 0 30 30" xmlns="http://www.w3.org/2000/svg">
<path d="M25.35 3.75H4.65C4.15219 3.75 3.75 4.15219 3.75 4.65V25.35C3.75 25.8478 4.15219 26.25 4.65 26.25H25.35C25.8478 26.25 26.25 25.8478 26.25 25.35V4.65C26.25 4.15219 25.8478 3.75 25.35 3.75ZM12.9806 22.1156H11.5519C11.49 22.1156 11.4253 22.0847 11.3859 22.0341L10.3875 20.8106L9.38906 22.0341C9.36959 22.0596 9.34447 22.0802 9.31568 22.0943C9.28689 22.1085 9.25521 22.1158 9.22312 22.1156H7.79437C7.60875 22.1156 7.5075 21.8934 7.63125 21.7472L9.39469 19.5872L7.67344 17.4806C7.5525 17.3344 7.65375 17.1122 7.83937 17.1122H9.27094C9.33281 17.1122 9.3975 17.1431 9.43688 17.1937L10.3931 18.3637L11.3494 17.1937C11.3916 17.1403 11.4506 17.1122 11.5153 17.1122H12.9441C13.1297 17.1122 13.2309 17.3344 13.11 17.4806L11.3859 19.5844L13.1494 21.7444C13.2675 21.8934 13.1663 22.1156 12.9806 22.1156ZM13.2 11.3719C13.2 11.4337 13.1606 11.4844 13.11 11.4844H11.175V13.4166C11.175 13.47 11.1244 13.5094 11.0625 13.5094H9.7125C9.65062 13.5094 9.6 13.47 9.6 13.4194V11.4844H7.665C7.61437 11.4844 7.575 11.4337 7.575 11.3719V10.0219C7.575 9.96 7.61437 9.90937 7.665 9.90937H9.6V7.97438C9.6 7.92375 9.65062 7.88438 9.7125 7.88438H11.0625C11.1244 7.88438 11.175 7.92375 11.175 7.97438V9.90937H13.1072C13.1606 9.90937 13.2 9.96 13.2 10.0219V11.3719ZM22.425 21.75C22.425 21.8119 22.3856 21.8625 22.335 21.8625H16.89C16.8394 21.8625 16.8 21.8119 16.8 21.75V20.4C16.8 20.3381 16.8394 20.2875 16.89 20.2875H22.3322C22.3856 20.2875 22.425 20.3381 22.425 20.4V21.75ZM22.425 18.825C22.425 18.8869 22.3856 18.9375 22.335 18.9375H16.89C16.8394 18.9375 16.8 18.8869 16.8 18.825V17.475C16.8 17.4131 16.8394 17.3625 16.89 17.3625H22.3322C22.3856 17.3625 22.425 17.4131 22.425 17.475V18.825ZM22.425 11.3719C22.425 11.4337 22.3856 11.4844 22.335 11.4844H16.89C16.8394 11.4844 16.8 11.4337 16.8 11.3719V10.0219C16.8 9.96 16.8394 9.90937 16.89 9.90937H22.3322C22.3856 9.90937 22.425 9.96 22.425 10.0219V11.3719Z" />
</svg>
