<svg viewBox="0 0 36 36" xmlns="http://www.w3.org/2000/svg">
<path fill-rule="evenodd" clip-rule="evenodd" d="M18 1C8.61116 1 1 8.61116 1 18C1 27.3888 8.61116 35 18 35C27.3888 35 35 27.3888 35 18C35 8.61116 27.3888 1 18 1ZM0 18C0 8.05887 8.05887 0 18 0C27.9411 0 36 8.05887 36 18C36 27.9411 27.9411 36 18 36C8.05887 36 0 27.9411 0 18ZM11 12.4L12.393 11L18.0001 16.6353L23.6071 11L25.0001 12.4L19.393 18.0353L24.9298 23.6L23.5368 25L18.0001 19.4353L12.4633 25L11.0703 23.6L16.6071 18.0353L11 12.4Z" />
</svg>
