<svg viewBox="0 0 30 30" xmlns="http://www.w3.org/2000/svg">
<path d="M5.97662 17.0576V20.48C5.97662 21.3691 6.45492 22.1973 7.2202 22.6236L13.1989 25.9486C13.9164 26.3505 14.7773 26.3505 15.4947 25.9486L21.4735 22.6236C22.2387 22.1973 22.717 21.3691 22.717 20.48V17.0576L15.4947 21.0768C14.7773 21.4787 13.9164 21.4787 13.1989 21.0768L5.97662 17.0576ZM13.1989 5.29231L3.1188 10.8948C2.29373 11.3576 2.29373 12.5756 3.1188 13.0384L13.1989 18.6409C13.9164 19.0428 14.7773 19.0428 15.4947 18.6409L25.1085 13.2942V20.4922C25.1085 21.1621 25.6466 21.7101 26.3043 21.7101C26.9619 21.7101 27.5 21.1621 27.5 20.4922V12.6852C27.5 12.2346 27.2609 11.8326 26.8782 11.6134L15.4947 5.29231C15.1415 5.10039 14.7472 5 14.3468 5C13.9464 5 13.5522 5.10039 13.1989 5.29231Z" />
</svg>
