<svg viewBox="0 0 30 30" xmlns="http://www.w3.org/2000/svg">
<path fill-rule="evenodd" clip-rule="evenodd" d="M1.57082 3.80957C0.987152 3.93838 0.419358 4.37389 0.162319 4.88992C0.034268 5.14709 0.0332722 5.17244 0.0166947 8.6734L0 12.1979H1.68241C3.02642 12.1979 3.43963 12.2155 3.73673 12.2853L4.10864 12.3726L4.32626 12.2197C4.71808 11.9442 6.17796 10.5372 6.66726 9.96335C7.5847 8.88745 8.38329 7.66343 8.96743 6.43798C9.23648 5.87345 9.83567 4.29198 9.92869 3.90086L9.96454 3.75L5.87763 3.75549C3.62983 3.75856 1.69178 3.78286 1.57082 3.80957ZM11.9781 3.90086C11.6242 5.35686 11.082 6.73026 10.305 8.13854C9.36652 9.83949 8.3195 11.1613 6.73316 12.6475L5.63858 13.673L5.79041 14.0189C6.00744 14.5134 6.04112 15.2782 5.8692 15.8083C5.68163 16.3866 5.20838 16.9905 4.70028 17.2998L4.56485 17.3823L4.83518 17.8582C5.90756 19.746 6.33547 21.4454 6.33823 23.8276C6.3394 24.8179 6.28357 25.6078 6.17837 26.0904L6.14545 26.2413H10.0748H14.0042V14.9956V3.75H13.0095H12.0148L11.9781 3.90086ZM15.9958 14.9956V26.2413H19.9252H23.8546L23.8216 26.0904C23.7168 25.6094 23.6596 24.8212 23.6595 23.855C23.6591 21.4624 24.0879 19.754 25.164 17.8596L25.4336 17.3851L25.2697 17.2738C24.721 16.9011 24.3236 16.3955 24.1387 15.8347C23.9367 15.2224 23.9982 14.3618 24.2804 13.8511L24.3823 13.6666L23.5682 12.9374C20.7368 10.4015 18.8579 7.34032 18.0219 3.90086L17.9852 3.75H16.9905H15.9958V14.9956ZM20.0713 3.90086C20.1643 4.29198 20.7635 5.87345 21.0326 6.43798C21.6173 7.66463 22.4164 8.89145 23.3196 9.94882C23.8205 10.5353 25.2789 11.9421 25.6737 12.2197L25.8914 12.3726L26.2633 12.2853C26.5604 12.2155 26.9736 12.1979 28.3176 12.1979H30L29.9833 8.6734C29.9668 5.18302 29.9654 5.14638 29.8389 4.89267C29.6854 4.58481 29.3452 4.22111 29.0443 4.04321C28.5561 3.75461 28.4786 3.75 24.0954 3.75H20.0355L20.0713 3.90086ZM0.00410044 14.9956V15.9282H1.60257C3.14381 15.9282 3.21041 15.9238 3.46218 15.8048C3.82841 15.6317 3.99875 15.3419 3.97221 14.9372C3.94814 14.57 3.78564 14.3283 3.45761 14.1715C3.24767 14.0712 3.10878 14.0631 1.61733 14.0631H0.00410044V14.9956ZM26.5299 14.1743C26.1787 14.3479 26.0419 14.5783 26.0419 14.9956C26.0419 15.4264 26.1928 15.6661 26.5633 15.8237C26.7784 15.9151 26.9697 15.9259 28.3997 15.927L29.9959 15.9282V14.9956V14.0631L28.3704 14.0655C26.878 14.0677 26.7272 14.0766 26.5299 14.1743ZM0.0166947 21.3179C0.0333307 24.827 0.0339751 24.8436 0.163315 25.1035C0.356738 25.492 0.767427 25.8726 1.19124 26.0559C1.55635 26.2138 1.55676 26.2139 2.94792 26.2319L4.3395 26.25L4.27553 26.0948C4.22884 25.9814 4.23089 25.7548 4.28309 25.2539C4.38495 24.2775 4.32907 22.5071 4.16968 21.6607C3.9376 20.428 3.42188 19.2082 2.65638 18.0813L2.46079 17.7933H1.23037H0L0.0166947 21.3179ZM27.3399 18.0813C26.5759 19.2136 26.0613 20.4336 25.8303 21.6607C25.6709 22.5071 25.615 24.2775 25.7169 25.2539C25.7681 25.7444 25.7707 25.9825 25.7262 26.0904L25.6641 26.2413H26.9097C28.2577 26.2413 28.6363 26.1893 29.0443 25.9481C29.3452 25.7702 29.6854 25.4065 29.8389 25.0986C29.9654 24.8449 29.9668 24.8083 29.9833 21.3179L30 17.7933H28.7671H27.5342L27.3399 18.0813Z" />
</svg>
