<svg viewBox="0 0 30 30" xmlns="http://www.w3.org/2000/svg">
<path fill-rule="evenodd" clip-rule="evenodd" d="M5.398 2.59065C5.28133 2.6497 5.1659 2.76312 5.10313 2.88026C5.00826 3.05738 5 3.16709 5 4.24826V5.42365L9.03846 5.41027C13.0475 5.39703 13.0787 5.39615 13.3153 5.29196C13.6208 5.15744 13.9547 4.83905 14.0938 4.54939C14.2455 4.23394 14.2455 3.67797 14.0938 3.36252C13.9547 3.07286 13.6208 2.75448 13.3153 2.61996C13.079 2.51591 13.0435 2.51489 9.33333 2.50424C5.68446 2.49378 5.58487 2.49598 5.398 2.59065ZM5 11.0076C5 13.6063 5.01933 15.2256 5.05236 15.3914C5.22703 16.2687 5.97082 16.9771 6.89185 17.1435C7.0499 17.1721 8.01969 17.1934 9.16082 17.1934H11.1538V12.0401V6.88675H8.07692H5V11.0076ZM12.6923 15.728V17.1934H18.8462H25V16.7604C25 16.5223 24.9765 16.2092 24.9476 16.0646C24.773 15.1873 24.0292 14.4788 23.1082 14.3125C22.9321 14.2807 20.9963 14.2626 17.7623 14.2626H12.6923V15.728ZM6.53867 19.941C6.53887 21.3487 6.59728 21.8686 6.82774 22.5141C7.01882 23.0493 7.38077 23.6815 7.75272 24.1295L8.07692 24.5201V25.7189C8.07692 26.824 8.08497 26.9328 8.18015 27.1105C8.24662 27.2346 8.35554 27.3384 8.48585 27.4017C8.68579 27.4988 8.77364 27.5 15.7692 27.5C22.7648 27.5 22.8527 27.4988 23.0526 27.4017C23.2802 27.2911 23.4615 27.0097 23.4615 26.7673C23.4615 26.5249 23.2802 26.2435 23.0526 26.1329C22.8664 26.0425 22.7518 26.0346 21.6174 26.0346H20.3846V25.5996V25.1646L20.7954 24.9353C22.9073 23.756 24.429 21.6426 24.8483 19.3065C24.9035 18.9986 24.9487 18.727 24.9487 18.7028C24.9487 18.6768 21.169 18.6588 15.7436 18.6588H6.53846L6.53867 19.941Z" />
</svg>
