<svg viewBox="0 0 31 30" xmlns="http://www.w3.org/2000/svg">
<path fill-rule="evenodd" clip-rule="evenodd" d="M14.8651 5.04461C13.3876 5.23554 12.1039 6.3795 11.7371 7.8322C11.5371 8.62397 11.562 10.2563 11.786 11.0351C11.9948 11.7611 12.4284 12.4787 12.9561 12.9717C13.1346 13.1384 16.0113 15.3366 19.3489 17.8567C22.6866 20.3768 25.4173 22.4483 25.4173 22.46C25.4173 22.4718 20.9422 22.4814 15.4727 22.4814H5.528L9.0607 19.7551C11.0037 18.2556 12.6327 16.9916 12.6808 16.9462C12.764 16.8676 12.7323 16.8178 12.0071 15.8863L11.2461 14.9088L7.62076 17.7053C5.62678 19.2433 3.89929 20.5919 3.7819 20.7021C3.18599 21.2614 2.8895 22.1542 3.03777 22.943C3.22806 23.9553 4.10379 24.8031 5.11935 24.9582C5.35668 24.9944 8.59157 25.0063 15.72 24.9969L25.9792 24.9835L26.2502 24.8801C26.7333 24.696 26.9488 24.5626 27.2546 24.2585C27.8763 23.6402 28.1382 22.7358 27.9291 21.9297C27.8165 21.4957 27.5527 21.0296 27.2605 20.7484C27.12 20.6132 24.345 18.4955 21.0939 16.0425C13.9591 10.6592 14.6545 11.1981 14.4571 10.8991C14.1719 10.467 14.1322 10.2729 14.1334 9.31871C14.1346 8.38319 14.1788 8.19215 14.465 7.88802C14.9079 7.41715 15.7714 7.398 16.2497 7.84842C16.5517 8.13288 16.5971 8.29321 16.6238 9.16946L16.6482 9.9711H17.894H19.1397L19.1306 9.09659C19.1232 8.39601 19.1015 8.14479 19.0213 7.83341C18.637 6.34063 17.3695 5.23316 15.8248 5.04058C15.3847 4.98568 15.3189 4.98597 14.8651 5.04461Z" />
</svg>
