<svg viewBox="0 0 30 30" xmlns="http://www.w3.org/2000/svg">
<path fill-rule="evenodd" clip-rule="evenodd" d="M2.5 15V27.5H5.625H8.75V26.476V25.4519L6.6624 25.4386L4.5748 25.4252L4.56163 21.7751L4.54851 18.125H7.69944H10.8504V18.6373V19.1496H11.875H12.8996V17.5871V16.0246H8.75H4.60041V10.3125V4.60041H10.3125H16.0246V6.1373V7.67418H15.5123H15V8.72439V9.77459H16.5625H18.125V7.16153V4.54851L21.7751 4.56163L25.4252 4.5748L25.4386 6.6624L25.4519 8.75H23.8889H22.3258V9.8002V10.8504H23.8883H25.4508V13.4375V16.0246H21.7879H18.125V14.461V12.8975L17.0876 12.9113L16.0502 12.9252L16.0372 19.188L16.0242 25.4508H13.9496H11.875V26.4754V27.5H15H18.125V22.8125V18.125H22.8125H27.5V10.3125V2.5H15H2.5V15Z" />
</svg>
