<svg viewBox="0 0 30 30" xmlns="http://www.w3.org/2000/svg">
<path fill-rule="evenodd" clip-rule="evenodd" d="M12.583 2.5319C9.82022 2.69835 7.14273 3.10983 4.47266 3.77835C3.3052 4.07064 3.08976 4.1691 2.92847 4.48403L2.80762 4.71996V9.3354C2.80762 11.9478 2.82808 13.9508 2.85478 13.9508C2.88066 13.9508 2.93309 13.9138 2.97122 13.8686C3.10663 13.708 4.15399 13.0548 4.64528 12.8245C4.91958 12.6959 5.36582 12.5135 5.63689 12.4189L6.1298 12.2471L6.14715 11.2073L6.16455 10.1674L6.34137 9.81414C6.54316 9.41096 6.82772 9.14002 7.26562 8.93423L7.56104 8.79543H10.166H12.771L13.0729 8.93476C13.4972 9.13066 13.7886 9.41043 13.9924 9.81757C14.1658 10.1641 14.1676 10.1759 14.1854 11.0545L14.2034 11.9416H15H15.7966L15.8146 11.0559C15.8313 10.229 15.8419 10.1505 15.974 9.87304C16.1732 9.45506 16.4572 9.16836 16.8711 8.96781L17.2267 8.79543H19.8329H22.439L22.7449 8.93661C23.1355 9.11686 23.5094 9.48509 23.6915 9.86902C23.8272 10.155 23.8358 10.2231 23.8618 11.2169L23.8892 12.2637L24.3457 12.4153C25.2104 12.7026 25.8885 13.0483 26.6704 13.6005L27.0867 13.8946L27.0724 9.22061C27.0583 4.59343 27.057 4.54515 26.9474 4.40064C26.7425 4.1305 26.579 4.06403 25.3931 3.76856C23.016 3.17641 20.8526 2.81812 18.3631 2.60439C17.2621 2.50985 13.6921 2.46512 12.583 2.5319ZM7.8334 10.4383C7.76471 10.506 7.74902 10.6595 7.74902 11.2641V12.0067L7.86987 11.9749C7.93631 11.9574 9.02401 11.9427 10.2869 11.9423L12.583 11.9416V11.2359C12.583 10.6195 12.5706 10.5192 12.4848 10.4428C12.3967 10.3643 12.1559 10.3553 10.1522 10.3553C8.19257 10.3553 7.90747 10.3655 7.8334 10.4383ZM17.5014 10.4383C17.4331 10.5057 17.417 10.6565 17.417 11.2315V11.9416L19.7131 11.9423C20.976 11.9427 22.0636 11.9574 22.1301 11.9749L22.251 12.0067V11.2685C22.251 10.6205 22.239 10.5196 22.1527 10.4428C22.0647 10.3643 21.8239 10.3553 19.8202 10.3553C17.8605 10.3553 17.5754 10.3655 17.5014 10.4383ZM7.60325 13.585C5.40787 13.8418 3.36605 15.1862 2.20863 17.1371C1.81047 17.8084 1.43643 18.8631 1.32756 19.6218L1.29152 19.8729H15H28.7085L28.6724 19.6218C28.6131 19.2083 28.3823 18.3986 28.1945 17.9451C27.4173 16.0684 25.6756 14.4844 23.727 13.8819C22.6098 13.5366 23.225 13.5606 15.2417 13.5497C11.2537 13.5442 7.81632 13.5601 7.60325 13.585ZM1.25 23.5531C1.25 25.8673 1.25279 25.8881 1.5923 26.1266C1.71712 26.2142 1.83609 26.2445 2.05566 26.2445C2.27523 26.2445 2.3942 26.2142 2.51903 26.1266C2.78474 25.94 2.86133 25.7191 2.86133 25.1393V24.6318H15H27.1387V25.1393C27.1387 25.7191 27.2153 25.94 27.481 26.1266C27.7154 26.2911 28.1733 26.2911 28.4077 26.1266C28.7472 25.8881 28.75 25.8673 28.75 23.5531V21.4592H15H1.25V23.5531Z" />
</svg>
