<svg viewBox="0 0 31 30" xmlns="http://www.w3.org/2000/svg">
<path fill-rule="evenodd" clip-rule="evenodd" d="M4.82839 1.35479C4.73423 1.4122 4.63154 1.50717 4.60012 1.56592C4.56069 1.63956 4.54297 3.56467 4.54297 7.77237V13.8721H6.28417H8.02542L8.61539 13.5767C11.1989 12.2834 13.1511 10.0483 14.0996 7.29714C14.5619 5.95673 14.6904 4.98688 14.6927 2.82109L14.6943 1.25005L9.84692 1.25027C5.14185 1.25043 4.99446 1.25354 4.82839 1.35479ZM16.3057 2.79456C16.3057 4.48812 16.3762 5.32767 16.5966 6.25531C17.3529 9.43924 19.4718 12.1186 22.3878 13.5784L22.9746 13.8721H24.7158H26.457V7.76104C26.457 2.31025 26.448 1.63698 26.3732 1.53026C26.1694 1.23926 26.3706 1.25005 21.1423 1.25005H16.3057V2.79456ZM2.05954 15.5675C1.79512 15.7109 1.75 15.8827 1.75 16.7456C1.75 17.583 1.7913 17.7567 2.03021 17.924C2.13785 17.9994 3.48938 18.0078 15.5 18.0078C27.5106 18.0078 28.8622 17.9994 28.9698 17.924C29.2087 17.7567 29.25 17.583 29.25 16.7456C29.25 15.8744 29.2046 15.7071 28.9295 15.5649C28.7899 15.4927 27.2597 15.4837 15.4893 15.4856C3.84537 15.4875 2.18839 15.4975 2.05954 15.5675ZM3.62988 22.2778V24.9365H4.83838H6.04688V22.2778V19.6192H4.83838H3.62988V22.2778ZM10.7197 22.2768V24.9365H11.9556H13.1915L13.1775 22.2913L13.1636 19.646L11.9417 19.6316L10.7197 19.6171V22.2768ZM17.8454 19.655C17.8257 19.6746 17.8096 20.871 17.8096 22.3137V24.9365H19.0449H20.2803V22.2778V19.6192H19.0807C18.421 19.6192 17.8651 19.6353 17.8454 19.655ZM24.9531 22.2778V24.9365H26.1616H27.3701V22.2778V19.6192H26.1616H24.9531V22.2778ZM3.62988 27.4099C3.62988 28.3651 3.67027 28.5237 3.95038 28.6685C4.08976 28.7406 5.42227 28.75 15.5 28.75C25.5777 28.75 26.9102 28.7406 27.0496 28.6685C27.3297 28.5237 27.3701 28.3651 27.3701 27.4099V26.5479H15.5H3.62988V27.4099Z" />
</svg>
