<svg viewBox="0 0 30 30" xmlns="http://www.w3.org/2000/svg">
<path fill-rule="evenodd" clip-rule="evenodd" d="M8.79471 3.81566C6.37209 4.16644 4.32238 5.62248 3.25984 7.74753C2.45619 9.35475 2.28895 11.1884 2.76326 13.1921C3.23224 15.1734 4.36176 16.9624 6.5659 19.215C7.47118 20.1402 9.73424 22.1548 13.057 24.9935C14.5414 26.2616 14.5234 26.25 14.9996 26.25C15.4589 26.25 15.4826 26.2361 16.5206 25.3556C19.8597 22.5234 22.7719 19.8245 24.0712 18.3579C26.9029 15.162 27.9387 12.3232 27.3336 9.41721C26.9357 7.50661 25.607 5.70373 23.8671 4.7138C21.2413 3.21974 17.726 3.49421 15.3079 5.38204L15.0045 5.61883L14.5971 5.31388C13.7648 4.69079 12.595 4.15158 11.604 3.9342C10.7309 3.74266 9.62211 3.69587 8.79471 3.81566ZM16.5141 11.2707V12.7566H18.0287H19.5433V14.2665V15.7764H18.0287H16.5141V17.2624V18.7483H14.9996H13.485V17.2624V15.7764H11.9704H10.4559V14.2665V12.7566H11.9704H13.485V11.2707V9.78472H14.9996H16.5141V11.2707Z" />
</svg>
