<svg viewBox="0 0 30 30" xmlns="http://www.w3.org/2000/svg">
<path fill-rule="evenodd" clip-rule="evenodd" d="M11.0139 2.5431C10.8164 2.63548 10.7962 2.76707 10.8524 3.59507C10.9137 4.49841 10.8832 4.67189 10.6143 4.94719C10.4443 5.12119 10.3036 5.1761 8.02563 5.9573C6.70068 6.41169 5.5332 6.8246 5.43115 6.8749C4.7645 7.2035 4.50439 7.9973 4.84658 8.65895C5.14302 9.23223 5.64746 9.53644 7.08984 10.0119C7.53296 10.1579 7.946 10.3093 8.00771 10.3483C8.17314 10.4529 8.31016 10.6975 8.31035 10.8887C8.31045 10.9811 7.99194 13.2083 7.60254 15.8381C7.21313 18.4679 6.89453 20.6566 6.89453 20.7018C6.89453 20.7641 7.04043 20.8359 7.49268 20.9965C8.15205 21.2307 8.97466 21.4823 9.65962 21.6594L10.1054 21.7746L10.1391 21.3431C10.2579 19.8211 10.864 18.5485 11.9535 17.5329C12.6721 16.863 13.5445 16.4014 14.585 16.1405C15.0832 16.0156 15.1857 16.0061 16.001 16.0094C16.7833 16.0125 16.9313 16.0262 17.3479 16.1339C18.5414 16.4426 19.3976 16.9231 20.2053 17.7375C21.0315 18.5705 21.5991 19.677 21.7428 20.7348C21.7736 20.9618 21.8059 21.1725 21.8146 21.2032C21.8311 21.2618 22.2952 21.1155 23.2291 20.7571C23.7956 20.5397 24.8712 20.0855 24.9239 20.0415C24.98 19.9946 23.7509 11.8834 23.6554 11.6703C23.6067 11.5616 23.495 11.4374 23.3797 11.3637L23.1859 11.2397L19.3715 11.2161C15.8011 11.194 15.5485 11.1871 15.4227 11.1074C15.1609 10.9416 15.0981 10.7712 15.0974 10.2254C15.0965 9.5212 15.0139 8.29727 14.9248 7.6703C14.6691 5.87007 14.0792 4.56824 13.1072 3.65951C12.6553 3.23712 12.2755 2.98291 11.672 2.69913C11.1912 2.47299 11.1729 2.46865 11.0139 2.5431ZM2.70649 20.6836C2.67236 20.6969 2.61191 20.7685 2.57222 20.8427C2.51377 20.9519 2.5 21.2174 2.5 22.2333C2.5 23.0512 2.5186 23.5226 2.55337 23.5853C2.6792 23.8126 5.03677 24.7098 6.69922 25.1633C12.9759 26.8752 20.1067 26.5508 25.9604 24.287C27.0134 23.8797 27.3971 23.691 27.4512 23.5535C27.4792 23.4822 27.5 22.8982 27.5 22.1787V20.9279L27.3573 20.79C27.2729 20.7084 27.1628 20.652 27.0879 20.652C27.0183 20.652 26.7145 20.7717 26.4127 20.9179C21.241 23.4248 16.4441 24.2521 11.5426 23.4823C9.0085 23.0843 6.33945 22.2262 3.77598 20.9854C3.123 20.6694 2.90293 20.6073 2.70649 20.6836Z" />
</svg>
