<svg viewBox="0 0 30 30" xmlns="http://www.w3.org/2000/svg">
<path fill-rule="evenodd" clip-rule="evenodd" d="M15.4114 27.3734L15.4143 27.372L15.4214 27.3672L15.4429 27.3512L15.5271 27.2922C15.5986 27.2408 15.7029 27.1658 15.8343 27.0672C16.0971 26.8713 16.47 26.5831 16.915 26.213C18.0832 25.2422 19.1754 24.1884 20.1829 23.0601C22.5457 20.4031 25 16.6107 25 12.2752C25 9.68487 23.9471 7.19871 22.0729 5.36534C21.1465 4.45795 20.0446 3.73765 18.8308 3.2459C17.6169 2.75415 16.315 2.50065 15 2.5C13.685 2.50056 12.3832 2.75395 11.1693 3.24558C9.95547 3.73721 8.85361 4.45738 7.92714 5.36464C6.05102 7.20221 4.99874 9.68673 5 12.2759C5 16.6107 7.45429 20.4031 9.81714 23.0601C10.8246 24.1884 11.9168 25.2422 13.085 26.213C13.5307 26.5831 13.9029 26.8713 14.1657 27.0672C14.2946 27.1638 14.4249 27.2587 14.5564 27.3519L14.5793 27.3672L14.5857 27.372L14.5886 27.3734C14.835 27.5422 15.165 27.5422 15.4114 27.3734ZM18.5714 12.2224C18.5714 13.1433 18.1952 14.0265 17.5254 14.6777C16.8556 15.3289 15.9472 15.6947 15 15.6947C14.0528 15.6947 13.1444 15.3289 12.4746 14.6777C11.8048 14.0265 11.4286 13.1433 11.4286 12.2224C11.4286 11.3015 11.8048 10.4183 12.4746 9.76714C13.1444 9.11596 14.0528 8.75013 15 8.75013C15.9472 8.75013 16.8556 9.11596 17.5254 9.76714C18.1952 10.4183 18.5714 11.3015 18.5714 12.2224Z" />
</svg>
