<svg viewBox="0 0 30 30" xmlns="http://www.w3.org/2000/svg">
<path fill-rule="evenodd" clip-rule="evenodd" d="M2.5 3.74477V4.98954L3.75369 5.00258L5.00737 5.01562L7.13562 9.51013C8.30614 11.9821 9.31461 14.1145 9.37664 14.2488L9.4894 14.493L8.72628 15.8801C7.54897 18.0201 7.51235 18.1084 7.51669 18.7952C7.52397 19.941 8.40288 20.9958 9.52691 21.2077C9.69784 21.2399 12.4566 21.2573 17.4018 21.2573H25.0137V20.0117V18.7661H17.7436H10.4736L10.3402 18.6611C10.2333 18.577 10.2124 18.5288 10.2346 18.4176C10.2498 18.3414 10.5101 17.829 10.8131 17.2792L11.3638 16.2793L16.2475 16.2648L21.1312 16.2504L21.4403 16.1387C22.0112 15.9323 22.4311 15.6146 22.7408 15.1547C23.0424 14.7068 27.3416 6.88392 27.4312 6.6199C27.5296 6.33005 27.5233 6.12015 27.407 5.80924C27.2959 5.51225 27.0346 5.2327 26.7474 5.1035C26.5621 5.02016 26.0668 5.01435 17.1535 4.9912L7.75502 4.96677L7.16912 3.73339L6.58328 2.5H4.54166H2.5V3.74477ZM9.27843 22.6216C8.47892 22.8773 7.80893 23.5724 7.60563 24.3571C7.51313 24.7141 7.50903 25.3014 7.59674 25.6291C7.85308 26.5866 8.68604 27.3368 9.64641 27.4752C10.9727 27.6663 12.2395 26.7328 12.4645 25.3986C12.6711 24.1733 11.8917 22.9673 10.659 22.6052C10.2992 22.4995 9.63567 22.5073 9.27843 22.6216ZM21.7806 22.6216C20.9811 22.8773 20.3111 23.5724 20.1078 24.3571C20.0153 24.7141 20.0112 25.3014 20.0989 25.6291C20.3553 26.5866 21.1882 27.3368 22.1486 27.4752C23.4748 27.6663 24.7417 26.7328 24.9667 25.3986C25.1733 24.1733 24.3939 22.9673 23.1612 22.6052C22.8013 22.4995 22.1378 22.5073 21.7806 22.6216Z" />
</svg>
