<svg viewBox="0 0 30 30" xmlns="http://www.w3.org/2000/svg">
<path fill-rule="evenodd" clip-rule="evenodd" d="M7.58138 2.58938C7.03931 2.72947 6.65552 2.95108 6.2326 3.36816C5.80364 3.79126 5.58381 4.16599 5.44069 4.71774C5.13206 5.90809 5.64259 7.20546 6.69221 7.89783C7.21804 8.24473 7.66433 8.37642 8.31421 8.37642C8.73158 8.37642 8.90699 8.35292 9.20313 8.25724C10.6821 7.77953 11.5707 6.19471 11.1877 4.71774C11.1339 4.51025 11.0177 4.20448 10.9294 4.03831C10.7189 3.64208 10.1181 3.0495 9.71638 2.84191C9.06115 2.50332 8.27454 2.41027 7.58138 2.58938ZM20.9524 2.58938C20.4103 2.72947 20.0265 2.95108 19.6036 3.36816C19.1746 3.79126 18.9548 4.16599 18.8117 4.71774C18.503 5.90809 19.0136 7.20546 20.0632 7.89783C20.589 8.24473 21.0353 8.37642 21.6852 8.37642C22.1026 8.37642 22.278 8.35292 22.5741 8.25724C24.053 7.77953 24.9417 6.19471 24.5587 4.71774C24.5049 4.51025 24.3887 4.20448 24.3004 4.03831C24.0899 3.64208 23.4891 3.0495 23.0874 2.84191C22.4321 2.50332 21.6455 2.41027 20.9524 2.58938ZM9.01242 8.55314C7.74971 8.69752 6.49942 9.3012 5.58841 10.2062C4.38562 11.4012 3.7505 13.0134 3.75 14.8728C3.74955 16.6348 4.33887 18.102 5.74129 19.8305C6.43133 20.681 9.0199 23.1675 9.45372 23.3964C9.51453 23.4285 9.69395 23.4548 9.85247 23.4548C10.7018 23.4548 11.2853 22.9037 11.3269 22.0623C11.3544 21.5074 11.1985 21.2137 10.5823 20.6598C9.77269 19.932 8.71232 18.8923 8.29188 18.414C7.25112 17.2303 6.8176 16.4448 6.73445 15.592L6.69984 15.2367L7.44455 15.2501L8.18927 15.2635L8.22453 15.5067C8.27836 15.8784 8.60912 16.4779 9.07953 17.0561C9.48744 17.5575 10.8392 18.9277 11.3629 19.3706L11.6137 19.5825L12.0563 19.371C12.5706 19.1252 13.1188 18.9425 13.7121 18.819C14.3009 18.6966 15.6964 18.6981 16.2861 18.8218C16.878 18.946 17.5331 19.1624 17.9956 19.3865L18.3916 19.5783L18.5899 19.4168C19.0213 19.0652 20.5265 17.5397 20.9239 17.0512C21.3906 16.4774 21.7212 15.8775 21.7749 15.5067L21.8101 15.2635L22.5549 15.2501L23.2996 15.2367L23.265 15.592C23.1826 16.4361 22.7311 17.2552 21.709 18.4145C21.2898 18.8899 20.0994 20.0561 19.3677 20.7083C18.8434 21.1756 18.6643 21.4989 18.6643 21.9788C18.6643 22.4428 18.7806 22.7357 19.0832 23.0342C19.4101 23.3567 19.7212 23.4663 20.2183 23.4344C20.4275 23.421 20.6456 23.3739 20.7543 23.3185C21.0108 23.1881 22.5271 21.7766 23.3071 20.9423C24.4433 19.7271 25.0584 18.9021 25.5404 17.9471C26.0337 16.9696 26.2503 16.0387 26.25 14.8972C26.2498 13.7651 26.0492 12.8202 25.6187 11.9226C24.6821 9.9692 22.9582 8.75643 20.8118 8.54078C19.7886 8.43796 18.8279 8.60887 17.8967 9.05941C16.8965 9.54342 16.0681 10.2765 15.3846 11.2827C15.193 11.5648 15.0198 11.7956 14.9997 11.7956C14.9796 11.7956 14.7994 11.5538 14.5992 11.2583C13.261 9.28293 11.23 8.29949 9.01242 8.55314ZM15.6187 12.8703C16.1842 12.9875 16.6523 13.244 17.0796 13.6711C17.5079 14.0992 17.7329 14.4828 17.8732 15.024C18.0519 15.7132 17.9591 16.4625 17.6149 17.1106C17.4044 17.5068 16.8036 18.0994 16.4019 18.307C16.0073 18.5108 15.419 18.6582 14.9997 18.6582C14.5782 18.6582 13.9899 18.5102 13.5975 18.3053C13.1924 18.0938 12.5914 17.5021 12.384 17.1106C12.1776 16.7208 12.0284 16.1404 12.0284 15.7276C12.0284 15.3147 12.1776 14.7344 12.384 14.3446C12.6167 13.9052 13.2027 13.3457 13.6663 13.1203C14.2974 12.8134 14.9441 12.7306 15.6187 12.8703ZM14.5209 14.3496C13.2107 14.8116 13.1904 16.6152 14.49 17.0948C15.1957 17.3552 15.988 17.0431 16.3214 16.3735C16.5015 16.0117 16.516 15.4849 16.3553 15.1389C16.0355 14.4504 15.2247 14.1015 14.5209 14.3496ZM14.2073 20.206C13.6769 20.2929 12.5731 20.6641 12.5731 20.7555C12.5731 20.7756 12.6202 20.922 12.6778 21.0806C12.8245 21.4852 12.8607 22.2853 12.7517 22.713C12.5659 23.4416 12.0351 24.1419 11.3757 24.5282C11.1899 24.6371 11.0379 24.7313 11.0379 24.7377C11.0379 24.7441 11.4669 25.1128 11.9912 25.557C12.5155 26.0013 13.1442 26.5354 13.3881 26.7439C14.1768 27.418 14.9033 27.6302 15.7198 27.425C16.2497 27.2918 16.5013 27.1162 17.8497 25.9388L19.1611 24.7936L18.7421 24.5796C18.0068 24.2041 17.4509 23.5097 17.2477 22.713C17.1387 22.2853 17.1749 21.4852 17.3216 21.0806C17.3792 20.922 17.4263 20.7766 17.4263 20.7576C17.4263 20.6631 16.5503 20.3546 15.9724 20.2455C15.6153 20.1781 14.5264 20.1537 14.2073 20.206Z" />
</svg>
