<svg viewBox="0 0 18 18" xmlns="http://www.w3.org/2000/svg">
<path d="M9 16C7.21111 16 5.65244 15.4068 4.324 14.2204C2.99504 13.0346 2.23333 11.5537 2.03889 9.77778H3.63333C3.81481 11.1259 4.41422 12.2407 5.43156 13.1222C6.44941 14.0037 7.63889 14.4444 9 14.4444C10.5167 14.4444 11.8031 13.9161 12.8593 12.8593C13.9161 11.8031 14.4444 10.5167 14.4444 9C14.4444 7.48333 13.9161 6.19663 12.8593 5.13989C11.8031 4.08367 10.5167 3.55556 9 3.55556C8.10556 3.55556 7.26944 3.76296 6.49167 4.17778C5.71389 4.59259 5.05926 5.16296 4.52778 5.88889L6.66667 5.88889V7.44444L2 7.44444L2 2.77778H3.55556L3.55556 4.60556C4.21667 3.77593 5.02374 3.13426 5.97678 2.68056C6.9293 2.22685 7.93704 2 9 2C9.97222 2 10.883 2.18459 11.7323 2.55378C12.5811 2.92348 13.32 3.42256 13.949 4.051C14.5774 4.67996 15.0765 5.41885 15.4462 6.26767C15.8154 7.117 16 8.02778 16 9C16 9.97222 15.8154 10.8827 15.4462 11.7316C15.0765 12.5809 14.5774 13.3198 13.949 13.9482C13.32 14.5772 12.5811 15.0765 11.7323 15.4462C10.883 15.8154 9.97222 16 9 16Z" />
</svg>
