<svg viewBox="0 0 30 30" xmlns="http://www.w3.org/2000/svg">
<path d="M17.6565 5C19.1011 5 20.3752 5.27619 21.4787 5.82857C22.6023 6.38095 23.4651 7.15238 24.067 8.14286C24.689 9.13333 25 10.2762 25 11.5714C25 12.8667 24.689 14.0095 24.067 15C23.4651 15.9905 22.6023 16.7619 21.4787 17.3143C20.3752 17.8476 19.1011 18.1143 17.6565 18.1143H12.1489V19.6286H17.5361V22.3143H12.1489V25H8.50722V22.3143H6.25V19.6286H8.50722V18.1143H6.25V15.2571H8.50722V5H17.6565ZM17.4458 15.2571C18.6697 15.2571 19.6228 14.9429 20.305 14.3143C21.0072 13.6667 21.3583 12.7905 21.3583 11.6857C21.3583 10.581 21.0072 9.71429 20.305 9.08571C19.6228 8.4381 18.6697 8.11429 17.4458 8.11429H12.1188V15.2571H17.4458Z" />
</svg>
