<svg viewBox="0 0 30 30" xmlns="http://www.w3.org/2000/svg">
<path fill-rule="evenodd" clip-rule="evenodd" d="M13.8328 2.52903C9.58442 2.9388 5.78985 5.51102 3.86698 9.28459C3.18695 10.6192 2.78515 11.9061 2.56529 13.4535C2.46783 14.1397 2.48197 15.9149 2.59107 16.68C2.78481 18.0387 3.18568 19.3261 3.80006 20.5629C5.01897 23.0166 6.96621 24.9621 9.42669 26.1847C13.4153 28.1666 18.1292 27.8941 21.8495 25.4665C23.3042 24.5173 24.6828 23.1102 25.6239 21.6139C25.9816 21.0452 26.5216 19.9397 26.7669 19.2742C27.0141 18.6034 27.3023 17.4394 27.4092 16.68C27.5175 15.9108 27.5321 14.1312 27.4357 13.4535C27.1469 11.4233 26.5026 9.695 25.433 8.08085C24.9782 7.39439 24.5239 6.84055 23.8909 6.20086C21.9397 4.22877 19.5125 3.00567 16.7371 2.59595C16.1386 2.50761 14.4567 2.46885 13.8328 2.52903ZM10.7084 9.08787C11.1747 9.22745 11.6677 9.89807 11.8763 10.6767C12.0202 11.2136 12.0225 12.224 11.881 12.7446C11.665 13.5391 11.3284 14.0575 10.885 14.2783C10.4204 14.5096 10.0277 14.4288 9.61823 14.0176C9.32425 13.7223 9.09284 13.2966 8.95062 12.7893C8.8268 12.3476 8.82538 11.1407 8.94818 10.6914C9.17934 9.84528 9.58834 9.28024 10.1024 9.09667C10.3269 9.0165 10.4633 9.01449 10.7084 9.08787ZM20.1147 9.19889C20.5047 9.42725 20.8608 9.98944 21.0448 10.6669C21.1675 11.1189 21.1938 12.0576 21.0971 12.5343C20.6172 14.9012 18.7361 15.0498 18.125 12.769C18.0424 12.4608 18.0202 12.2382 18.0202 11.718C18.0202 10.987 18.1093 10.5429 18.3605 10.0213C18.5248 9.68019 19.0171 9.16854 19.2566 9.08993C19.5042 9.00868 19.869 9.05502 20.1147 9.19889ZM9.30532 17.4411C10.2283 17.764 11.9054 18.0939 13.288 18.2246C14.192 18.3101 16.3354 18.2968 17.2752 18.1999C18.6257 18.0607 20.0404 17.7784 20.9652 17.4636C21.5814 17.2539 21.9668 17.3315 22.1604 17.7043L22.2561 17.8886L22.1253 18.405C21.538 20.7224 19.4509 22.4725 16.6848 22.9672C15.9012 23.1073 14.5766 23.1187 13.8048 22.992C12.1477 22.72 10.7493 22.0416 9.71505 21.008C8.95336 20.2469 8.44853 19.3805 8.20611 18.4184C8.07798 17.9099 8.07759 17.8453 8.20112 17.6427C8.38737 17.3375 8.79603 17.2629 9.30532 17.4411Z" />
</svg>
