<svg viewBox="0 0 30 30" xmlns="http://www.w3.org/2000/svg">
<path d="M21.3945 13.7437H27.5C27.3019 11.774 26.6388 9.87945 25.5653 8.21608C24.4781 8.73593 23.5318 9.5094 22.8059 10.4714C22.0801 11.4333 21.596 12.5556 21.3945 13.7437ZM8.60553 13.7437C8.40398 12.5556 7.91991 11.4333 7.19407 10.4714C6.46822 9.5094 5.52186 8.73593 4.43467 8.21608C3.3612 9.87945 2.69812 11.774 2.5 13.7437H8.60553ZM18.8568 13.7437C19.0534 12.1744 19.6178 10.6738 20.5042 9.36392C21.3905 8.05407 22.5736 6.97207 23.9573 6.20603C21.9042 4.10594 19.1784 2.79417 16.2563 2.5V13.7437H18.8568ZM11.1432 13.7437H13.7437V2.5C10.8208 2.79144 8.09412 4.10364 6.04271 6.20603C7.42636 6.97207 8.60952 8.05407 9.49585 9.36392C10.3822 10.6738 10.9466 12.1744 11.1432 13.7437ZM18.8568 16.2563H16.2563V27.5C19.1792 27.2086 21.9059 25.8964 23.9573 23.794C22.5736 23.0279 21.3905 21.9459 20.5042 20.6361C19.6178 19.3262 19.0534 17.8256 18.8568 16.2563ZM4.43467 21.7839C5.51927 21.2605 6.46341 20.486 7.18878 19.5247C7.91415 18.5633 8.39983 17.4429 8.60553 16.2563H2.5C2.701 18.2789 3.39196 20.1633 4.43467 21.7839ZM21.3945 16.2563C21.596 17.4444 22.0801 18.5667 22.8059 19.5286C23.5318 20.4906 24.4781 21.2641 25.5653 21.7839C26.6388 20.1205 27.3019 18.226 27.5 16.2563H21.3945ZM11.1432 16.2563C10.9466 17.8256 10.3822 19.3262 9.49585 20.6361C8.60952 21.9459 7.42636 23.0279 6.04271 23.794C8.09577 25.8941 10.8216 27.2058 13.7437 27.5V16.2563H11.1432Z" />
</svg>
