<svg width="600" height="150" viewBox="0 0 600 150" fill="none" xmlns="http://www.w3.org/2000/svg">
<path d="M28.848 31.336V43.096H22.8V37H6.72V43.096H0.672V31.336H3.264C3.968 30.504 4.48 29.592 4.8 28.6C5.152 27.608 5.408 26.168 5.568 24.28L6.576 13.288H25.296V31.336H28.848ZM11.76 24.616C11.632 26.312 11.424 27.688 11.136 28.744C10.848 29.8 10.432 30.728 9.888 31.528H18.96V18.712H12.192L11.76 24.616ZM42.738 37.528C40.178 37.528 37.922 37 35.97 35.944C34.05 34.888 32.562 33.432 31.506 31.576C30.45 29.688 29.922 27.544 29.922 25.144C29.922 22.744 30.45 20.616 31.506 18.76C32.562 16.872 34.05 15.4 35.97 14.344C37.922 13.288 40.178 12.76 42.738 12.76C45.298 12.76 47.538 13.288 49.458 14.344C51.41 15.4 52.914 16.872 53.97 18.76C55.026 20.616 55.554 22.744 55.554 25.144C55.554 27.544 55.026 29.688 53.97 31.576C52.914 33.432 51.41 34.888 49.458 35.944C47.538 37 45.298 37.528 42.738 37.528ZM42.738 31.96C44.658 31.96 46.21 31.32 47.394 30.04C48.61 28.728 49.218 27.096 49.218 25.144C49.218 23.192 48.61 21.576 47.394 20.296C46.21 18.984 44.658 18.328 42.738 18.328C40.818 18.328 39.25 18.984 38.034 20.296C36.85 21.576 36.258 23.192 36.258 25.144C36.258 27.096 36.85 28.728 38.034 30.04C39.25 31.32 40.818 31.96 42.738 31.96ZM82.173 37H74.109L65.613 27.016V37H59.277V13.288H65.613V22.792L73.245 13.288H80.733L71.565 24.616L82.173 37ZM100.71 13.288H107.622L92.7896 47.608H85.9256L90.6296 36.712L81.3176 13.288H88.1816L91.6856 22.552L94.1816 29.8L96.9176 22.552L100.71 13.288ZM132.217 13.288H138.361V37.048H132.121V22.6L124.729 31.672H123.769L116.377 22.6V37.048H110.185V13.288H116.329L124.393 23.176L132.217 13.288ZM154.578 12.808C158.45 12.808 161.49 13.896 163.698 16.072C165.906 18.216 167.01 21.16 167.01 24.904C167.01 25.64 166.962 26.424 166.866 27.256H148.578C148.802 28.76 149.522 29.96 150.738 30.856C151.986 31.752 153.554 32.2 155.442 32.2C156.722 32.2 157.954 32.008 159.138 31.624C160.322 31.208 161.298 30.648 162.066 29.944L165.618 33.592C164.37 34.872 162.834 35.864 161.01 36.568C159.186 37.272 157.25 37.624 155.202 37.624C152.546 37.624 150.226 37.112 148.242 36.088C146.29 35.064 144.77 33.624 143.682 31.768C142.626 29.88 142.098 27.688 142.098 25.192C142.098 22.76 142.61 20.616 143.634 18.76C144.69 16.872 146.162 15.416 148.05 14.392C149.938 13.336 152.114 12.808 154.578 12.808ZM154.77 18.04C153.074 18.04 151.682 18.488 150.594 19.384C149.538 20.248 148.898 21.464 148.674 23.032H160.866C160.738 21.496 160.13 20.28 159.042 19.384C157.954 18.488 156.53 18.04 154.77 18.04ZM187.218 13.288H193.602V37H187.218V27.592H176.946V37H170.562V13.288H176.946V21.928H187.218V13.288ZM218.629 13.288V18.952H210.997V37H204.613V18.952H196.981V13.288H218.629ZM234.275 20.248C236.995 20.248 239.155 21 240.755 22.504C242.387 23.976 243.203 25.992 243.203 28.552C243.203 31.336 242.419 33.448 240.851 34.888C239.283 36.296 237.091 37 234.275 37H221.939V13.288H228.275V20.248H234.275ZM233.363 31.768C234.483 31.768 235.347 31.496 235.955 30.952C236.595 30.376 236.915 29.576 236.915 28.552C236.915 27.528 236.611 26.76 236.003 26.248C235.427 25.704 234.547 25.432 233.363 25.432H228.179V31.768H233.363ZM247.619 13.288H254.003V37H247.619V13.288Z" fill="white"/>
<path d="M12.924 81.82C14.604 81.82 16.092 82.216 17.388 83.008C18.708 83.776 19.728 84.868 20.448 86.284C21.192 87.7 21.564 89.308 21.564 91.108C21.564 92.908 21.192 94.516 20.448 95.932C19.728 97.348 18.708 98.452 17.388 99.244C16.092 100.012 14.604 100.396 12.924 100.396C11.748 100.396 10.656 100.204 9.648 99.82C8.664 99.436 7.812 98.884 7.092 98.164V107.956H2.304V82.216H6.444L6.768 84.34C7.488 83.524 8.376 82.9 9.432 82.468C10.512 82.036 11.676 81.82 12.924 81.82ZM11.952 96.22C13.368 96.22 14.532 95.74 15.444 94.78C16.356 93.82 16.812 92.596 16.812 91.108C16.812 89.62 16.356 88.396 15.444 87.436C14.532 86.476 13.368 85.996 11.952 85.996C10.512 85.996 9.336 86.476 8.424 87.436C7.512 88.396 7.056 89.62 7.056 91.108C7.056 92.596 7.512 93.82 8.424 94.78C9.336 95.74 10.512 96.22 11.952 96.22ZM42.5453 82.216V100H38.4053L38.0813 97.84C37.3373 98.68 36.4373 99.316 35.3813 99.748C34.3253 100.18 33.1733 100.396 31.9253 100.396C30.2453 100.396 28.7453 100.012 27.4253 99.244C26.1293 98.452 25.1093 97.348 24.3653 95.932C23.6453 94.516 23.2853 92.908 23.2853 91.108C23.2853 89.308 23.6453 87.7 24.3653 86.284C25.1093 84.868 26.1293 83.776 27.4253 83.008C28.7453 82.216 30.2453 81.82 31.9253 81.82C33.1733 81.82 34.3253 82.036 35.3813 82.468C36.4613 82.9 37.3613 83.524 38.0813 84.34L38.4053 82.216H42.5453ZM32.8973 96.22C34.3373 96.22 35.5133 95.74 36.4253 94.78C37.3373 93.82 37.7933 92.596 37.7933 91.108C37.7933 89.62 37.3373 88.396 36.4253 87.436C35.5133 86.476 34.3373 85.996 32.8973 85.996C31.4813 85.996 30.3173 86.476 29.4053 87.436C28.4933 88.396 28.0373 89.62 28.0373 91.108C28.0373 92.596 28.4933 93.82 29.4053 94.78C30.3173 95.74 31.4813 96.22 32.8973 96.22ZM57.6945 90.784C58.5585 91.192 59.2425 91.78 59.7465 92.548C60.2505 93.292 60.5025 94.132 60.5025 95.068C60.5025 96.772 59.8065 98.116 58.4145 99.1C57.0465 100.084 55.1625 100.576 52.7625 100.576C51.1785 100.576 49.7145 100.36 48.3705 99.928C47.0265 99.496 45.9225 98.872 45.0585 98.056L47.0385 94.816C47.9025 95.416 48.7665 95.86 49.6305 96.148C50.4945 96.412 51.4545 96.544 52.5105 96.544C53.5665 96.544 54.3705 96.376 54.9225 96.04C55.4985 95.68 55.7865 95.164 55.7865 94.492C55.7865 93.94 55.5705 93.508 55.1385 93.196C54.7305 92.86 54.1545 92.692 53.4105 92.692H49.6305V89.128H53.0505C53.7705 89.128 54.3225 88.984 54.7065 88.696C55.1145 88.384 55.3185 87.964 55.3185 87.436C55.3185 86.836 55.0665 86.38 54.5625 86.068C54.0825 85.732 53.3985 85.564 52.5105 85.564C50.8305 85.564 49.1865 86.104 47.5785 87.184L45.5625 84.052C47.7945 82.444 50.2905 81.64 53.0505 81.64C55.2105 81.64 56.9025 82.108 58.1265 83.044C59.3745 83.98 59.9985 85.252 59.9985 86.86C59.9985 87.724 59.7945 88.504 59.3865 89.2C58.9785 89.896 58.4145 90.424 57.6945 90.784ZM74.0804 81.82C75.7604 81.82 77.2484 82.216 78.5444 83.008C79.8644 83.776 80.8844 84.868 81.6044 86.284C82.3484 87.7 82.7204 89.308 82.7204 91.108C82.7204 92.908 82.3484 94.516 81.6044 95.932C80.8844 97.348 79.8644 98.452 78.5444 99.244C77.2484 100.012 75.7604 100.396 74.0804 100.396C72.9044 100.396 71.8124 100.204 70.8044 99.82C69.8204 99.436 68.9684 98.884 68.2484 98.164V107.956H63.4604V82.216H67.6004L67.9244 84.34C68.6444 83.524 69.5324 82.9 70.5884 82.468C71.6684 82.036 72.8324 81.82 74.0804 81.82ZM73.1084 96.22C74.5244 96.22 75.6884 95.74 76.6004 94.78C77.5124 93.82 77.9684 92.596 77.9684 91.108C77.9684 89.62 77.5124 88.396 76.6004 87.436C75.6884 86.476 74.5244 85.996 73.1084 85.996C71.6684 85.996 70.4924 86.476 69.5804 87.436C68.6684 88.396 68.2124 89.62 68.2124 91.108C68.2124 92.596 68.6684 93.82 69.5804 94.78C70.4924 95.74 71.6684 96.22 73.1084 96.22ZM93.8017 81.856C96.7057 81.856 98.9857 82.672 100.642 84.304C102.298 85.912 103.126 88.12 103.126 90.928C103.126 91.48 103.09 92.068 103.018 92.692H89.3017C89.4697 93.82 90.0097 94.72 90.9217 95.392C91.8577 96.064 93.0337 96.4 94.4497 96.4C95.4097 96.4 96.3337 96.256 97.2217 95.968C98.1097 95.656 98.8417 95.236 99.4177 94.708L102.082 97.444C101.146 98.404 99.9937 99.148 98.6257 99.676C97.2577 100.204 95.8057 100.468 94.2697 100.468C92.2777 100.468 90.5377 100.084 89.0497 99.316C87.5857 98.548 86.4457 97.468 85.6297 96.076C84.8377 94.66 84.4417 93.016 84.4417 91.144C84.4417 89.32 84.8257 87.712 85.5937 86.32C86.3857 84.904 87.4897 83.812 88.9057 83.044C90.3217 82.252 91.9537 81.856 93.8017 81.856ZM93.9457 85.78C92.6737 85.78 91.6297 86.116 90.8137 86.788C90.0217 87.436 89.5417 88.348 89.3737 89.524H98.5177C98.4217 88.372 97.9657 87.46 97.1497 86.788C96.3337 86.116 95.2657 85.78 93.9457 85.78ZM126.706 82.216H131.422V100H105.79V82.216H110.47V95.752H116.302V82.216H120.91V95.752H126.706V82.216ZM148.516 82.216H152.548V100H147.76V93.592L147.832 89.848L139.408 100H135.304V82.216H140.092V88.408L140.02 92.404L148.516 82.216ZM171.32 82.216V86.464H165.596V100H160.808V86.464H155.084V82.216H171.32ZM181.308 81.856C184.212 81.856 186.492 82.672 188.148 84.304C189.804 85.912 190.632 88.12 190.632 90.928C190.632 91.48 190.596 92.068 190.524 92.692H176.808C176.976 93.82 177.516 94.72 178.428 95.392C179.364 96.064 180.54 96.4 181.956 96.4C182.916 96.4 183.84 96.256 184.728 95.968C185.616 95.656 186.348 95.236 186.924 94.708L189.588 97.444C188.652 98.404 187.5 99.148 186.132 99.676C184.764 100.204 183.312 100.468 181.776 100.468C179.784 100.468 178.044 100.084 176.556 99.316C175.092 98.548 173.952 97.468 173.136 96.076C172.344 94.66 171.948 93.016 171.948 91.144C171.948 89.32 172.332 87.712 173.1 86.32C173.892 84.904 174.996 83.812 176.412 83.044C177.828 82.252 179.46 81.856 181.308 81.856ZM181.452 85.78C180.18 85.78 179.136 86.116 178.32 86.788C177.528 87.436 177.048 88.348 176.88 89.524H186.024C185.928 88.372 185.472 87.46 184.656 86.788C183.84 86.116 182.772 85.78 181.452 85.78ZM209.727 82.216V100H204.939V86.464H199.683L199.287 91.072C199.119 93.136 198.771 94.804 198.243 96.076C197.739 97.324 196.995 98.284 196.011 98.956C195.027 99.628 193.719 100.096 192.087 100.36L191.331 96.256C192.099 96.088 192.687 95.824 193.095 95.464C193.527 95.104 193.851 94.54 194.067 93.772C194.307 93.004 194.499 91.9 194.643 90.46L195.363 82.216H209.727ZM222.852 87.436C224.892 87.436 226.512 88 227.712 89.128C228.936 90.232 229.548 91.744 229.548 93.664C229.548 95.752 228.96 97.336 227.784 98.416C226.608 99.472 224.964 100 222.852 100H213.6V82.216H218.352V87.436H222.852ZM222.168 96.076C223.008 96.076 223.656 95.872 224.112 95.464C224.592 95.032 224.832 94.432 224.832 93.664C224.832 92.896 224.604 92.32 224.148 91.936C223.716 91.528 223.056 91.324 222.168 91.324H218.28V96.076H222.168ZM244.638 82.216H249.426V100H244.638V92.944H236.934V100H232.146V82.216H236.934V88.696H244.638V82.216ZM271.508 82.216V100H267.368L267.044 97.84C266.3 98.68 265.4 99.316 264.344 99.748C263.288 100.18 262.136 100.396 260.888 100.396C259.208 100.396 257.708 100.012 256.388 99.244C255.092 98.452 254.072 97.348 253.328 95.932C252.608 94.516 252.248 92.908 252.248 91.108C252.248 89.308 252.608 87.7 253.328 86.284C254.072 84.868 255.092 83.776 256.388 83.008C257.708 82.216 259.208 81.82 260.888 81.82C262.136 81.82 263.288 82.036 264.344 82.468C265.424 82.9 266.324 83.524 267.044 84.34L267.368 82.216H271.508ZM261.86 96.22C263.3 96.22 264.476 95.74 265.388 94.78C266.3 93.82 266.756 92.596 266.756 91.108C266.756 89.62 266.3 88.396 265.388 87.436C264.476 86.476 263.3 85.996 261.86 85.996C260.444 85.996 259.28 86.476 258.368 87.436C257.456 88.396 257 89.62 257 91.108C257 92.596 257.456 93.82 258.368 94.78C259.28 95.74 260.444 96.22 261.86 96.22ZM290.725 82.216V100H285.937V94.564H283.273L279.277 100H273.949L278.521 93.988C277.321 93.508 276.385 92.788 275.713 91.828C275.065 90.868 274.741 89.728 274.741 88.408C274.741 86.512 275.365 85.012 276.613 83.908C277.861 82.78 279.517 82.216 281.581 82.216H290.725ZM282.049 86.212C281.185 86.212 280.537 86.428 280.105 86.86C279.673 87.292 279.457 87.832 279.457 88.48C279.457 89.176 279.673 89.728 280.105 90.136C280.561 90.52 281.209 90.712 282.049 90.712H286.009V86.212H282.049ZM321.899 95.752V104.572H317.363V100H305.303V104.572H300.767V95.752H302.711C303.239 95.128 303.623 94.444 303.863 93.7C304.127 92.956 304.319 91.876 304.439 90.46L305.195 82.216H319.235V95.752H321.899ZM309.083 90.712C308.987 91.984 308.831 93.016 308.615 93.808C308.399 94.6 308.087 95.296 307.679 95.896H314.483V86.284H309.407L309.083 90.712ZM332.316 100.396C330.396 100.396 328.704 100 327.24 99.208C325.8 98.416 324.684 97.324 323.892 95.932C323.1 94.516 322.704 92.908 322.704 91.108C322.704 89.308 323.1 87.712 323.892 86.32C324.684 84.904 325.8 83.8 327.24 83.008C328.704 82.216 330.396 81.82 332.316 81.82C334.236 81.82 335.916 82.216 337.356 83.008C338.82 83.8 339.948 84.904 340.74 86.32C341.532 87.712 341.928 89.308 341.928 91.108C341.928 92.908 341.532 94.516 340.74 95.932C339.948 97.324 338.82 98.416 337.356 99.208C335.916 100 334.236 100.396 332.316 100.396ZM332.316 96.22C333.756 96.22 334.92 95.74 335.808 94.78C336.72 93.796 337.176 92.572 337.176 91.108C337.176 89.644 336.72 88.432 335.808 87.472C334.92 86.488 333.756 85.996 332.316 85.996C330.876 85.996 329.7 86.488 328.788 87.472C327.9 88.432 327.456 89.644 327.456 91.108C327.456 92.572 327.9 93.796 328.788 94.78C329.7 95.74 330.876 96.22 332.316 96.22ZM361.892 100H355.844L349.472 92.512V100H344.72V82.216H349.472V89.344L355.196 82.216H360.812L353.936 90.712L361.892 100ZM375.795 82.216H380.979L369.855 107.956H364.707L368.235 99.784L361.251 82.216H366.399L369.027 89.164L370.899 94.6L372.951 89.164L375.795 82.216ZM399.425 82.216H404.033V100.036H399.353V89.2L393.809 96.004H393.089L387.545 89.2V100.036H382.901V82.216H387.509L393.557 89.632L399.425 82.216ZM416.196 81.856C419.1 81.856 421.38 82.672 423.036 84.304C424.692 85.912 425.52 88.12 425.52 90.928C425.52 91.48 425.484 92.068 425.412 92.692H411.696C411.864 93.82 412.404 94.72 413.316 95.392C414.252 96.064 415.428 96.4 416.844 96.4C417.804 96.4 418.728 96.256 419.616 95.968C420.504 95.656 421.236 95.236 421.812 94.708L424.476 97.444C423.54 98.404 422.388 99.148 421.02 99.676C419.652 100.204 418.2 100.468 416.664 100.468C414.672 100.468 412.932 100.084 411.444 99.316C409.98 98.548 408.84 97.468 408.024 96.076C407.232 94.66 406.836 93.016 406.836 91.144C406.836 89.32 407.22 87.712 407.988 86.32C408.78 84.904 409.884 83.812 411.3 83.044C412.716 82.252 414.348 81.856 416.196 81.856ZM416.34 85.78C415.068 85.78 414.024 86.116 413.208 86.788C412.416 87.436 411.936 88.348 411.768 89.524H420.912C420.816 88.372 420.36 87.46 419.544 86.788C418.728 86.116 417.66 85.78 416.34 85.78ZM440.676 82.216H445.464V100H440.676V92.944H432.972V100H428.184V82.216H432.972V88.696H440.676V82.216ZM464.234 82.216V86.464H458.51V100H453.722V86.464H447.998V82.216H464.234ZM484.123 82.216V100H479.983L479.659 97.84C478.915 98.68 478.015 99.316 476.959 99.748C475.903 100.18 474.751 100.396 473.503 100.396C471.823 100.396 470.323 100.012 469.003 99.244C467.707 98.452 466.687 97.348 465.943 95.932C465.223 94.516 464.863 92.908 464.863 91.108C464.863 89.308 465.223 87.7 465.943 86.284C466.687 84.868 467.707 83.776 469.003 83.008C470.323 82.216 471.823 81.82 473.503 81.82C474.751 81.82 475.903 82.036 476.959 82.468C478.039 82.9 478.939 83.524 479.659 84.34L479.983 82.216H484.123ZM474.475 96.22C475.915 96.22 477.091 95.74 478.003 94.78C478.915 93.82 479.371 92.596 479.371 91.108C479.371 89.62 478.915 88.396 478.003 87.436C477.091 86.476 475.915 85.996 474.475 85.996C473.059 85.996 471.895 86.476 470.983 87.436C470.071 88.396 469.615 89.62 469.615 91.108C469.615 92.596 470.071 93.82 470.983 94.78C471.895 95.74 473.059 96.22 474.475 96.22ZM505.284 95.752H507.948V104.572H503.376V100H488.004V82.216H492.792V95.752H500.496V82.216H505.284V95.752ZM523.243 82.216H527.275V100H522.487V93.592L522.559 89.848L514.135 100H510.031V82.216H514.819V88.408L514.747 92.404L523.243 82.216ZM546.514 82.216V100H541.726V94.564H539.062L535.066 100H529.738L534.31 93.988C533.11 93.508 532.174 92.788 531.502 91.828C530.854 90.868 530.53 89.728 530.53 88.408C530.53 86.512 531.154 85.012 532.402 83.908C533.65 82.78 535.306 82.216 537.37 82.216H546.514ZM537.838 86.212C536.974 86.212 536.326 86.428 535.894 86.86C535.462 87.292 535.246 87.832 535.246 88.48C535.246 89.176 535.462 89.728 535.894 90.136C536.35 90.52 536.998 90.712 537.838 90.712H541.798V86.212H537.838ZM14.796 116.216H19.584V134H14.796V126.944H7.092V134H2.304V116.216H7.092V122.696H14.796V116.216ZM41.6663 116.216V134H37.5263L37.2023 131.84C36.4583 132.68 35.5583 133.316 34.5023 133.748C33.4463 134.18 32.2943 134.396 31.0463 134.396C29.3663 134.396 27.8663 134.012 26.5463 133.244C25.2503 132.452 24.2303 131.348 23.4863 129.932C22.7663 128.516 22.4063 126.908 22.4063 125.108C22.4063 123.308 22.7663 121.7 23.4863 120.284C24.2303 118.868 25.2503 117.776 26.5463 117.008C27.8663 116.216 29.3663 115.82 31.0463 115.82C32.2943 115.82 33.4463 116.036 34.5023 116.468C35.5823 116.9 36.4823 117.524 37.2023 118.34L37.5263 116.216H41.6663ZM32.0183 130.22C33.4583 130.22 34.6343 129.74 35.5463 128.78C36.4583 127.82 36.9143 126.596 36.9143 125.108C36.9143 123.62 36.4583 122.396 35.5463 121.436C34.6343 120.476 33.4583 119.996 32.0183 119.996C30.6023 119.996 29.4383 120.476 28.5263 121.436C27.6143 122.396 27.1583 123.62 27.1583 125.108C27.1583 126.596 27.6143 127.82 28.5263 128.78C29.4383 129.74 30.6023 130.22 32.0183 130.22ZM62.0792 134.396C60.1352 134.396 58.4312 134.024 56.9672 133.28C55.5272 132.512 54.4112 131.432 53.6192 130.04C52.8272 128.624 52.4312 126.98 52.4312 125.108C52.4312 123.284 52.8272 121.676 53.6192 120.284C54.4352 118.868 55.5632 117.776 57.0032 117.008C58.4432 116.216 60.1112 115.82 62.0072 115.82C64.6472 115.82 66.9272 116.744 68.8472 118.592L66.0752 121.58C65.5712 121.076 64.9832 120.692 64.3112 120.428C63.6392 120.14 62.9312 119.996 62.1872 119.996C60.6992 119.996 59.4872 120.476 58.5512 121.436C57.6392 122.372 57.1832 123.596 57.1832 125.108C57.1832 126.62 57.6392 127.856 58.5512 128.816C59.4872 129.752 60.6992 130.22 62.1872 130.22C63.8192 130.22 65.1872 129.644 66.2912 128.492L69.0992 131.516C67.1072 133.436 64.7672 134.396 62.0792 134.396ZM89.1118 116.216V134H84.9718L84.6478 131.84C83.9038 132.68 83.0038 133.316 81.9478 133.748C80.8918 134.18 79.7398 134.396 78.4918 134.396C76.8118 134.396 75.3118 134.012 73.9918 133.244C72.6958 132.452 71.6758 131.348 70.9318 129.932C70.2118 128.516 69.8518 126.908 69.8518 125.108C69.8518 123.308 70.2118 121.7 70.9318 120.284C71.6758 118.868 72.6958 117.776 73.9918 117.008C75.3118 116.216 76.8118 115.82 78.4918 115.82C79.7398 115.82 80.8918 116.036 81.9478 116.468C83.0278 116.9 83.9278 117.524 84.6478 118.34L84.9718 116.216H89.1118ZM79.4638 130.22C80.9038 130.22 82.0798 129.74 82.9918 128.78C83.9038 127.82 84.3598 126.596 84.3598 125.108C84.3598 123.62 83.9038 122.396 82.9918 121.436C82.0798 120.476 80.9038 119.996 79.4638 119.996C78.0478 119.996 76.8838 120.476 75.9718 121.436C75.0598 122.396 74.6038 123.62 74.6038 125.108C74.6038 126.596 75.0598 127.82 75.9718 128.78C76.8838 129.74 78.0478 130.22 79.4638 130.22ZM106.205 116.216H110.237V134H105.449V127.592L105.521 123.848L97.0971 134H92.9931V116.216H97.7811V122.408L97.7091 126.404L106.205 116.216ZM101.633 114.416C98.5371 114.416 96.6651 112.748 96.0171 109.412L99.0771 108.44C99.2451 109.28 99.5331 109.904 99.9411 110.312C100.349 110.72 100.913 110.924 101.633 110.924C102.377 110.924 102.953 110.72 103.361 110.312C103.769 109.904 104.057 109.28 104.225 108.44L107.285 109.412C106.925 111.116 106.277 112.376 105.341 113.192C104.405 114.008 103.169 114.416 101.633 114.416ZM129.008 116.216V120.464H123.284V134H118.496V120.464H112.772V116.216H129.008ZM138.997 115.856C141.901 115.856 144.181 116.672 145.837 118.304C147.493 119.912 148.321 122.12 148.321 124.928C148.321 125.48 148.285 126.068 148.213 126.692H134.497C134.665 127.82 135.205 128.72 136.117 129.392C137.053 130.064 138.229 130.4 139.645 130.4C140.605 130.4 141.529 130.256 142.417 129.968C143.305 129.656 144.037 129.236 144.613 128.708L147.277 131.444C146.341 132.404 145.189 133.148 143.821 133.676C142.453 134.204 141.001 134.468 139.465 134.468C137.473 134.468 135.733 134.084 134.245 133.316C132.781 132.548 131.641 131.468 130.825 130.076C130.033 128.66 129.637 127.016 129.637 125.144C129.637 123.32 130.021 121.712 130.789 120.32C131.581 118.904 132.685 117.812 134.101 117.044C135.517 116.252 137.149 115.856 138.997 115.856ZM139.141 119.78C137.869 119.78 136.825 120.116 136.009 120.788C135.217 121.436 134.737 122.348 134.569 123.524H143.713C143.617 122.372 143.161 121.46 142.345 120.788C141.529 120.116 140.461 119.78 139.141 119.78Z" fill="#718A98"/>
<path d="M171.441 116.216H176.229V134H171.441V126.944H163.737V134H158.949V116.216H163.737V122.696H171.441V116.216ZM198.311 116.216V134H194.171L193.847 131.84C193.103 132.68 192.203 133.316 191.147 133.748C190.091 134.18 188.939 134.396 187.691 134.396C186.011 134.396 184.511 134.012 183.191 133.244C181.895 132.452 180.875 131.348 180.131 129.932C179.411 128.516 179.051 126.908 179.051 125.108C179.051 123.308 179.411 121.7 180.131 120.284C180.875 118.868 181.895 117.776 183.191 117.008C184.511 116.216 186.011 115.82 187.691 115.82C188.939 115.82 190.091 116.036 191.147 116.468C192.227 116.9 193.127 117.524 193.847 118.34L194.171 116.216H198.311ZM188.663 130.22C190.103 130.22 191.279 129.74 192.191 128.78C193.103 127.82 193.559 126.596 193.559 125.108C193.559 123.62 193.103 122.396 192.191 121.436C191.279 120.476 190.103 119.996 188.663 119.996C187.247 119.996 186.083 120.476 185.171 121.436C184.259 122.396 183.803 123.62 183.803 125.108C183.803 126.596 184.259 127.82 185.171 128.78C186.083 129.74 187.247 130.22 188.663 130.22ZM223.109 116.216H227.825V134H202.193V116.216H206.873V129.752H212.705V116.216H217.313V129.752H223.109V116.216ZM251.039 129.752V138.572H246.503V134H234.443V138.572H229.907V129.752H231.851C232.379 129.128 232.763 128.444 233.003 127.7C233.267 126.956 233.459 125.876 233.579 124.46L234.335 116.216H248.375V129.752H251.039ZM238.223 124.712C238.127 125.984 237.971 127.016 237.755 127.808C237.539 128.6 237.227 129.296 236.819 129.896H243.623V120.284H238.547L238.223 124.712ZM261.456 134.396C259.536 134.396 257.844 134 256.38 133.208C254.94 132.416 253.824 131.324 253.032 129.932C252.24 128.516 251.844 126.908 251.844 125.108C251.844 123.308 252.24 121.712 253.032 120.32C253.824 118.904 254.94 117.8 256.38 117.008C257.844 116.216 259.536 115.82 261.456 115.82C263.376 115.82 265.056 116.216 266.496 117.008C267.96 117.8 269.088 118.904 269.88 120.32C270.672 121.712 271.068 123.308 271.068 125.108C271.068 126.908 270.672 128.516 269.88 129.932C269.088 131.324 267.96 132.416 266.496 133.208C265.056 134 263.376 134.396 261.456 134.396ZM261.456 130.22C262.896 130.22 264.06 129.74 264.948 128.78C265.86 127.796 266.316 126.572 266.316 125.108C266.316 123.644 265.86 122.432 264.948 121.472C264.06 120.488 262.896 119.996 261.456 119.996C260.016 119.996 258.84 120.488 257.928 121.472C257.04 122.432 256.596 123.644 256.596 125.108C256.596 126.572 257.04 127.796 257.928 128.78C258.84 129.74 260.016 130.22 261.456 130.22ZM290.385 116.216H294.993V134.036H290.313V123.2L284.769 130.004H284.049L278.505 123.2V134.036H273.861V116.216H278.469L284.517 123.632L290.385 116.216ZM301.179 134.324C300.363 134.324 299.691 134.072 299.163 133.568C298.635 133.064 298.371 132.416 298.371 131.624C298.371 130.832 298.635 130.184 299.163 129.68C299.691 129.152 300.363 128.888 301.179 128.888C301.995 128.888 302.667 129.152 303.195 129.68C303.747 130.184 304.023 130.832 304.023 131.624C304.023 132.416 303.759 133.064 303.231 133.568C302.703 134.072 302.019 134.324 301.179 134.324ZM318.021 115.82C319.701 115.82 321.189 116.216 322.485 117.008C323.805 117.776 324.825 118.868 325.545 120.284C326.289 121.7 326.661 123.308 326.661 125.108C326.661 126.908 326.289 128.516 325.545 129.932C324.825 131.348 323.805 132.452 322.485 133.244C321.189 134.012 319.701 134.396 318.021 134.396C316.845 134.396 315.753 134.204 314.745 133.82C313.761 133.436 312.909 132.884 312.189 132.164V141.956H307.401V116.216H311.541L311.865 118.34C312.585 117.524 313.473 116.9 314.529 116.468C315.609 116.036 316.773 115.82 318.021 115.82ZM317.049 130.22C318.465 130.22 319.629 129.74 320.541 128.78C321.453 127.82 321.909 126.596 321.909 125.108C321.909 123.62 321.453 122.396 320.541 121.436C319.629 120.476 318.465 119.996 317.049 119.996C315.609 119.996 314.433 120.476 313.521 121.436C312.609 122.396 312.153 123.62 312.153 125.108C312.153 126.596 312.609 127.82 313.521 128.78C314.433 129.74 315.609 130.22 317.049 130.22ZM353.186 125.108C353.186 126.956 352.778 128.576 351.962 129.968C351.146 131.36 349.982 132.44 348.47 133.208C346.958 133.976 345.194 134.372 343.178 134.396V142.1H338.426V134.396C336.41 134.396 334.646 134.012 333.134 133.244C331.622 132.476 330.446 131.396 329.606 130.004C328.79 128.588 328.382 126.956 328.382 125.108C328.382 123.26 328.79 121.64 329.606 120.248C330.446 118.856 331.622 117.776 333.134 117.008C334.646 116.216 336.41 115.82 338.426 115.82V108.8H343.178V115.82C345.194 115.844 346.958 116.24 348.47 117.008C349.982 117.776 351.146 118.856 351.962 120.248C352.778 121.64 353.186 123.26 353.186 125.108ZM333.098 125.108C333.098 126.692 333.59 127.952 334.574 128.888C335.558 129.824 336.878 130.292 338.534 130.292H338.606V119.924H338.534C336.902 119.924 335.582 120.404 334.574 121.364C333.59 122.3 333.098 123.548 333.098 125.108ZM343.034 130.292C344.69 130.292 346.01 129.824 346.994 128.888C347.978 127.952 348.47 126.692 348.47 125.108C348.47 123.548 347.966 122.3 346.958 121.364C345.974 120.404 344.666 119.924 343.034 119.924H342.962V130.292H343.034Z" fill="#3AB2ED"/>
</svg>
