<svg width="36" height="36" viewBox="0 0 36 36" fill="none" xmlns="http://www.w3.org/2000/svg">
<circle cx="18" cy="18" r="17" fill="#2D2DFF" stroke="white" stroke-width="2"/>
<path d="M27.0625 13H26.75V11.125C26.75 9.375 22.875 8 18 8C13.125 8 9.25 9.375 9.25 11.125V13H8.9375C8.41992 13 8 13.4195 8 13.9375V17.0625C8 17.5801 8.41992 18 8.9375 18H9.25V24.25C9.25 24.9402 9.80977 25.5 10.5 25.5V26.75C10.5 27.4402 11.0598 28 11.75 28H13C13.6902 28 14.25 27.4402 14.25 26.75V25.5H21.75V26.75C21.75 27.4402 22.3098 28 23 28H24.25C24.9402 28 25.5 27.4402 25.5 26.75V25.5H25.75C26.375 25.5 26.75 25 26.75 24.5V18H27.0625C27.5801 18 28 17.5801 28 17.0625V13.9375C28 13.4195 27.5801 13 27.0625 13ZM12.375 23.625C11.6848 23.625 11.125 23.0652 11.125 22.375C11.125 21.6848 11.6848 21.125 12.375 21.125C13.0652 21.125 13.625 21.6848 13.625 22.375C13.625 23.0652 13.0652 23.625 12.375 23.625ZM13 19.25C12.3098 19.25 11.75 18.6902 11.75 18V13C11.75 12.3098 12.3098 11.75 13 11.75H23C23.6902 11.75 24.25 12.3098 24.25 13V18C24.25 18.6902 23.6902 19.25 23 19.25H13ZM23.625 23.625C22.9348 23.625 22.375 23.0652 22.375 22.375C22.375 21.6848 22.9348 21.125 23.625 21.125C24.3152 21.125 24.875 21.6848 24.875 22.375C24.875 23.0652 24.3152 23.625 23.625 23.625Z" fill="white"/>
</svg>
