<svg width="36" height="36" viewBox="0 0 36 36" fill="none" xmlns="http://www.w3.org/2000/svg">
<circle cx="18" cy="18" r="17" fill="#15DBB9" stroke="white" stroke-width="2"/>
<path d="M10.7813 18.6461V21.384C10.7813 22.0953 11.1639 22.7578 11.7762 23.0989L16.5591 25.7588C17.1331 26.0804 17.8218 26.0804 18.3958 25.7588L23.1788 23.0989C23.791 22.7578 24.1736 22.0953 24.1736 21.384V18.6461L18.3958 21.8614C17.8218 22.183 17.1331 22.183 16.5591 21.8614L10.7813 18.6461ZM16.5591 9.23384L8.49504 13.7159C7.83499 14.0861 7.83499 15.0605 8.49504 15.4307L16.5591 19.9127C17.1331 20.2343 17.8218 20.2343 18.3958 19.9127L26.0868 15.6353V21.3938C26.0868 21.9296 26.5173 22.3681 27.0434 22.3681C27.5695 22.3681 28 21.9296 28 21.3938V15.1482C28 14.7876 27.8087 14.4661 27.5026 14.2907L18.3958 9.23384C18.1132 9.08031 17.7978 9 17.4775 9C17.1571 9 16.8418 9.08031 16.5591 9.23384Z" fill="white"/>
</svg>
