<svg width="36" height="36" viewBox="0 0 36 36" fill="none" xmlns="http://www.w3.org/2000/svg">
<circle cx="18" cy="18" r="17" fill="#EC2121" stroke="white" stroke-width="2"/>
<path fill-rule="evenodd" clip-rule="evenodd" d="M13.0358 10.0525C11.0977 10.3332 9.45791 11.498 8.60787 13.198C7.96495 14.4838 7.83116 15.9507 8.21061 17.5537C8.58579 19.1388 9.48941 20.5699 11.2527 22.372C11.9769 23.1121 13.7874 24.7238 16.4456 26.9948C17.6331 28.0093 17.6187 28 17.9997 28C18.3671 28 18.3861 27.9889 19.2165 27.2845C21.8877 25.0187 24.2175 22.8596 25.257 21.6863C27.5223 19.1296 28.351 16.8586 27.8669 14.5338C27.5486 13.0053 26.4856 11.563 25.0937 10.771C22.993 9.5758 20.1808 9.79537 18.2463 11.3056L18.0036 11.4951L17.6777 11.2511C17.0118 10.7526 16.076 10.3213 15.2832 10.1474C14.5847 9.99412 13.6977 9.9567 13.0358 10.0525ZM19.2113 16.0165V17.2053H20.423H21.6346V18.4132V19.6212H20.423H19.2113V20.8099V21.9987H17.9997H16.788V20.8099V19.6212H15.5763H14.3647V18.4132V17.2053H15.5763H16.788V16.0165V14.8278H17.9997H19.2113V16.0165Z" fill="white"/>
</svg>
