<svg width="29" height="40" viewBox="0 0 29 40" fill="none" xmlns="http://www.w3.org/2000/svg">
<path fill-rule="evenodd" clip-rule="evenodd" d="M1.56859 14.6847H0V38.6258H1.56859V40H27.4153V38.6258H29V14.6847H27.4153V11.6327H25.6525V6.63129H23.8897V3.16387H22.1431V0H6.85691V3.16387H5.09414V6.63129H3.34768V11.6327H1.56859V14.6847Z" fill="url(#paint0_linear_778_11074)"/>
<path d="M6.66505 22.3582H6.06982V33.6778H6.66505V22.3582Z" fill="white"/>
<path d="M22.9303 22.3582H22.3351V33.6778H22.9303V22.3582Z" fill="white"/>
<path d="M8.85188 18.6813H7.93024V35.3333H8.85188V18.6813Z" fill="white"/>
<path d="M21.0508 18.6813H20.1292V35.3333H21.0508V18.6813Z" fill="white"/>
<path d="M10.8468 12.6558H10.0403V33.4852H10.8468V12.6558Z" fill="white"/>
<path d="M18.96 12.6558H18.1536V33.4852H18.96V12.6558Z" fill="white"/>
<path d="M12.8029 8.47833H12.1117V32.388H12.8029V8.47833Z" fill="white"/>
<path d="M16.8693 8.47833H16.178V32.388H16.8693V8.47833Z" fill="white"/>
<path d="M14.7977 4.66663H14.2024V30.4436H14.7977V4.66663Z" fill="white"/>
<defs>
<linearGradient id="paint0_linear_778_11074" x1="14.4998" y1="-0.131463" x2="14.4998" y2="39.7925" gradientUnits="userSpaceOnUse">
<stop stop-color="#FD8713"/>
<stop offset="1" stop-color="#C83E04"/>
</linearGradient>
</defs>
</svg>
