<svg width="36" height="36" viewBox="0 0 36 36" fill="none" xmlns="http://www.w3.org/2000/svg">
<circle cx="18" cy="18" r="17" fill="#F99C13" stroke="white" stroke-width="2"/>
<path fill-rule="evenodd" clip-rule="evenodd" d="M15.13 9.03085C14.9878 9.09698 14.9733 9.19116 15.0137 9.78384C15.0579 10.4304 15.0359 10.5546 14.8423 10.7517C14.7199 10.8762 14.6186 10.9155 12.9785 11.4747C12.0245 11.7999 11.1839 12.0955 11.1104 12.1315C10.6304 12.3667 10.4432 12.9349 10.6895 13.4085C10.903 13.8189 11.2662 14.0366 12.3047 14.3769C12.6237 14.4814 12.9211 14.5898 12.9656 14.6177C13.0847 14.6926 13.1833 14.8677 13.1835 15.0045C13.1835 15.0707 12.9542 16.6649 12.6738 18.5473C12.3935 20.4297 12.1641 21.9963 12.1641 22.0287C12.1641 22.0732 12.2691 22.1246 12.5947 22.2396C13.0695 22.4072 13.6618 22.5873 14.1549 22.7141L14.4759 22.7966L14.5001 22.4877C14.5857 21.3983 15.0221 20.4873 15.8065 19.7604C16.3239 19.2809 16.952 18.9505 17.7012 18.7638C18.0599 18.6743 18.1337 18.6675 18.7207 18.6699C19.2839 18.6721 19.3906 18.6819 19.6905 18.759C20.5498 18.98 21.1663 19.3239 21.7478 19.9068C22.3427 20.5031 22.7513 21.2951 22.8548 22.0523C22.877 22.2147 22.9003 22.3656 22.9065 22.3875C22.9184 22.4295 23.2525 22.3248 23.9249 22.0682C24.3328 21.9126 25.1073 21.5875 25.1452 21.556C25.1856 21.5225 24.3006 15.7166 24.2319 15.564C24.1968 15.4862 24.1164 15.3973 24.0334 15.3445L23.8939 15.2558L21.1475 15.2389C18.5768 15.2231 18.3949 15.2181 18.3043 15.1611C18.1159 15.0424 18.0706 14.9205 18.0701 14.5297C18.0695 14.0257 18.01 13.1496 17.9459 12.7008C17.7618 11.4123 17.337 10.4804 16.6372 9.82997C16.3118 9.52762 16.0384 9.34566 15.6039 9.14253C15.2576 8.98067 15.2445 8.97756 15.13 9.03085ZM9.14868 22.0156C9.1241 22.0252 9.08058 22.0764 9.052 22.1295C9.00991 22.2077 9 22.3977 9 23.1249C9 23.7103 9.01339 24.0478 9.03843 24.0927C9.12902 24.2553 10.8265 24.8976 12.0234 25.2221C16.5427 26.4475 21.6769 26.2153 25.8915 24.5949C26.6497 24.3034 26.9259 24.1683 26.9648 24.0699C26.9851 24.0188 27 23.6008 27 23.0858V22.1905L26.8972 22.0918C26.8365 22.0334 26.7572 21.993 26.7033 21.993C26.6531 21.993 26.4344 22.0787 26.2172 22.1833C22.4935 23.9778 19.0398 24.5699 15.5107 24.0189C13.6861 23.734 11.7644 23.1198 9.9187 22.2317C9.44856 22.0054 9.29011 21.961 9.14868 22.0156Z" fill="white"/>
</svg>
