<svg width="36" height="36" viewBox="0 0 36 36" fill="none" xmlns="http://www.w3.org/2000/svg">
<circle cx="18" cy="18" r="17" fill="#0DACFF" stroke="white" stroke-width="2"/>
<path fill-rule="evenodd" clip-rule="evenodd" d="M9 9.89623V10.7925L9.90265 10.8019L10.8053 10.8112L12.3376 14.0473C13.1804 15.8271 13.9065 17.3625 13.9512 17.4592L14.0324 17.6349L13.4829 18.6337C12.6353 20.1745 12.6089 20.238 12.612 20.7326C12.6173 21.5575 13.2501 22.317 14.0594 22.4695C14.1824 22.4927 16.1688 22.5052 19.7293 22.5052H25.2099V21.6084V20.7116H19.9754H14.741L14.6449 20.636C14.568 20.5755 14.5529 20.5407 14.5689 20.4607C14.5799 20.4058 14.7673 20.0369 14.9854 19.641L15.382 18.9211L18.8982 18.9107L22.4144 18.9003L22.637 18.8199C23.0481 18.6713 23.3504 18.4425 23.5734 18.1114C23.7906 17.7889 26.8859 12.1564 26.9505 11.9663C27.0213 11.7576 27.0168 11.6065 26.933 11.3827C26.8531 11.1688 26.6649 10.9675 26.4581 10.8745C26.3247 10.8145 25.9681 10.8103 19.5505 10.7937L12.7836 10.7761L12.3618 9.88804L11.94 9H10.47H9V9.89623ZM13.8805 23.4876C13.3048 23.6716 12.8224 24.1721 12.6761 24.7371C12.6095 24.9942 12.6065 25.417 12.6697 25.6529C12.8542 26.3423 13.4539 26.8825 14.1454 26.9821C15.1003 27.1197 16.0124 26.4476 16.1744 25.487C16.3232 24.6048 15.762 23.7365 14.8745 23.4757C14.6154 23.3996 14.1377 23.4053 13.8805 23.4876ZM22.882 23.4876C22.3064 23.6716 21.824 24.1721 21.6776 24.7371C21.611 24.9942 21.6081 25.417 21.6712 25.6529C21.8558 26.3423 22.4555 26.8825 23.147 26.9821C24.1019 27.1197 25.014 26.4476 25.176 25.487C25.3248 24.6048 24.7636 23.7365 23.8761 23.4757C23.617 23.3996 23.1392 23.4053 22.882 23.4876Z" fill="white"/>
</svg>
