<svg width="36" height="36" viewBox="0 0 36 36" fill="none" xmlns="http://www.w3.org/2000/svg">
<circle cx="18" cy="18" r="17" fill="#B618A0" stroke="white" stroke-width="2"/>
<path fill-rule="evenodd" clip-rule="evenodd" d="M17.0662 8.02322C13.6675 8.35104 10.6319 10.4088 9.09359 13.4277C8.54956 14.4954 8.22812 15.5248 8.05223 16.7628C7.97427 17.3118 7.98558 18.7319 8.07286 19.344C8.22784 20.4309 8.54854 21.4609 9.04005 22.4503C10.0152 24.4132 11.573 25.9697 13.5414 26.9478C16.7323 28.5333 20.5034 28.3153 23.4796 26.3732C24.6433 25.6139 25.7462 24.4881 26.4991 23.2912C26.7853 22.8362 27.2173 21.9518 27.4135 21.4193C27.6113 20.8828 27.8418 19.9515 27.9274 19.344C28.014 18.7286 28.0257 17.3049 27.9486 16.7628C27.7175 15.1387 27.2021 13.756 26.3464 12.4647C25.9825 11.9155 25.6191 11.4724 25.1128 10.9607C23.5518 9.38302 21.61 8.40454 19.3897 8.07676C18.9109 8.00609 17.5653 7.97508 17.0662 8.02322ZM14.5667 13.2703C14.9398 13.382 15.3341 13.9185 15.5011 14.5414C15.6162 14.9709 15.618 15.7792 15.5048 16.1957C15.332 16.8313 15.0627 17.246 14.708 17.4226C14.3363 17.6077 14.0222 17.543 13.6946 17.2141C13.4594 16.9779 13.2743 16.6373 13.1605 16.2315C13.0614 15.8781 13.0603 14.9125 13.1585 14.5531C13.3435 13.8762 13.6707 13.4242 14.0819 13.2773C14.2615 13.2132 14.3707 13.2116 14.5667 13.2703ZM22.0918 13.3591C22.4037 13.5418 22.6887 13.9916 22.8358 14.5335C22.934 14.8951 22.955 15.6461 22.8777 16.0274C22.4938 17.921 20.9889 18.0399 20.5 16.2152C20.4339 15.9686 20.4162 15.7905 20.4162 15.3744C20.4162 14.7896 20.4874 14.4344 20.6884 14.017C20.8199 13.7441 21.2137 13.3348 21.4053 13.2719C21.6033 13.2069 21.8952 13.244 22.0918 13.3591ZM13.4443 19.9528C14.1827 20.2112 15.5243 20.4752 16.6304 20.5797C17.3536 20.6481 19.0683 20.6374 19.8202 20.5599C20.9006 20.4485 22.0324 20.2227 22.7722 19.9709C23.2651 19.8031 23.5735 19.8652 23.7283 20.1635L23.8049 20.3109L23.7002 20.724C23.2304 22.5779 21.5607 23.978 19.3478 24.3737C18.7209 24.4858 17.6613 24.495 17.0438 24.3936C15.7182 24.176 14.5995 23.6333 13.772 22.8064C13.1627 22.1975 12.7588 21.5044 12.5649 20.7347C12.4624 20.3279 12.4621 20.2762 12.5609 20.1142C12.7099 19.87 13.0368 19.8103 13.4443 19.9528Z" fill="white"/>
</svg>
