<svg width="36" height="36" viewBox="0 0 36 36" fill="none" xmlns="http://www.w3.org/2000/svg">
<circle cx="18" cy="18" r="17" fill="#0C9550" stroke="white" stroke-width="2"/>
<path d="M23.1156 16.995H28C27.8415 15.4192 27.311 13.9036 26.4523 12.5729C25.5825 12.9887 24.8254 13.6075 24.2447 14.3771C23.6641 15.1467 23.2768 16.0445 23.1156 16.995V16.995ZM12.8844 16.995C12.7232 16.0445 12.3359 15.1467 11.7553 14.3771C11.1746 13.6075 10.4175 12.9887 9.54774 12.5729C8.68896 13.9036 8.1585 15.4192 8 16.995H12.8844ZM21.0854 16.995C21.2427 15.7395 21.6943 14.539 22.4033 13.4911C23.1124 12.4433 24.0589 11.5777 25.1658 10.9648C23.5234 9.28475 21.3427 8.23534 19.005 8V16.995H21.0854ZM14.9146 16.995H16.995V8C14.6567 8.23315 12.4753 9.28291 10.8342 10.9648C11.9411 11.5777 12.8876 12.4433 13.5967 13.4911C14.3057 14.539 14.7573 15.7395 14.9146 16.995V16.995ZM21.0854 19.005H19.005V28C21.3433 27.7668 23.5247 26.7171 25.1658 25.0352C24.0589 24.4223 23.1124 23.5567 22.4033 22.5089C21.6943 21.461 21.2427 20.2604 21.0854 19.005V19.005ZM9.54774 23.4271C10.4154 23.0084 11.1707 22.3888 11.751 21.6197C12.3313 20.8507 12.7199 19.9543 12.8844 19.005H8C8.1608 20.6231 8.71357 22.1307 9.54774 23.4271ZM23.1156 19.005C23.2768 19.9555 23.6641 20.8533 24.2447 21.6229C24.8254 22.3925 25.5825 23.0113 26.4523 23.4271C27.311 22.0964 27.8415 20.5808 28 19.005H23.1156ZM14.9146 19.005C14.7573 20.2604 14.3057 21.461 13.5967 22.5089C12.8876 23.5567 11.9411 24.4223 10.8342 25.0352C12.4766 26.7152 14.6573 27.7647 16.995 28V19.005H14.9146V19.005Z" fill="white"/>
</svg>
