<svg width="0" height="0"><symbol xmlns="http://www.w3.org/2000/svg" viewBox="0 0 36 36" fill="none" id="b-arrow-down"><circle cx="18" cy="18" r="17.5" stroke="#FF6B00"/><path d="M12 21.214 18 27l6-5.786-1.009-.973-4.278 4.126V9h-1.426v15.367l-4.278-4.126-1.009.973Z" fill="#FF6B00"/></symbol><symbol xmlns="http://www.w3.org/2000/svg" viewBox="0 0 36 36" fill="none" id="b-bus"><circle cx="18" cy="18" r="17" fill="#2D2DFF" stroke="#fff" stroke-width="2"/><path d="M27.063 13h-.313v-1.875C26.75 9.375 22.875 8 18 8s-8.75 1.375-8.75 3.125V13h-.313a.937.937 0 0 0-.937.938v3.124c0 .518.42.938.938.938h.312v6.25c0 .69.56 1.25 1.25 1.25v1.25c0 .69.56 1.25 1.25 1.25H13c.69 0 1.25-.56 1.25-1.25V25.5h7.5v1.25c0 .69.56 1.25 1.25 1.25h1.25c.69 0 1.25-.56 1.25-1.25V25.5h.25c.625 0 1-.5 1-1V18h.313c.517 0 .937-.42.937-.938v-3.125a.937.937 0 0 0-.938-.937ZM12.374 23.625a1.25 1.25 0 1 1 0-2.5 1.25 1.25 0 0 1 0 2.5ZM13 19.25c-.69 0-1.25-.56-1.25-1.25v-5c0-.69.56-1.25 1.25-1.25h10c.69 0 1.25.56 1.25 1.25v5c0 .69-.56 1.25-1.25 1.25H13Zm10.625 4.375a1.25 1.25 0 1 1 0-2.5 1.25 1.25 0 0 1 0 2.5Z" fill="#fff"/></symbol><symbol xmlns="http://www.w3.org/2000/svg" viewBox="0 0 36 36" fill="none" id="b-bron"><circle cx="18" cy="18" r="18" fill="#FF6B00"/><path fill-rule="evenodd" clip-rule="evenodd" d="M11.51 9.04c-.176.052-.43.326-.482.52a.819.819 0 0 0 .358.911c.16.096.204.104.674.117l.502.014v1.508c0 1.652.02 1.87.219 2.489.174.541.453 1.048.832 1.51.103.126.52.533.928.904.407.372.802.745.877.83.329.369.329.939 0 1.308-.075.084-.47.457-.877.83-.408.37-.825.778-.928.903a4.591 4.591 0 0 0-.832 1.511c-.2.619-.218.837-.219 2.49v1.507l-.502.014c-.47.013-.513.02-.674.116a.802.802 0 0 0-.354.907c.06.22.286.458.494.521.22.067 12.73.067 12.95 0 .207-.063.434-.302.494-.521a.802.802 0 0 0-.354-.907c-.161-.095-.205-.103-.674-.116l-.503-.014v-1.49c0-1.577-.02-1.845-.182-2.396a4.934 4.934 0 0 0-.934-1.702 18.817 18.817 0 0 0-.905-.867 22.89 22.89 0 0 1-.852-.805 1.002 1.002 0 0 1 0-1.27c.065-.074.448-.436.852-.805.404-.369.811-.759.905-.867.39-.45.722-1.046.915-1.648.178-.552.2-.837.201-2.451v-1.49l.503-.013c.47-.013.513-.02.674-.117a.802.802 0 0 0 .354-.906c-.06-.219-.298-.471-.496-.527-.184-.052-12.786-.05-12.964.002Zm6.739 11.105c.054.03.642.61 1.307 1.29 1.641 1.679 1.547 1.462 1.547 3.563V26.4h-6.205v-1.402c0-2.098-.09-1.887 1.53-3.546.654-.67 1.239-1.251 1.3-1.29a.605.605 0 0 1 .521-.017Z" fill="#fff"/></symbol><symbol xmlns="http://www.w3.org/2000/svg" viewBox="0 0 36 36" fill="none" id="b-arrow-right"><circle cx="18" cy="18" r="17.5" stroke="#FF6B00"/><path d="M21.214 24 27 18l-5.786-6-.973 1.008 4.126 4.279H9v1.426h15.367l-4.126 4.278.973 1.009Z" fill="#FF6B00"/></symbol><symbol xmlns="http://www.w3.org/2000/svg" viewBox="0 0 36 36" fill="none" id="b-cross"><circle cx="18" cy="18" r="17.5" stroke="#FF6B00"/><path d="m11 12.4 1.393-1.4L24.93 23.6 23.537 25 11 12.4Z" fill="#FF6B00"/><path d="M25 12.4 23.607 11 11.07 23.6l1.393 1.4L25 12.4Z" fill="#FF6B00"/></symbol><symbol xmlns="http://www.w3.org/2000/svg" viewBox="0 0 36 36" fill="none" id="b-dosug"><circle cx="18" cy="18" r="17" fill="#B618A0" stroke="#fff" stroke-width="2"/><path fill-rule="evenodd" clip-rule="evenodd" d="M17.066 8.023c-3.398.328-6.434 2.386-7.972 5.405a10.192 10.192 0 0 0-1.042 3.335c-.078.549-.066 1.969.02 2.581.156 1.087.477 2.117.968 3.106a9.912 9.912 0 0 0 4.501 4.498 10.01 10.01 0 0 0 9.939-.575 10.46 10.46 0 0 0 3.02-3.082c.285-.455.717-1.34.913-1.872.198-.536.429-1.468.514-2.075.087-.615.099-2.04.022-2.581-.232-1.624-.747-3.007-1.603-4.298a9.44 9.44 0 0 0-1.233-1.504c-1.561-1.578-3.503-2.556-5.723-2.884-.48-.07-1.825-.102-2.324-.054Zm-2.5 5.247c.374.112.768.649.935 1.271.115.43.117 1.238.004 1.655-.173.635-.442 1.05-.797 1.227-.372.185-.686.12-1.013-.209-.236-.236-.42-.577-.534-.982-.1-.354-.1-1.32-.002-1.679.184-.677.512-1.129.923-1.276a.66.66 0 0 1 .485-.007Zm7.526.09c.312.182.597.632.744 1.174.098.361.119 1.112.042 1.493-.384 1.894-1.89 2.013-2.378.188-.066-.246-.084-.425-.084-.84 0-.585.071-.94.272-1.358.132-.273.526-.682.717-.745a.926.926 0 0 1 .687.087Zm-8.648 6.593c.739.258 2.08.522 3.186.627.724.068 2.438.057 3.19-.02 1.08-.111 2.212-.337 2.952-.59.493-.167.802-.105.956.194l.077.147-.105.413c-.47 1.854-2.14 3.254-4.352 3.65-.627.112-1.687.121-2.304.02-1.326-.218-2.444-.76-3.272-1.588-.61-.608-1.013-1.302-1.207-2.071-.103-.407-.103-.459-.004-.62.149-.245.476-.305.883-.162Z" fill="#fff"/></symbol><symbol xmlns="http://www.w3.org/2000/svg" viewBox="0 0 36 36" fill="none" id="b-flat-number"><circle cx="18" cy="18" r="18" fill="#0AB81B"/><path d="M17.07 17.692c.433.136.777.38 1.033.732.264.344.396.744.396 1.2 0 .504-.14.944-.42 1.32-.28.376-.68.668-1.2.876-.512.2-1.112.3-1.8.3-.68 0-1.276-.1-1.788-.3-.504-.208-.896-.496-1.176-.864a2.102 2.102 0 0 1-.408-1.284h1.164c0 .256.096.488.288.696.2.2.472.36.816.48.352.112.744.168 1.176.168.656 0 1.18-.124 1.572-.372.4-.256.6-.6.6-1.032 0-.44-.192-.788-.576-1.044-.376-.256-.888-.384-1.536-.384h-1.476v-.996h1.332c.632 0 1.136-.116 1.512-.348.384-.24.576-.56.576-.96 0-.392-.188-.708-.564-.948-.376-.24-.876-.36-1.5-.36-.632 0-1.136.116-1.512.348-.376.232-.564.536-.564.912H11.85c0-.472.132-.884.396-1.236.272-.352.652-.624 1.14-.816.488-.2 1.06-.3 1.716-.3.632 0 1.192.1 1.68.3.488.2.864.484 1.128.852.272.36.408.776.408 1.248 0 .416-.12.796-.36 1.14-.232.336-.528.56-.888.672ZM24.93 22h-1.5l-2.603-2.688V22H19.71v-5.928h1.116v2.556l2.328-2.556h1.404l-2.64 2.856L24.93 22Z" fill="#fff"/></symbol><symbol xmlns="http://www.w3.org/2000/svg" viewBox="0 0 36 36" fill="none" id="b-health"><circle cx="18" cy="18" r="17" fill="#EC2121" stroke="#fff" stroke-width="2"/><path fill-rule="evenodd" clip-rule="evenodd" d="M13.036 10.053c-1.938.28-3.578 1.445-4.428 3.145-.643 1.286-.777 2.753-.397 4.356.375 1.585 1.278 3.016 3.042 4.818.724.74 2.534 2.352 5.193 4.623C17.633 28.009 17.619 28 18 28c.367 0 .386-.011 1.216-.715 2.672-2.266 5.002-4.425 6.041-5.599 2.265-2.556 3.094-4.827 2.61-7.152-.318-1.529-1.381-2.971-2.773-3.763-2.101-1.195-4.913-.976-6.848.535l-.242.19-.326-.245a6.725 6.725 0 0 0-2.395-1.104c-.698-.153-1.585-.19-2.247-.095Zm6.175 5.963v1.19h2.424v2.415H19.21V22h-2.423V19.62h-2.423v-2.416h2.423v-2.378h2.423v1.19Z" fill="#fff"/></symbol><symbol xmlns="http://www.w3.org/2000/svg" viewBox="0 0 36 36" fill="none" id="b-kids"><circle cx="18" cy="18" r="17" fill="#F99C13" stroke="#fff" stroke-width="2"/><path fill-rule="evenodd" clip-rule="evenodd" d="M15.13 9.03c-.142.067-.157.161-.116.754.044.646.022.77-.172.968-.122.124-.223.163-1.864.723-.954.325-1.794.62-1.868.657a.932.932 0 0 0-.42 1.277c.213.41.576.628 1.615.968.319.104.616.213.66.24.12.076.218.25.219.387 0 .067-.23 1.66-.51 3.543-.28 1.883-.51 3.45-.51 3.482 0 .044.105.096.43.21.476.168 1.068.348 1.56.475l.322.083.024-.31c.086-1.089.522-2 1.306-2.727.518-.48 1.146-.81 1.895-.996.359-.09.433-.096 1.02-.094.563.002.67.012.97.089.859.221 1.475.565 2.057 1.148.595.596 1.003 1.388 1.107 2.145.022.163.045.314.052.335.011.043.346-.062 1.018-.319.408-.155 1.182-.48 1.22-.512.04-.034-.844-5.84-.913-5.992a.567.567 0 0 0-.199-.22l-.14-.088-2.745-.017c-2.571-.016-2.753-.02-2.844-.078-.188-.119-.233-.24-.234-.631 0-.504-.06-1.38-.124-1.83-.184-1.288-.609-2.22-1.309-2.87a3.615 3.615 0 0 0-1.033-.687c-.346-.162-.36-.165-.474-.112ZM9.149 22.017c-.025.01-.068.06-.097.114-.042.078-.052.268-.052.995 0 .585.013.923.038.968.091.162 1.788.805 2.985 1.13 4.52 1.225 9.654.992 13.869-.628.758-.292 1.034-.427 1.073-.525.02-.051.035-.47.035-.984v-.895l-.103-.1c-.06-.058-.14-.098-.194-.098-.05 0-.269.086-.486.19-3.723 1.795-7.177 2.387-10.706 1.836-1.825-.285-3.747-.9-5.592-1.787-.47-.227-.629-.271-.77-.216Z" fill="#fff"/></symbol><symbol xmlns="http://www.w3.org/2000/svg" viewBox="0 0 36 36" fill="none" id="b-key"><circle cx="18" cy="18" r="17.5" stroke="#FF6B00"/><path fill-rule="evenodd" clip-rule="evenodd" d="M20.553 9.032a5.818 5.818 0 0 0-4.561 3.136c-.446.883-.61 1.65-.576 2.703.027.868.162 1.434.522 2.187l.164.345-3.512 3.436c-1.932 1.89-3.53 3.47-3.552 3.513-.057.11-.049.35.016.483.03.063.423.471.873.908 1.144 1.11 1.104 1.105 1.96.28l.532-.513.746.725c1.064 1.034.96 1.04 2.14-.105.45-.437.843-.845.873-.908a.618.618 0 0 0 .017-.46c-.02-.053-.36-.414-.755-.803l-.717-.706 1.844-1.798 1.844-1.797.324.153c.396.187.884.343 1.386.443.3.06.512.075 1.026.077.656.003.924-.026 1.475-.159a5.732 5.732 0 0 0 4.091-3.736 5.574 5.574 0 0 0-.367-4.381c-1.1-2.08-3.376-3.268-5.793-3.023Zm.922 2.844c1.204.124 2.17.92 2.505 2.065.114.39.114 1.072 0 1.463A2.866 2.866 0 0 1 21.9 17.4c-.395.099-1.006.099-1.401-.001-1.29-.325-2.178-1.437-2.178-2.727 0-.79.312-1.49.914-2.05a2.92 2.92 0 0 1 1.622-.743c.14-.016.262-.031.271-.033.01-.002.166.011.347.03Z" fill="#FF6B00"/></symbol><symbol xmlns="http://www.w3.org/2000/svg" viewBox="0 0 36 36" fill="none" id="b-menu"><path d="M9 12h18v2.294H9V12ZM9 17.353h18v2.294H9v-2.294ZM9 22.706h18V25H9v-2.294Z" fill="#FF6B00"/><circle cx="18" cy="18" r="17.5" stroke="#FF6B00"/></symbol><symbol xmlns="http://www.w3.org/2000/svg" viewBox="0 0 36 36" fill="none" id="b-pdf"><circle cx="18" cy="18" r="17.5" stroke="#FF6B00"/><path d="M29 14.4V12h-5.5v12h1.833v-4.8h2.75v-2.4h-2.75v-2.4H29ZM18.917 24H15.25V12h3.667c.729.001 1.428.38 1.943 1.056.516.674.806 1.59.807 2.544v4.8c-.001.955-.291 1.87-.807 2.545-.515.674-1.214 1.054-1.943 1.055Zm-1.834-2.4h1.834c.243 0 .476-.127.648-.352.171-.225.268-.53.268-.848v-4.8c0-.318-.097-.623-.268-.848-.172-.225-.405-.352-.648-.352h-1.834v7.2Zm-5.5-9.6H7v12h1.833v-3.6h2.75c.486-.001.952-.254 1.296-.704.344-.45.537-1.06.538-1.696v-3.6c0-.636-.194-1.246-.538-1.696-.344-.45-.81-.703-1.296-.704Zm-2.75 6v-3.6h2.75l.001 3.6h-2.75Z" fill="#FF6B00"/></symbol><symbol xmlns="http://www.w3.org/2000/svg" viewBox="0 0 36 36" fill="none" id="b-phone"><circle cx="18" cy="18" r="17.5" stroke="#FF6B00"/><path d="m22.182 20.779.007.002c1.078.355 2.213.536 3.367.536.521 0 .944.423.944.944v3.295c0 .521-.423.944-.944.944C16.701 26.5 9.5 19.299 9.5 10.444c0-.521.423-.944.944-.944h3.304c.521 0 .944.423.944.944 0 1.152.177 2.287.536 3.37.11.345.018.711-.235.964l-.025.025-.021.028-1.481 1.974-.191.254.15.28c1.283 2.418 2.8 3.938 5.235 5.237l.282.15.255-.192 2.024-1.529.031-.023.027-.028a.803.803 0 0 1 .39-.193.96.96 0 0 1 .513.018Z" fill="#FF6B00" stroke="#FF6B00"/></symbol><symbol xmlns="http://www.w3.org/2000/svg" viewBox="0 0 36 36" fill="none" id="b-plus"><circle cx="18" cy="18" r="18" fill="#fff"/><path d="M10.005 18.913 10 17.136l15.995.04.005 1.777-15.995-.04Z" fill="#0AB81B"/><path d="M18.913 10.005 17.136 10l.04 15.995 1.777.005-.04-15.995Z" fill="#0AB81B"/></symbol><symbol xmlns="http://www.w3.org/2000/svg" viewBox="0 0 36 36" fill="none" id="b-school"><circle cx="18" cy="18" r="17" fill="#15DBB9" stroke="#fff" stroke-width="2"/><path d="M10.781 18.646v2.738c0 .711.383 1.374.995 1.715l4.783 2.66a1.869 1.869 0 0 0 1.837 0l4.783-2.66a1.966 1.966 0 0 0 .995-1.715v-2.738l-5.778 3.215a1.869 1.869 0 0 1-1.837 0l-5.778-3.215Zm5.778-9.412-8.064 4.482c-.66.37-.66 1.345 0 1.715l8.064 4.482a1.869 1.869 0 0 0 1.837 0l7.69-4.278v5.759c0 .536.431.974.957.974a.968.968 0 0 0 .957-.974v-6.246a.983.983 0 0 0-.497-.857l-9.107-5.057a1.923 1.923 0 0 0-1.837 0Z" fill="#fff"/></symbol><symbol xmlns="http://www.w3.org/2000/svg" viewBox="0 0 36 36" fill="none" id="b-shop"><circle cx="18" cy="18" r="17" fill="#0DACFF" stroke="#fff" stroke-width="2"/><path fill-rule="evenodd" clip-rule="evenodd" d="M9 9.896v.896l.903.01.902.01 1.533 3.235c.842 1.78 1.569 3.316 1.613 3.412l.081.176-.55.999c-.847 1.54-.873 1.604-.87 2.099.005.825.638 1.584 1.447 1.736.123.024 2.11.036 5.67.036h5.48V20.712H14.742l-.096-.076c-.077-.06-.092-.095-.076-.175.01-.055.198-.424.416-.82l.397-.72 3.516-.01 3.516-.01.223-.081c.411-.149.713-.378.936-.709.218-.322 3.313-5.955 3.378-6.145.07-.208.066-.36-.018-.583a.953.953 0 0 0-.475-.508c-.133-.06-.49-.065-6.907-.081l-6.767-.018-.422-.888L11.94 9H9v.896Zm4.88 13.592c-.575.184-1.058.684-1.204 1.25a2.18 2.18 0 0 0-.006.915c.184.69.784 1.23 1.475 1.33.955.137 1.867-.535 2.03-1.496.148-.882-.413-1.75-1.3-2.011a2.11 2.11 0 0 0-.995.012Zm9.002 0c-.576.184-1.058.684-1.204 1.25-.067.256-.07.679-.007.915.185.69.785 1.23 1.476 1.33.955.137 1.867-.535 2.029-1.496.149-.882-.412-1.75-1.3-2.011a2.11 2.11 0 0 0-.994.012Z" fill="#fff"/></symbol><symbol xmlns="http://www.w3.org/2000/svg" viewBox="0 0 36 36" fill="none" id="b-share"><circle cx="18" cy="18" r="17.5" stroke="#FF6B00"/><path d="M12.129 20.677c.78-.003 1.53-.3 2.103-.836l5.585 3.213a3.18 3.18 0 0 0 .232 2.196c.337.68.906 1.215 1.603 1.507a3.12 3.12 0 0 0 2.192.084 3.145 3.145 0 0 0 1.711-1.38 3.18 3.18 0 0 0-.714-4.076 3.128 3.128 0 0 0-4.109.127L15.147 18.3c.059-.224.09-.457.096-.69l5.487-3.157a3.099 3.099 0 0 0 3.917.223c.58-.42.997-1.03 1.184-1.724a3.153 3.153 0 0 0-.16-2.089 3.125 3.125 0 0 0-1.432-1.52 3.095 3.095 0 0 0-3.837.825 3.147 3.147 0 0 0-.69 1.977c.004.258.039.516.105.766l-5.072 2.916a3.13 3.13 0 0 0-1.182-1.082 3.105 3.105 0 0 0-3.088.118c-.46.288-.838.691-1.096 1.17a3.161 3.161 0 0 0 .061 3.11c.278.47.671.857 1.143 1.126.471.269 1.004.41 1.546.409Z" fill="#FF6B00"/></symbol><symbol xmlns="http://www.w3.org/2000/svg" viewBox="0 0 36 36" fill="none" id="b-sport"><circle cx="18" cy="18" r="17" fill="#0C9550" stroke="#fff" stroke-width="2"/><path d="M23.116 16.995H28a10.002 10.002 0 0 0-1.548-4.422 6.016 6.016 0 0 0-3.336 4.422Zm-10.232 0a6.018 6.018 0 0 0-3.336-4.422A10 10 0 0 0 8 16.995h4.884Zm8.201 0a8.035 8.035 0 0 1 4.08-6.03A10.02 10.02 0 0 0 19.006 8v8.995h2.08Zm-6.17 0h2.08V8a9.993 9.993 0 0 0-6.16 2.965 8.036 8.036 0 0 1 4.08 6.03Zm6.17 2.01h-2.08V28a9.993 9.993 0 0 0 6.16-2.965 8.036 8.036 0 0 1-4.08-6.03ZM9.548 23.427a6.059 6.059 0 0 0 3.336-4.422H8a10 10 0 0 0 1.548 4.422Zm13.568-4.422a6.018 6.018 0 0 0 3.336 4.422A10.002 10.002 0 0 0 28 19.005h-4.884Zm-8.201 0a8.036 8.036 0 0 1-4.08 6.03A10.02 10.02 0 0 0 16.994 28v-8.995h-2.08Z" fill="#fff"/></symbol><symbol xmlns="http://www.w3.org/2000/svg" viewBox="0 0 24 24" id="fasad"><path fill-rule="evenodd" clip-rule="evenodd" d="M10.36 2.103a1.02 1.02 0 0 1 1.002.061L16.2 5.346c.26.17.413.448.413.745v5.441l2.982 2.001c.254.17.405.446.405.74v6.136l-.001.682L20 22H5l.001-.682V10.182c0-.297.154-.575.413-.745l4.425-2.91V2.909c0-.339.201-.65.521-.806ZM6.936 20.182H9.84V8.746l-2.903 1.91v9.526Z" fill="#fff"/></symbol><symbol xmlns="http://www.w3.org/2000/svg" viewBox="0 0 24 24" id="bank"><path fill-rule="evenodd" clip-rule="evenodd" d="M7.136 4.35 2.412 6.715l9.602.002 9.602.002-4.7-2.35c-3.576-1.788-4.744-2.355-4.878-2.368-.17-.018-.371.079-4.902 2.347ZM2.026 8c.156.668.964 1.92 1.388 2.15l.162.087h16.848l.162-.088c.424-.23 1.232-1.481 1.389-2.15L22 7.893H2L2.025 8Zm2.319 6.946v3.537h3.554V11.41H4.345v3.536Zm5.897 0v3.537h3.516V11.41h-3.516v3.536Zm5.859 0v3.537h3.554V11.41h-3.554v3.536ZM3.074 19.71C2.766 19.845 2 21.051 2 21.404a.62.62 0 0 0 .312.517C2.466 22 2.523 22 12 22c9.477 0 9.534 0 9.687-.079a.62.62 0 0 0 .311-.522c0-.29-.672-1.407-.989-1.642l-.11-.082-8.853-.009c-7.293-.006-8.874.001-8.972.044Z"/></symbol><symbol xmlns="http://www.w3.org/2000/svg" viewBox="0 0 24 24" id="dosug"><path fill-rule="evenodd" clip-rule="evenodd" d="M11.066 2.023c-3.398.328-6.434 2.386-7.972 5.405-.544 1.067-.866 2.097-1.042 3.335-.078.549-.066 1.969.02 2.581.156 1.087.477 2.117.968 3.106a9.912 9.912 0 0 0 4.501 4.498 10.01 10.01 0 0 0 9.939-.575 10.46 10.46 0 0 0 3.02-3.082c.285-.455.717-1.34.913-1.872.198-.536.429-1.468.514-2.075.087-.615.099-2.04.022-2.581-.232-1.624-.747-3.007-1.603-4.298a9.444 9.444 0 0 0-1.233-1.504c-1.561-1.578-3.503-2.556-5.723-2.884-.48-.07-1.825-.102-2.324-.054Zm-2.5 5.247c.374.112.768.648.935 1.271.115.43.117 1.238.004 1.655-.173.635-.442 1.05-.797 1.227-.372.185-.686.12-1.013-.209-.236-.236-.42-.577-.535-.982-.099-.354-.1-1.32-.001-1.679.184-.677.512-1.129.923-1.276a.66.66 0 0 1 .485-.007Zm7.526.09c.312.182.597.632.744 1.174.098.361.119 1.112.042 1.493-.384 1.894-1.89 2.013-2.378.188-.066-.246-.084-.424-.084-.84 0-.585.071-.94.272-1.358.132-.273.526-.682.717-.745a.926.926 0 0 1 .687.087Zm-8.648 6.593c.739.258 2.08.522 3.186.627.724.068 2.438.057 3.19-.02 1.08-.112 2.212-.337 2.952-.59.493-.167.802-.105.956.194l.077.147-.105.413c-.47 1.854-2.14 3.254-4.352 3.65-.627.112-1.687.121-2.304.02-1.326-.218-2.445-.76-3.272-1.588-.61-.608-1.013-1.302-1.207-2.071-.103-.407-.103-.459-.004-.62.149-.245.476-.305.883-.162Z"/></symbol><symbol xmlns="http://www.w3.org/2000/svg" viewBox="0 0 24 24" id="bus"><path d="M21.063 7h-.313V5.125C20.75 3.375 16.875 2 12 2S3.25 3.375 3.25 5.125V7h-.313A.937.937 0 0 0 2 7.938v3.125c0 .517.42.937.938.937h.312v6.25c0 .69.56 1.25 1.25 1.25v1.25c0 .69.56 1.25 1.25 1.25H7c.69 0 1.25-.56 1.25-1.25V19.5h7.5v1.25c0 .69.56 1.25 1.25 1.25h1.25c.69 0 1.25-.56 1.25-1.25V19.5h.25c.625 0 1-.5 1-1V12h.313c.517 0 .937-.42.937-.938V7.938A.937.937 0 0 0 21.062 7ZM6.374 17.625a1.25 1.25 0 1 1 0-2.5 1.25 1.25 0 0 1 0 2.5ZM7 13.25c-.69 0-1.25-.56-1.25-1.25V7c0-.69.56-1.25 1.25-1.25h10c.69 0 1.25.56 1.25 1.25v5c0 .69-.56 1.25-1.25 1.25H7Zm10.625 4.375a1.25 1.25 0 1 1 0-2.5 1.25 1.25 0 0 1 0 2.5Z"/></symbol><symbol xmlns="http://www.w3.org/2000/svg" viewBox="0 0 24 24" id="cash"><path d="M14.125 4c1.156 0 2.175.221 3.058.663.899.442 1.59 1.059 2.07 1.851.498.793.747 1.707.747 2.743 0 1.036-.249 1.95-.746 2.743-.482.792-1.172 1.41-2.071 1.851-.883.427-1.902.64-3.058.64H9.72v1.212h4.31v2.148h-4.31V20H6.806v-2.149H5v-2.148h1.806V14.49H5v-2.285h1.806V4h7.32Zm-.168 8.206c.979 0 1.741-.252 2.287-.755.562-.518.843-1.219.843-2.102 0-.884-.281-1.578-.843-2.08-.546-.519-1.308-.778-2.287-.778H9.695v5.715h4.262Z"/></symbol><symbol xmlns="http://www.w3.org/2000/svg" viewBox="0 0 24 24" id="health"><path fill-rule="evenodd" clip-rule="evenodd" d="M7.036 3.053c-1.938.28-3.578 1.445-4.428 3.145-.643 1.286-.777 2.753-.397 4.356.375 1.585 1.278 3.016 3.042 4.818.724.74 2.534 2.352 5.193 4.623C11.633 21.009 11.619 21 12 21c.367 0 .386-.011 1.216-.715 2.672-2.266 5.002-4.425 6.041-5.599 2.265-2.556 3.094-4.827 2.61-7.152-.318-1.529-1.381-2.971-2.773-3.763-2.101-1.195-4.913-.976-6.848.535l-.242.19-.326-.245a6.726 6.726 0 0 0-2.395-1.104c-.698-.153-1.585-.19-2.247-.094Zm6.175 5.964v1.188h2.424v2.416H13.21V15h-2.423V12.62H8.365v-2.416h2.423V7.827h2.423v1.19Z"/></symbol><symbol xmlns="http://www.w3.org/2000/svg" viewBox="0 0 24 24" id="key"><path fill-rule="evenodd" clip-rule="evenodd" d="M14.836 2.035A6.464 6.464 0 0 0 9.77 5.52c-.496.98-.678 1.834-.64 3.003.03.965.18 1.594.58 2.43l.183.384-3.903 3.818c-2.146 2.1-3.922 3.856-3.947 3.903-.063.122-.054.39.018.537.033.07.47.523.97 1.008 1.271 1.235 1.226 1.228 2.177.312l.592-.57.83.805c1.182 1.15 1.066 1.155 2.377-.117.5-.485.936-.939.97-1.008a.687.687 0 0 0 .019-.51c-.023-.06-.4-.462-.839-.894l-.797-.784 2.049-1.998 2.049-1.997.36.17c.44.208.982.381 1.54.492.332.066.569.084 1.14.086.729.003 1.027-.03 1.639-.176a6.37 6.37 0 0 0 4.546-4.152c.537-1.6.39-3.36-.408-4.868-1.223-2.311-3.752-3.631-6.438-3.359Zm1.025 3.16c1.338.138 2.411 1.023 2.783 2.295.127.434.127 1.191 0 1.625a3.184 3.184 0 0 1-2.312 2.218c-.437.11-1.116.11-1.556 0-1.433-.362-2.42-1.597-2.42-3.03 0-.879.348-1.657 1.017-2.278a3.245 3.245 0 0 1 1.801-.826l.302-.037c.011-.002.184.013.385.033Z" fill="#fff"/></symbol><symbol xmlns="http://www.w3.org/2000/svg" viewBox="0 0 24 24" id="geo"><path fill-rule="evenodd" clip-rule="evenodd" d="m12.33 21.899.001-.001.006-.004.017-.013.068-.047a20.796 20.796 0 0 0 1.11-.863 24.476 24.476 0 0 0 2.614-2.523C18.036 16.323 20 13.288 20 9.82a7.733 7.733 0 0 0-2.342-5.528 7.995 7.995 0 0 0-2.593-1.695 8.176 8.176 0 0 0-6.13 0 7.996 7.996 0 0 0-2.593 1.695A7.733 7.733 0 0 0 4 9.82c0 3.468 1.963 6.502 3.854 8.627a24.477 24.477 0 0 0 3.479 3.206c.103.077.207.153.312.227l.018.013.006.004h.002a.585.585 0 0 0 .658 0Zm2.527-12.121a2.74 2.74 0 0 1-.837 1.964 2.9 2.9 0 0 1-2.02.814 2.9 2.9 0 0 1-2.02-.814 2.74 2.74 0 0 1-.837-1.964c0-.737.3-1.443.837-1.964A2.899 2.899 0 0 1 12 7c.758 0 1.485.293 2.02.814a2.74 2.74 0 0 1 .837 1.964Z"/></symbol><symbol xmlns="http://www.w3.org/2000/svg" viewBox="0 0 24 24" id="ipoteka"><path d="M20.28 3H3.72a.72.72 0 0 0-.72.72v16.56c0 .398.322.72.72.72h16.56a.72.72 0 0 0 .72-.72V3.72a.72.72 0 0 0-.72-.72Zm-9.896 14.692H9.241a.173.173 0 0 1-.132-.065l-.799-.979-.799.98a.167.167 0 0 1-.133.064H6.236c-.148 0-.229-.177-.13-.294l1.41-1.728-1.376-1.685c-.097-.117-.016-.295.132-.295h1.146c.05 0 .101.024.133.065l.765.936.764-.936a.166.166 0 0 1 .133-.065h1.143c.149 0 .23.178.133.295l-1.38 1.683 1.412 1.727c.094.12.013.297-.136.297Zm.176-8.595c0 .05-.032.09-.072.09H8.94v1.546c0 .043-.04.074-.09.074H7.77c-.05 0-.09-.031-.09-.072V9.188H6.132c-.04 0-.072-.041-.072-.09v-1.08c0-.05.032-.09.072-.09H7.68V6.38c0-.041.04-.072.09-.072h1.08c.05 0 .09.031.09.072v1.548h1.546c.042 0 .074.04.074.09v1.08Zm7.38 8.303c0 .05-.032.09-.072.09h-4.356c-.04 0-.072-.04-.072-.09v-1.08c0-.05.032-.09.072-.09h4.354c.043 0 .074.04.074.09v1.08Zm0-2.34c0 .05-.032.09-.072.09h-4.356c-.04 0-.072-.04-.072-.09v-1.08c0-.05.032-.09.072-.09h4.354c.043 0 .074.04.074.09v1.08Zm0-5.963c0 .05-.032.09-.072.09h-4.356c-.04 0-.072-.04-.072-.09v-1.08c0-.049.032-.09.072-.09h4.354c.043 0 .074.041.074.09v1.08Z"/></symbol><symbol xmlns="http://www.w3.org/2000/svg" viewBox="0 0 12 12" id="link"><path d="M2.4 0v1.2h7.554L0 11.154.846 12 10.8 2.046V9.6H12V0H2.4Z" fill="#FF6B00"/></symbol><symbol xmlns="http://www.w3.org/2000/svg" viewBox="0 0 24 24" id="tg"><circle cx="12" cy="12" r="12" fill="#142D3E"/><path d="M17.122 7.066 5.607 11.139c-.786.29-.781.691-.144.87l2.956.846 6.84-3.958c.324-.18.62-.083.377.114L10.094 13.6h-.002.002l-.204 2.796c.298 0 .43-.126.598-.274l1.436-1.281 2.987 2.023c.55.279.946.136 1.083-.467l1.961-8.476c.2-.738-.307-1.072-.832-.854Z" fill="#fff"/></symbol><symbol xmlns="http://www.w3.org/2000/svg" viewBox="0 0 36 36" fill="none" id="lock"><circle cx="18" cy="18" r="18" fill="#D7D7D7"/><path d="M18 9c-2.412 0-4.375 2.019-4.375 4.5v1.8h-.875c-.965 0-1.75.807-1.75 1.8v8.1c0 .993.785 1.8 1.75 1.8h10.5c.965 0 1.75-.807 1.75-1.8v-8.1c0-.993-.785-1.8-1.75-1.8h-.875v-1.8c0-2.481-1.963-4.5-4.375-4.5Zm-2.625 4.5c0-1.489 1.178-2.7 2.625-2.7s2.625 1.211 2.625 2.7v1.8h-5.25v-1.8Zm7.877 11.7h-4.377v-2.05c.52-.313.875-.887.875-1.55 0-.993-.785-1.8-1.75-1.8s-1.75.807-1.75 1.8c0 .662.354 1.237.875 1.55v2.05H12.75v-8.1h10.5l.002 8.1Z" fill="#142D3E"/></symbol><symbol xmlns="http://www.w3.org/2000/svg" viewBox="0 0 24 24" id="kids"><path fill-rule="evenodd" clip-rule="evenodd" d="M8.811 2.034c-.158.074-.174.18-.13.842.05.723.026.862-.19 1.082-.136.139-.248.183-2.07.808-1.06.363-1.994.694-2.076.734a1.044 1.044 0 0 0-.468 1.427c.237.459.641.702 1.795 1.082.354.117.685.238.734.27.133.083.242.279.242.432 0 .074-.254 1.856-.566 3.96a415.477 415.477 0 0 0-.566 3.89c0 .05.116.108.478.236.528.188 1.186.389 1.734.53l.356.093.027-.346c.095-1.217.58-2.235 1.452-3.048.575-.536 1.273-.905 2.105-1.114.399-.1.48-.107 1.133-.105.626.003.744.014 1.077.1.955.247 1.64.632 2.286 1.283.661.666 1.115 1.552 1.23 2.398.025.181.05.35.058.374.013.047.384-.07 1.131-.356.453-.174 1.314-.538 1.356-.573.045-.037-.938-6.526-1.015-6.697a.632.632 0 0 0-.22-.245l-.155-.1-3.052-.018c-2.856-.018-3.058-.023-3.159-.087-.21-.133-.26-.269-.26-.706 0-.563-.067-1.542-.138-2.044-.205-1.44-.677-2.481-1.454-3.208a4.012 4.012 0 0 0-1.148-.769c-.385-.18-.4-.184-.527-.125ZM2.165 16.547c-.027.01-.075.068-.107.127-.047.088-.058.3-.058 1.113 0 .654.015 1.031.043 1.081.1.182 1.986.9 3.316 1.263 5.022 1.37 10.726 1.11 15.41-.701.842-.326 1.149-.477 1.192-.587.022-.057.039-.524.039-1.1v-1l-.114-.111c-.068-.065-.156-.11-.216-.11-.055 0-.298.095-.54.212-4.137 2.006-7.975 2.668-11.896 2.052-2.027-.319-4.162-1.005-6.213-1.998-.523-.253-.699-.302-.856-.241Z"/></symbol><symbol xmlns="http://www.w3.org/2000/svg" viewBox="0 0 24 24" id="mother"><path fill-rule="evenodd" clip-rule="evenodd" d="M6.065 2.071c-.434.113-.74.29-1.079.624-.343.338-.519.638-.633 1.08-.247.951.161 1.99 1 2.543.421.278.778.383 1.298.383.334 0 .475-.019.712-.095 1.183-.382 1.894-1.65 1.587-2.832a3.01 3.01 0 0 0-.207-.543c-.168-.317-.649-.791-.97-.957a2.454 2.454 0 0 0-1.708-.203Zm10.697 0c-.434.113-.74.29-1.08.624-.342.338-.518.638-.633 1.08-.247.951.162 1.99 1.002 2.543.42.278.777.383 1.297.383.334 0 .474-.019.711-.095 1.183-.382 1.894-1.65 1.588-2.832a3.014 3.014 0 0 0-.207-.543c-.168-.317-.649-.791-.97-.957a2.454 2.454 0 0 0-1.708-.203ZM7.21 6.844a4.727 4.727 0 0 0-2.74 1.322C3.509 9.121 3 10.411 3 11.898c0 1.41.471 2.584 1.593 3.966.552.68 2.623 2.67 2.97 2.853a.925.925 0 0 0 .319.047c.68 0 1.146-.441 1.18-1.114.022-.444-.103-.679-.596-1.122-.648-.582-1.496-1.414-1.832-1.797-.833-.947-1.18-1.575-1.246-2.257l-.028-.285.596.011.595.01.029.195c.043.298.307.777.684 1.24.326.401 1.407 1.497 1.826 1.851l.2.17.355-.17c.412-.196.85-.342 1.325-.44.47-.099 1.587-.097 2.059.002.473.099.997.272 1.367.451l.317.154.159-.13c.345-.28 1.55-1.501 1.867-1.892.373-.46.638-.939.68-1.236l.03-.194.595-.01.596-.012-.028.285c-.066.675-.427 1.33-1.245 2.258-.335.38-1.287 1.313-1.873 1.835-.42.373-.563.632-.563 1.016 0 .371.094.606.336.844.261.258.51.346.908.32a1.28 1.28 0 0 0 .428-.092c.206-.105 1.419-1.234 2.043-1.901.909-.972 1.4-1.632 1.786-2.396.395-.782.568-1.527.568-2.44 0-.906-.16-1.662-.505-2.38-.75-1.563-2.128-2.533-3.846-2.705a4.252 4.252 0 0 0-2.332.415c-.8.387-1.463.973-2.01 1.778-.153.226-.291.41-.307.41-.016 0-.16-.193-.32-.43-1.071-1.58-2.696-2.366-4.47-2.163Zm5.285 3.453c.452.094.827.3 1.169.64.342.343.522.65.635 1.083.143.551.068 1.151-.207 1.67-.168.316-.65.79-.97.957a2.764 2.764 0 0 1-1.122.28 2.74 2.74 0 0 1-1.122-.282c-.324-.169-.805-.642-.97-.956a2.674 2.674 0 0 1-.285-1.106c0-.33.12-.795.284-1.106.186-.352.655-.8 1.026-.98a2.37 2.37 0 0 1 1.562-.2Zm-.878 1.184c-1.048.37-1.065 1.812-.025 2.196a1.182 1.182 0 0 0 1.465-.577c.144-.29.156-.711.027-.988-.256-.55-.904-.83-1.467-.631Zm-.251 4.685c-.425.07-1.307.366-1.307.44 0 .015.037.133.083.26.118.323.147.963.06 1.305A2.456 2.456 0 0 1 9.1 19.623c-.15.087-.27.162-.27.167 0 .005.343.3.762.656.42.355.922.782 1.117.95.631.538 1.213.708 1.866.544.424-.107.625-.247 1.704-1.189l1.049-.916-.335-.171a2.348 2.348 0 0 1-1.196-1.494c-.087-.342-.058-.982.06-1.306a2.32 2.32 0 0 0 .083-.258c0-.076-.7-.322-1.163-.41-.286-.054-1.157-.073-1.412-.031Z"/></symbol><symbol xmlns="http://www.w3.org/2000/svg" viewBox="0 0 24 24" id="params"><path d="M4 6h16v1.333H4V6Z" fill="#fff"/><path d="M18 6.5a2.5 2.5 0 1 1-5 0 2.5 2.5 0 0 1 5 0ZM4 11.667h16V13H4v-1.333Z" fill="#fff"/><path d="M10.333 12.167a2.5 2.5 0 1 1-5 0 2.5 2.5 0 0 1 5 0ZM4 17h16v1.333H4V17Z" fill="#fff"/><path d="M16.667 17.5a2.5 2.5 0 1 1-5 0 2.5 2.5 0 0 1 5 0Z" fill="#fff"/></symbol><symbol xmlns="http://www.w3.org/2000/svg" viewBox="0 0 24 24" id="shop"><path fill-rule="evenodd" clip-rule="evenodd" d="M2 2.996v.996l1.003.01 1.003.01 1.702 3.596A2336.85 2336.85 0 0 1 7.502 11.4l.09.195-.61 1.11c-.942 1.712-.971 1.783-.968 2.332.006.917.71 1.76 1.609 1.93.136.026 2.343.04 6.3.04h6.089V15.013H8.379l-.107-.084c-.085-.067-.102-.106-.084-.195.012-.06.22-.47.462-.91l.441-.8 3.907-.012L16.905 13l.247-.089c.457-.165.793-.42 1.04-.787.242-.359 3.681-6.617 3.753-6.828.079-.232.074-.4-.02-.649a1.06 1.06 0 0 0-.527-.564c-.148-.067-.545-.072-7.675-.09l-7.519-.02-.469-.986L5.267 2H2v.996Zm5.423 15.101c-.64.205-1.176.76-1.338 1.389-.074.285-.078.755-.008 1.017.205.766.872 1.366 1.64 1.477 1.061.153 2.075-.594 2.255-1.661.165-.98-.459-1.945-1.445-2.235-.288-.084-.818-.078-1.104.013Zm10.001 0c-.64.205-1.175.76-1.338 1.389-.074.285-.077.755-.007 1.017.205.766.872 1.366 1.64 1.477 1.06.153 2.074-.594 2.254-1.661.166-.98-.458-1.945-1.444-2.235-.288-.084-.819-.078-1.105.013Z"/></symbol><symbol xmlns="http://www.w3.org/2000/svg" viewBox="0 0 24 24" id="vk"><circle cx="12" cy="12" r="12" fill="#142D3E"/><path fill-rule="evenodd" clip-rule="evenodd" d="M16.571 13.907s1.051.978 1.311 1.43a.074.074 0 0 1 .012.021c.106.167.132.299.08.395-.088.16-.385.24-.486.247h-1.857c-.13 0-.399-.032-.726-.245-.25-.165-.5-.436-.74-.7-.36-.394-.672-.736-.987-.736-.04 0-.08.006-.117.018-.239.071-.542.391-.542 1.244a.412.412 0 0 1-.38.419h-.85c-.29 0-1.8-.095-3.138-1.425-1.64-1.627-3.113-4.891-3.128-4.92-.091-.211.101-.326.31-.326h1.875c.252 0 .334.143.39.272.067.147.313.737.716 1.4.652 1.079 1.053 1.518 1.374 1.518a.36.36 0 0 0 .171-.043c.42-.217.341-1.625.322-1.915 0-.056-.001-.629-.216-.905-.153-.199-.414-.276-.572-.304a.669.669 0 0 1 .247-.198C9.926 9.02 10.444 9 10.959 9h.285c.558.007.702.041.905.09.408.091.416.34.38 1.189-.01.242-.021.515-.021.837 0 .068-.004.145-.004.223-.012.435-.028.925.298 1.127a.28.28 0 0 0 .141.038c.113 0 .452 0 1.37-1.485.403-.656.715-1.429.737-1.487a.448.448 0 0 1 .139-.16.327.327 0 0 1 .153-.035h2.207c.24 0 .404.035.436.12.053.14-.01.564-1.018 1.847l-.45.56c-.913 1.129-.913 1.186.054 2.043Z" fill="#fff"/></symbol><symbol xmlns="http://www.w3.org/2000/svg" viewBox="0 0 24 24" id="school"><path d="M4.781 13.646v2.738c0 .711.383 1.374.995 1.715l4.783 2.66a1.869 1.869 0 0 0 1.837 0l4.783-2.66a1.966 1.966 0 0 0 .995-1.715v-2.738l-5.778 3.215a1.869 1.869 0 0 1-1.837 0l-5.778-3.215Zm5.778-9.412L2.495 8.716c-.66.37-.66 1.345 0 1.715l8.064 4.482a1.869 1.869 0 0 0 1.837 0l7.69-4.278v5.759c0 .536.431.974.957.974a.968.968 0 0 0 .957-.974v-6.246a.983.983 0 0 0-.497-.857l-9.107-5.057a1.923 1.923 0 0 0-1.837 0Z"/></symbol><symbol xmlns="http://www.w3.org/2000/svg" viewBox="0 0 24 24" id="wts"><circle cx="12" cy="12" r="12" fill="#142D3E"/><path fill-rule="evenodd" clip-rule="evenodd" d="M14.75 13.191a25.64 25.64 0 0 0-1.021-.484c-.137-.049-.236-.074-.336.075a8.83 8.83 0 0 1-.472.582c-.088.1-.175.112-.324.038-.15-.075-.63-.231-1.2-.737a4.475 4.475 0 0 1-.831-1.03c-.087-.149-.01-.229.065-.303.067-.067.15-.174.224-.26.075-.087.1-.149.15-.248.05-.1.025-.186-.013-.26-.037-.075-.336-.806-.46-1.104-.121-.29-.245-.25-.336-.255A6.49 6.49 0 0 0 9.91 9.2c-.1 0-.262.037-.398.186-.137.149-.523.508-.523 1.24 0 .73.535 1.437.61 1.537.075.098 1.052 1.6 2.55 2.243.357.153.635.244.851.313.358.113.683.097.94.059.287-.043.884-.36 1.008-.707s.124-.644.087-.707c-.037-.062-.136-.099-.286-.173Zm-2.725 3.701h-.002c-.89 0-1.762-.237-2.528-.689l-.18-.107-1.88.491.501-1.823-.118-.188a4.913 4.913 0 0 1-.759-2.63c.001-2.724 2.229-4.941 4.968-4.941 1.327 0 2.574.515 3.511 1.449a4.91 4.91 0 0 1 1.453 3.496c0 2.725-2.229 4.942-4.966 4.942Zm4.227-9.148A5.939 5.939 0 0 0 12.025 6C8.732 6 6.05 8.668 6.05 11.946a5.91 5.91 0 0 0 .798 2.973L6 18l3.167-.827a5.991 5.991 0 0 0 2.856.724h.002c3.293 0 5.974-2.667 5.975-5.946a5.886 5.886 0 0 0-1.748-4.207Z" fill="#fff"/></symbol></svg>
